NotoSansSymbols-Bold.ufo
<glyph name="zero" format="2">
  <advance width="586"/>
  <unicode hex="0030"/>
  <outline>
    <contour>
      <point x="293" y="-10" type="curve" smooth="yes"/>
      <point x="484" y="-10"/>
      <point x="551" y="127"/>
      <point x="551" y="356" type="curve" smooth="yes"/>
      <point x="551" y="588"/>
      <point x="471" y="724"/>
      <point x="293" y="724" type="curve" smooth="yes"/>
      <point x="102" y="724"/>
      <point x="35" y="587"/>
      <point x="35" y="356" type="curve" smooth="yes"/>
      <point x="35" y="127"/>
      <point x="114" y="-10"/>
    </contour>
    <contour>
      <point x="293" y="144" type="curve" smooth="yes"/>
      <point x="239" y="144"/>
      <point x="227" y="216"/>
      <point x="227" y="356" type="curve" smooth="yes"/>
      <point x="227" y="497"/>
      <point x="239" y="570"/>
      <point x="293" y="570" type="curve" smooth="yes"/>
      <point x="346" y="570"/>
      <point x="359" y="497"/>
      <point x="359" y="356" type="curve" smooth="yes"/>
      <point x="359" y="215"/>
      <point x="346" y="144"/>
    </contour>
  </outline>
</glyph>
<glyph name="one" format="2">
  <advance width="586"/>
  <unicode hex="0031"/>
  <outline>
    <contour>
      <point x="264" y="0" type="line"/>
      <point x="460" y="0" type="line"/>
      <point x="460" y="714" type="line"/>
      <point x="286" y="714" type="line"/>
      <point x="41" y="514" type="line"/>
      <point x="141" y="391" type="line"/>
      <point x="222" y="458" type="line" smooth="yes"/>
      <point x="236" y="470"/>
      <point x="250" y="484"/>
      <point x="267" y="504" type="curve"/>
      <point x="264" y="453"/>
      <point x="264" y="372"/>
      <point x="264" y="353" type="curve" smooth="yes"/>
    </contour>
  </outline>
</glyph>
<glyph name="two" format="2">
  <advance width="586"/>
  <unicode hex="0032"/>
  <outline>
    <contour>
      <point x="30" y="0" type="line"/>
      <point x="548" y="0" type="line"/>
      <point x="548" y="159" type="line"/>
      <point x="278" y="159" type="line"/>
      <point x="278" y="164" type="line"/>
      <point x="330" y="211" type="line" smooth="yes"/>
      <point x="466" y="334"/>
      <point x="534" y="405"/>
      <point x="534" y="529" type="curve" smooth="yes"/>
      <point x="534" y="641"/>
      <point x="441" y="724"/>
      <point x="296" y="724" type="curve" smooth="yes"/>
      <point x="154" y="724"/>
      <point x="86" y="667"/>
      <point x="22" y="610" type="curve"/>
      <point x="128" y="486" type="line"/>
      <point x="186" y="536"/>
      <point x="229" y="562"/>
      <point x="274" y="562" type="curve" smooth="yes"/>
      <point x="311" y="562"/>
      <point x="343" y="544"/>
      <point x="343" y="502" type="curve" smooth="yes"/>
      <point x="343" y="450"/>
      <point x="314" y="414"/>
      <point x="204" y="303" type="curve" smooth="yes"/>
      <point x="30" y="127" type="line"/>
    </contour>
  </outline>
</glyph>
<glyph name="three" format="2">
  <advance width="586"/>
  <unicode hex="0033"/>
  <outline>
    <contour>
      <point x="247" y="-10" type="curve" smooth="yes"/>
      <point x="454" y="-10"/>
      <point x="545" y="87"/>
      <point x="545" y="204" type="curve" smooth="yes"/>
      <point x="545" y="305"/>
      <point x="480" y="359"/>
      <point x="366" y="373" type="curve"/>
      <point x="366" y="376" type="line"/>
      <point x="451" y="399"/>
      <point x="524" y="457"/>
      <point x="524" y="559" type="curve" smooth="yes"/>
      <point x="524" y="662"/>
      <point x="434" y="724"/>
      <point x="287" y="724" type="curve" smooth="yes"/>
      <point x="163" y="724"/>
      <point x="94" y="692"/>
      <point x="35" y="652" type="curve"/>
      <point x="115" y="523" type="line"/>
      <point x="136" y="536"/>
      <point x="192" y="569"/>
      <point x="257" y="569" type="curve" smooth="yes"/>
      <point x="305" y="569"/>
      <point x="337" y="551"/>
      <point x="337" y="513" type="curve" smooth="yes"/>
      <point x="337" y="469"/>
      <point x="299" y="438"/>
      <point x="190" y="438" type="curve" smooth="yes"/>
      <point x="145" y="438" type="line"/>
      <point x="145" y="293" type="line"/>
      <point x="189" y="293" type="line" smooth="yes"/>
      <point x="312" y="293"/>
      <point x="341" y="264"/>
      <point x="341" y="216" type="curve" smooth="yes"/>
      <point x="341" y="171"/>
      <point x="313" y="142"/>
      <point x="219" y="142" type="curve" smooth="yes"/>
      <point x="165" y="142"/>
      <point x="96" y="157"/>
      <point x="34" y="189" type="curve"/>
      <point x="34" y="29" type="line"/>
      <point x="95" y="5"/>
      <point x="155" y="-10"/>
    </contour>
  </outline>
</glyph>
<glyph name="four" format="2">
  <advance width="586"/>
  <unicode hex="0034"/>
  <outline>
    <contour>
      <point x="302" y="0" type="line"/>
      <point x="492" y="0" type="line"/>
      <point x="492" y="138" type="line"/>
      <point x="571" y="138" type="line"/>
      <point x="571" y="282" type="line"/>
      <point x="492" y="282" type="line"/>
      <point x="492" y="714" type="line"/>
      <point x="314" y="714" type="line"/>
      <point x="17" y="280" type="line"/>
      <point x="17" y="138" type="line"/>
      <point x="302" y="138" type="line"/>
    </contour>
    <contour>
      <point x="184" y="282" type="line"/>
      <point x="263" y="400" type="line" smooth="yes"/>
      <point x="280" y="426"/>
      <point x="288" y="441"/>
      <point x="301" y="470" type="curve"/>
      <point x="306" y="470" type="line"/>
      <point x="305" y="468"/>
      <point x="302" y="395"/>
      <point x="302" y="365" type="curve" smooth="yes"/>
      <point x="302" y="282" type="line"/>
    </contour>
  </outline>
</glyph>
<glyph name="five" format="2">
  <advance width="586"/>
  <unicode hex="0035"/>
  <outline>
    <contour>
      <point x="250" y="-10" type="curve" smooth="yes"/>
      <point x="445" y="-10"/>
      <point x="540" y="78"/>
      <point x="540" y="238" type="curve" smooth="yes"/>
      <point x="540" y="385"/>
      <point x="443" y="468"/>
      <point x="324" y="468" type="curve" smooth="yes"/>
      <point x="277" y="468"/>
      <point x="261" y="463"/>
      <point x="240" y="459" type="curve"/>
      <point x="249" y="553" type="line"/>
      <point x="492" y="553" type="line"/>
      <point x="492" y="714" type="line"/>
      <point x="85" y="714" type="line"/>
      <point x="58" y="337" type="line"/>
      <point x="129" y="302" type="line"/>
      <point x="155" y="310"/>
      <point x="191" y="319"/>
      <point x="227" y="319" type="curve" smooth="yes"/>
      <point x="306" y="319"/>
      <point x="345" y="286"/>
      <point x="345" y="232" type="curve" smooth="yes"/>
      <point x="345" y="173"/>
      <point x="305" y="142"/>
      <point x="234" y="142" type="curve" smooth="yes"/>
      <point x="175" y="142"/>
      <point x="96" y="164"/>
      <point x="46" y="187" type="curve"/>
      <point x="46" y="29" type="line"/>
      <point x="99" y="3"/>
      <point x="167" y="-10"/>
    </contour>
  </outline>
</glyph>
<glyph name="six" format="2">
  <advance width="586"/>
  <unicode hex="0036"/>
  <outline>
    <contour>
      <point x="303" y="-10" type="curve" smooth="yes"/>
      <point x="459" y="-10"/>
      <point x="555" y="84"/>
      <point x="555" y="244" type="curve" smooth="yes"/>
      <point x="555" y="392"/>
      <point x="480" y="476"/>
      <point x="355" y="476" type="curve" smooth="yes"/>
      <point x="279" y="476"/>
      <point x="239" y="440"/>
      <point x="214" y="393" type="curve"/>
      <point x="208" y="393" type="line"/>
      <point x="214" y="506"/>
      <point x="259" y="574"/>
      <point x="404" y="574" type="curve" smooth="yes"/>
      <point x="452" y="574"/>
      <point x="483" y="570"/>
      <point x="510" y="565" type="curve"/>
      <point x="510" y="716" type="line"/>
      <point x="483" y="720"/>
      <point x="436" y="724"/>
      <point x="408" y="724" type="curve" smooth="yes"/>
      <point x="92" y="724"/>
      <point x="34" y="507"/>
      <point x="34" y="302" type="curve" smooth="yes"/>
      <point x="34" y="88"/>
      <point x="150" y="-10"/>
    </contour>
    <contour>
      <point x="299" y="143" type="curve" smooth="yes"/>
      <point x="248" y="143"/>
      <point x="226" y="199"/>
      <point x="226" y="250" type="curve" smooth="yes"/>
      <point x="226" y="288"/>
      <point x="253" y="327"/>
      <point x="301" y="327" type="curve" smooth="yes"/>
      <point x="348" y="327"/>
      <point x="368" y="294"/>
      <point x="368" y="240" type="curve" smooth="yes"/>
      <point x="368" y="173"/>
      <point x="340" y="143"/>
    </contour>
  </outline>
</glyph>
<glyph name="seven" format="2">
  <advance width="586"/>
  <unicode hex="0037"/>
  <outline>
    <contour>
      <point x="102" y="0" type="line"/>
      <point x="302" y="0" type="line"/>
      <point x="553" y="600" type="line"/>
      <point x="553" y="714" type="line"/>
      <point x="38" y="714" type="line"/>
      <point x="38" y="554" type="line"/>
      <point x="347" y="554" type="line"/>
    </contour>
  </outline>
</glyph>
<glyph name="eight" format="2">
  <advance width="586"/>
  <unicode hex="0038"/>
  <outline>
    <contour>
      <point x="293" y="-10" type="curve" smooth="yes"/>
      <point x="473" y="-10"/>
      <point x="554" y="75"/>
      <point x="554" y="190" type="curve" smooth="yes"/>
      <point x="554" y="284"/>
      <point x="477" y="338"/>
      <point x="410" y="376" type="curve"/>
      <point x="482" y="411"/>
      <point x="533" y="464"/>
      <point x="533" y="550" type="curve" smooth="yes"/>
      <point x="533" y="667"/>
      <point x="436" y="724"/>
      <point x="295" y="724" type="curve" smooth="yes"/>
      <point x="154" y="724"/>
      <point x="54" y="666"/>
      <point x="54" y="551" type="curve" smooth="yes"/>
      <point x="54" y="468"/>
      <point x="103" y="413"/>
      <point x="163" y="373" type="curve"/>
      <point x="88" y="335"/>
      <point x="33" y="287"/>
      <point x="33" y="188" type="curve" smooth="yes"/>
      <point x="33" y="71"/>
      <point x="112" y="-10"/>
    </contour>
    <contour>
      <point x="291" y="129" type="curve" smooth="yes"/>
      <point x="240" y="129"/>
      <point x="210" y="156"/>
      <point x="210" y="196" type="curve" smooth="yes"/>
      <point x="210" y="239"/>
      <point x="247" y="268"/>
      <point x="291" y="291" type="curve"/>
      <point x="304" y="283" type="line" smooth="yes"/>
      <point x="329" y="268"/>
      <point x="377" y="236"/>
      <point x="377" y="192" type="curve" smooth="yes"/>
      <point x="377" y="153"/>
      <point x="350" y="129"/>
    </contour>
    <contour>
      <point x="292" y="459" type="curve"/>
      <point x="260" y="477"/>
      <point x="235" y="502"/>
      <point x="235" y="533" type="curve" smooth="yes"/>
      <point x="235" y="565"/>
      <point x="262" y="585"/>
      <point x="294" y="585" type="curve" smooth="yes"/>
      <point x="325" y="585"/>
      <point x="352" y="565"/>
      <point x="352" y="533" type="curve" smooth="yes"/>
      <point x="352" y="495"/>
      <point x="320" y="475"/>
    </contour>
  </outline>
</glyph>
<glyph name="nine" format="2">
  <advance width="586"/>
  <unicode hex="0039"/>
  <outline>
    <contour>
      <point x="179" y="-10" type="curve" smooth="yes"/>
      <point x="444" y="-10"/>
      <point x="552" y="146"/>
      <point x="552" y="401" type="curve" smooth="yes"/>
      <point x="552" y="626"/>
      <point x="433" y="724"/>
      <point x="284" y="724" type="curve" smooth="yes"/>
      <point x="127" y="724"/>
      <point x="31" y="630"/>
      <point x="31" y="471" type="curve" smooth="yes"/>
      <point x="31" y="322"/>
      <point x="108" y="238"/>
      <point x="228" y="238" type="curve" smooth="yes"/>
      <point x="309" y="238"/>
      <point x="346" y="273"/>
      <point x="372" y="321" type="curve"/>
      <point x="378" y="321" type="line"/>
      <point x="372" y="214"/>
      <point x="331" y="140"/>
      <point x="170" y="140" type="curve" smooth="yes"/>
      <point x="133" y="140"/>
      <point x="107" y="143"/>
      <point x="79" y="148" type="curve"/>
      <point x="79" y="-5" type="line"/>
      <point x="106" y="-9"/>
      <point x="150" y="-10"/>
    </contour>
    <contour>
      <point x="287" y="386" type="curve" smooth="yes"/>
      <point x="241" y="386"/>
      <point x="218" y="420"/>
      <point x="218" y="473" type="curve" smooth="yes"/>
      <point x="218" y="541"/>
      <point x="244" y="570"/>
      <point x="289" y="570" type="curve" smooth="yes"/>
      <point x="339" y="570"/>
      <point x="360" y="515"/>
      <point x="360" y="464" type="curve" smooth="yes"/>
      <point x="360" y="426"/>
      <point x="330" y="386"/>
    </contour>
  </outline>
</glyph>
<glyph name="A" format="2">
  <advance width="726"/>
  <unicode hex="0041"/>
  <outline>
    <contour>
      <point x="0" y="0" type="line"/>
      <point x="212" y="0" type="line"/>
      <point x="248" y="134" type="line"/>
      <point x="480" y="134" type="line"/>
      <point x="515" y="0" type="line"/>
      <point x="726" y="0" type="line"/>
      <point x="490" y="717" type="line"/>
      <point x="233" y="717" type="line"/>
    </contour>
    <contour>
      <point x="288" y="292" type="line"/>
      <point x="319" y="409" type="line" smooth="yes"/>
      <point x="331" y="456"/>
      <point x="354" y="550"/>
      <point x="363" y="599" type="curve"/>
      <point x="372" y="550"/>
      <point x="399" y="447"/>
      <point x="409" y="409" type="curve" smooth="yes"/>
      <point x="440" y="292" type="line"/>
    </contour>
  </outline>
</glyph>
<glyph name="B" format="2">
  <advance width="674"/>
  <unicode hex="0042"/>
  <outline>
    <contour>
      <point x="77" y="0" type="line"/>
      <point x="355" y="0" type="line" smooth="yes"/>
      <point x="523" y="0"/>
      <point x="627" y="79"/>
      <point x="627" y="209" type="curve" smooth="yes"/>
      <point x="627" y="323"/>
      <point x="559" y="359"/>
      <point x="501" y="374" type="curve"/>
      <point x="501" y="379" type="line"/>
      <point x="554" y="392"/>
      <point x="613" y="442"/>
      <point x="613" y="536" type="curve" smooth="yes"/>
      <point x="613" y="651"/>
      <point x="532" y="714"/>
      <point x="326" y="714" type="curve" smooth="yes"/>
      <point x="77" y="714" type="line"/>
    </contour>
    <contour>
      <point x="270" y="149" type="line"/>
      <point x="270" y="299" type="line"/>
      <point x="334" y="299" type="line"/>
      <point x="406" y="299"/>
      <point x="428" y="263"/>
      <point x="428" y="225" type="curve" smooth="yes"/>
      <point x="428" y="181"/>
      <point x="405" y="149"/>
      <point x="338" y="149" type="curve" smooth="yes"/>
    </contour>
    <contour>
      <point x="270" y="440" type="line"/>
      <point x="270" y="568" type="line"/>
      <point x="324" y="568" type="line" smooth="yes"/>
      <point x="386" y="568"/>
      <point x="415" y="547"/>
      <point x="415" y="508" type="curve" smooth="yes"/>
      <point x="415" y="470"/>
      <point x="392" y="440"/>
      <point x="328" y="440" type="curve" smooth="yes"/>
    </contour>
  </outline>
</glyph>
<glyph name="E" format="2">
  <advance width="549"/>
  <unicode hex="0045"/>
  <outline>
    <contour>
      <point x="77" y="0" type="line"/>
      <point x="501" y="0" type="line"/>
      <point x="501" y="157" type="line"/>
      <point x="270" y="157" type="line"/>
      <point x="270" y="292" type="line"/>
      <point x="484" y="292" type="line"/>
      <point x="484" y="447" type="line"/>
      <point x="270" y="447" type="line"/>
      <point x="270" y="559" type="line"/>
      <point x="501" y="559" type="line"/>
      <point x="501" y="714" type="line"/>
      <point x="77" y="714" type="line"/>
    </contour>
  </outline>
</glyph>
<glyph name="F" format="2">
  <advance width="539"/>
  <unicode hex="0046"/>
  <outline>
    <contour>
      <point x="77" y="0" type="line"/>
      <point x="267" y="0" type="line"/>
      <point x="267" y="268" type="line"/>
      <point x="481" y="268" type="line"/>
      <point x="481" y="423" type="line"/>
      <point x="267" y="423" type="line"/>
      <point x="267" y="559" type="line"/>
      <point x="499" y="559" type="line"/>
      <point x="499" y="714" type="line"/>
      <point x="77" y="714" type="line"/>
    </contour>
  </outline>
</glyph>
<glyph name="J" format="2">
  <advance width="352"/>
  <unicode hex="004A"/>
  <outline>
    <contour>
      <point x="21" y="-224" type="curve" smooth="yes"/>
      <point x="171" y="-224"/>
      <point x="275" y="-145"/>
      <point x="275" y="70" type="curve" smooth="yes"/>
      <point x="275" y="714" type="line"/>
      <point x="81" y="714" type="line"/>
      <point x="81" y="53" type="line" smooth="yes"/>
      <point x="81" y="-32"/>
      <point x="61" y="-74"/>
      <point x="-8" y="-74" type="curve" smooth="yes"/>
      <point x="-35" y="-74"/>
      <point x="-58" y="-68"/>
      <point x="-79" y="-64" type="curve"/>
      <point x="-79" y="-214" type="line"/>
      <point x="-55" y="-219"/>
      <point x="-23" y="-224"/>
    </contour>
  </outline>
</glyph>
<glyph name="K" format="2">
  <advance width="687"/>
  <unicode hex="004B"/>
  <outline>
    <contour>
      <point x="77" y="0" type="line"/>
      <point x="271" y="0" type="line"/>
      <point x="271" y="239" type="line"/>
      <point x="328" y="273" type="line"/>
      <point x="469" y="0" type="line"/>
      <point x="687" y="0" type="line"/>
      <point x="466" y="394" type="line"/>
      <point x="691" y="714" type="line"/>
      <point x="480" y="714" type="line"/>
      <point x="330" y="495" type="line" smooth="yes"/>
      <point x="310" y="466"/>
      <point x="287" y="435"/>
      <point x="271" y="404" type="curve"/>
      <point x="271" y="714" type="line"/>
      <point x="77" y="714" type="line"/>
    </contour>
  </outline>
</glyph>
<glyph name="L" format="2">
  <advance width="582"/>
  <unicode hex="004C"/>
  <outline>
    <contour>
      <point x="77" y="0" type="line"/>
      <point x="545" y="0" type="line"/>
      <point x="545" y="156" type="line"/>
      <point x="270" y="156" type="line"/>
      <point x="270" y="714" type="line"/>
      <point x="77" y="714" type="line"/>
    </contour>
  </outline>
</glyph>
<glyph name="M" format="2">
  <advance width="967"/>
  <unicode hex="004D"/>
  <outline>
    <contour>
      <point x="77" y="0" type="line"/>
      <point x="248" y="0" type="line"/>
      <point x="248" y="310" type="line" smooth="yes"/>
      <point x="248" y="383"/>
      <point x="241" y="474"/>
      <point x="238" y="514" type="curve"/>
      <point x="242" y="514" type="line"/>
      <point x="388" y="0" type="line"/>
      <point x="572" y="0" type="line"/>
      <point x="716" y="513" type="line"/>
      <point x="720" y="513" type="line"/>
      <point x="717" y="473"/>
      <point x="713" y="380"/>
      <point x="713" y="313" type="curve" smooth="yes"/>
      <point x="713" y="0" type="line"/>
      <point x="890" y="0" type="line"/>
      <point x="890" y="714" type="line"/>
      <point x="633" y="714" type="line"/>
      <point x="487" y="207" type="line"/>
      <point x="483" y="207" type="line"/>
      <point x="334" y="714" type="line"/>
      <point x="77" y="714" type="line"/>
    </contour>
  </outline>
</glyph>
<glyph name="N" format="2">
  <advance width="834"/>
  <unicode hex="004E"/>
  <outline>
    <contour>
      <point x="77" y="0" type="line"/>
      <point x="248" y="0" type="line"/>
      <point x="248" y="322" type="line" smooth="yes"/>
      <point x="248" y="375"/>
      <point x="243" y="457"/>
      <point x="239" y="503" type="curve"/>
      <point x="243" y="503" type="line"/>
      <point x="504" y="0" type="line"/>
      <point x="757" y="0" type="line"/>
      <point x="757" y="714" type="line"/>
      <point x="585" y="714" type="line"/>
      <point x="585" y="391" type="line" smooth="yes"/>
      <point x="585" y="342"/>
      <point x="589" y="264"/>
      <point x="592" y="218" type="curve"/>
      <point x="589" y="218" type="line"/>
      <point x="329" y="714" type="line"/>
      <point x="77" y="714" type="line"/>
    </contour>
  </outline>
</glyph>
<glyph name="P" format="2">
  <advance width="632"/>
  <unicode hex="0050"/>
  <outline>
    <contour>
      <point x="77" y="0" type="line"/>
      <point x="270" y="0" type="line"/>
      <point x="270" y="237" type="line"/>
      <point x="324" y="237" type="line" smooth="yes"/>
      <point x="527" y="237"/>
      <point x="595" y="357"/>
      <point x="595" y="487" type="curve" smooth="yes"/>
      <point x="595" y="632"/>
      <point x="505" y="714"/>
      <point x="324" y="714" type="curve" smooth="yes"/>
      <point x="77" y="714" type="line"/>
    </contour>
    <contour>
      <point x="270" y="394" type="line"/>
      <point x="270" y="558" type="line"/>
      <point x="320" y="558" type="line" smooth="yes"/>
      <point x="376" y="558"/>
      <point x="402" y="527"/>
      <point x="402" y="482" type="curve" smooth="yes"/>
      <point x="402" y="417"/>
      <point x="358" y="394"/>
      <point x="308" y="394" type="curve" smooth="yes"/>
    </contour>
  </outline>
</glyph>
<glyph name="Q" format="2">
  <advance width="797"/>
  <unicode hex="0051"/>
  <outline>
    <contour>
      <point x="525" y="-170" type="line"/>
      <point x="765" y="-170" type="line"/>
      <point x="591" y="31" type="line"/>
      <point x="700" y="91"/>
      <point x="745" y="209"/>
      <point x="745" y="358" type="curve" smooth="yes"/>
      <point x="745" y="580"/>
      <point x="643" y="725"/>
      <point x="399" y="725" type="curve" smooth="yes"/>
      <point x="158" y="725"/>
      <point x="51" y="581"/>
      <point x="51" y="359" type="curve" smooth="yes"/>
      <point x="51" y="136"/>
      <point x="158" y="-10"/>
      <point x="398" y="-10" type="curve" smooth="yes"/>
      <point x="399" y="-10"/>
      <point x="404" y="-10"/>
      <point x="405" y="-10" type="curve"/>
    </contour>
    <contour>
      <point x="398" y="151" type="curve" smooth="yes"/>
      <point x="295" y="151"/>
      <point x="254" y="229"/>
      <point x="254" y="358" type="curve" smooth="yes"/>
      <point x="254" y="487"/>
      <point x="294" y="567"/>
      <point x="399" y="567" type="curve" smooth="yes"/>
      <point x="504" y="567"/>
      <point x="542" y="487"/>
      <point x="542" y="358" type="curve" smooth="yes"/>
      <point x="542" y="229"/>
      <point x="504" y="151"/>
    </contour>
  </outline>
</glyph>
<glyph name="R" format="2">
  <advance width="677"/>
  <unicode hex="0052"/>
  <outline>
    <contour>
      <point x="77" y="0" type="line"/>
      <point x="270" y="0" type="line"/>
      <point x="270" y="260" type="line"/>
      <point x="319" y="260" type="line"/>
      <point x="470" y="0" type="line"/>
      <point x="689" y="0" type="line"/>
      <point x="481" y="311" type="line"/>
      <point x="556" y="353"/>
      <point x="602" y="416"/>
      <point x="602" y="503" type="curve" smooth="yes"/>
      <point x="602" y="642"/>
      <point x="505" y="714"/>
      <point x="311" y="714" type="curve" smooth="yes"/>
      <point x="77" y="714" type="line"/>
    </contour>
    <contour>
      <point x="270" y="405" type="line"/>
      <point x="270" y="568" type="line"/>
      <point x="308" y="568" type="line" smooth="yes"/>
      <point x="378" y="568"/>
      <point x="407" y="540"/>
      <point x="407" y="494" type="curve" smooth="yes"/>
      <point x="407" y="427"/>
      <point x="365" y="405"/>
      <point x="306" y="405" type="curve" smooth="yes"/>
    </contour>
  </outline>
</glyph>
<glyph name="S" format="2">
  <advance width="577"/>
  <unicode hex="0053"/>
  <outline>
    <contour>
      <point x="264" y="-10" type="curve" smooth="yes"/>
      <point x="459" y="-10"/>
      <point x="544" y="100"/>
      <point x="544" y="217" type="curve" smooth="yes"/>
      <point x="544" y="328"/>
      <point x="484" y="379"/>
      <point x="380" y="426" type="curve" smooth="yes"/>
      <point x="274" y="474"/>
      <point x="240" y="490"/>
      <point x="240" y="524" type="curve" smooth="yes"/>
      <point x="240" y="550"/>
      <point x="262" y="570"/>
      <point x="312" y="570" type="curve" smooth="yes"/>
      <point x="363" y="570"/>
      <point x="424" y="552"/>
      <point x="485" y="524" type="curve"/>
      <point x="544" y="673" type="line"/>
      <point x="485" y="699"/>
      <point x="411" y="724"/>
      <point x="318" y="724" type="curve" smooth="yes"/>
      <point x="158" y="724"/>
      <point x="49" y="653"/>
      <point x="49" y="515" type="curve" smooth="yes"/>
      <point x="49" y="392"/>
      <point x="116" y="343"/>
      <point x="222" y="294" type="curve" smooth="yes"/>
      <point x="315" y="251"/>
      <point x="351" y="237"/>
      <point x="351" y="200" type="curve" smooth="yes"/>
      <point x="351" y="169"/>
      <point x="325" y="147"/>
      <point x="268" y="147" type="curve" smooth="yes"/>
      <point x="204" y="147"/>
      <point x="121" y="168"/>
      <point x="44" y="207" type="curve"/>
      <point x="44" y="35" type="line"/>
      <point x="112" y="3"/>
      <point x="166" y="-10"/>
    </contour>
  </outline>
</glyph>
<glyph name="T" format="2">
  <advance width="591"/>
  <unicode hex="0054"/>
  <outline>
    <contour>
      <point x="199" y="0" type="line"/>
      <point x="392" y="0" type="line"/>
      <point x="392" y="556" type="line"/>
      <point x="566" y="556" type="line"/>
      <point x="566" y="714" type="line"/>
      <point x="25" y="714" type="line"/>
      <point x="25" y="556" type="line"/>
      <point x="199" y="556" type="line"/>
    </contour>
  </outline>
</glyph>
<glyph name="U" format="2">
  <advance width="757"/>
  <unicode hex="0055"/>
  <outline>
    <contour>
      <point x="376" y="-10" type="curve" smooth="yes"/>
      <point x="582" y="-10"/>
      <point x="684" y="104"/>
      <point x="684" y="284" type="curve" smooth="yes"/>
      <point x="684" y="714" type="line"/>
      <point x="491" y="714" type="line"/>
      <point x="491" y="296" type="line" smooth="yes"/>
      <point x="491" y="194"/>
      <point x="458" y="151"/>
      <point x="379" y="151" type="curve" smooth="yes"/>
      <point x="305" y="151"/>
      <point x="267" y="194"/>
      <point x="267" y="295" type="curve" smooth="yes"/>
      <point x="267" y="714" type="line"/>
      <point x="73" y="714" type="line"/>
      <point x="73" y="280" type="line" smooth="yes"/>
      <point x="73" y="95"/>
      <point x="179" y="-10"/>
    </contour>
  </outline>
</glyph>
<glyph name="W" format="2">
  <advance width="1039"/>
  <unicode hex="0057"/>
  <outline>
    <contour>
      <point x="192" y="0" type="line"/>
      <point x="420" y="0" type="line"/>
      <point x="489" y="311" type="line" smooth="yes"/>
      <point x="494" y="334"/>
      <point x="516" y="437"/>
      <point x="521" y="486" type="curve"/>
      <point x="526" y="437"/>
      <point x="547" y="334"/>
      <point x="552" y="311" type="curve" smooth="yes"/>
      <point x="620" y="0" type="line"/>
      <point x="848" y="0" type="line"/>
      <point x="1024" y="714" type="line"/>
      <point x="838" y="714" type="line"/>
      <point x="759" y="355" type="line" smooth="yes"/>
      <point x="751" y="319"/>
      <point x="730" y="216"/>
      <point x="724" y="167" type="curve"/>
      <point x="715" y="245"/>
      <point x="684" y="388"/>
      <point x="671" y="444" type="curve" smooth="yes"/>
      <point x="610" y="714" type="line"/>
      <point x="431" y="714" type="line"/>
      <point x="368" y="444" type="line" smooth="yes"/>
      <point x="354" y="386"/>
      <point x="325" y="248"/>
      <point x="315" y="167" type="curve"/>
      <point x="309" y="214"/>
      <point x="287" y="321"/>
      <point x="279" y="356" type="curve" smooth="yes"/>
      <point x="201" y="714" type="line"/>
      <point x="15" y="714" type="line"/>
    </contour>
  </outline>
</glyph>
<glyph name="X" format="2">
  <advance width="723"/>
  <unicode hex="0058"/>
  <outline>
    <contour>
      <point x="2" y="0" type="line"/>
      <point x="220" y="0" type="line"/>
      <point x="358" y="223" type="line"/>
      <point x="497" y="0" type="line"/>
      <point x="720" y="0" type="line"/>
      <point x="477" y="350" type="line"/>
      <point x="703" y="714" type="line"/>
      <point x="483" y="714" type="line"/>
      <point x="359" y="493" type="line"/>
      <point x="230" y="714" type="line"/>
      <point x="16" y="714" type="line"/>
      <point x="239" y="365" type="line"/>
    </contour>
  </outline>
</glyph>
<glyph name="Y" format="2">
  <advance width="664"/>
  <unicode hex="0059"/>
  <outline>
    <contour>
      <point x="235" y="0" type="line"/>
      <point x="429" y="0" type="line"/>
      <point x="429" y="279" type="line"/>
      <point x="664" y="714" type="line"/>
      <point x="455" y="714" type="line"/>
      <point x="332" y="449" type="line"/>
      <point x="210" y="714" type="line"/>
      <point x="0" y="714" type="line"/>
      <point x="235" y="273" type="line"/>
    </contour>
  </outline>
</glyph>
<glyph name="Z" format="2">
  <advance width="611"/>
  <unicode hex="005A"/>
  <outline>
    <contour>
      <point x="30" y="0" type="line"/>
      <point x="586" y="0" type="line"/>
      <point x="586" y="156" type="line"/>
      <point x="269" y="156" type="line"/>
      <point x="578" y="595" type="line"/>
      <point x="578" y="714" type="line"/>
      <point x="37" y="714" type="line"/>
      <point x="37" y="558" type="line"/>
      <point x="339" y="558" type="line"/>
      <point x="30" y="119" type="line"/>
    </contour>
  </outline>
</glyph>
<glyph name="a" format="2">
  <advance width="623"/>
  <unicode hex="0061"/>
  <outline>
    <contour>
      <point x="204" y="-10" type="curve" smooth="yes"/>
      <point x="296" y="-10"/>
      <point x="339" y="14"/>
      <point x="386" y="73" type="curve"/>
      <point x="390" y="73" type="line"/>
      <point x="427" y="0" type="line"/>
      <point x="559" y="0" type="line"/>
      <point x="559" y="363" type="line" smooth="yes"/>
      <point x="559" y="491"/>
      <point x="476" y="563"/>
      <point x="336" y="563" type="curve" smooth="yes"/>
      <point x="236" y="563"/>
      <point x="156" y="546"/>
      <point x="92" y="513" type="curve"/>
      <point x="147" y="387" type="line"/>
      <point x="201" y="411"/>
      <point x="257" y="428"/>
      <point x="301" y="428" type="curve" smooth="yes"/>
      <point x="342" y="428"/>
      <point x="368" y="409"/>
      <point x="368" y="360" type="curve" smooth="yes"/>
      <point x="368" y="352" type="line"/>
      <point x="276" y="349" type="line" smooth="yes"/>
      <point x="120" y="344"/>
      <point x="36" y="287"/>
      <point x="36" y="169" type="curve" smooth="yes"/>
      <point x="36" y="48"/>
      <point x="108" y="-10"/>
    </contour>
    <contour>
      <point x="285" y="125" type="curve" smooth="yes"/>
      <point x="252" y="125"/>
      <point x="230" y="142"/>
      <point x="230" y="180" type="curve" smooth="yes"/>
      <point x="230" y="220"/>
      <point x="255" y="242"/>
      <point x="325" y="245" type="curve" smooth="yes"/>
      <point x="369" y="247" type="line"/>
      <point x="369" y="204" type="line"/>
      <point x="369" y="157"/>
      <point x="331" y="125"/>
    </contour>
  </outline>
</glyph>
<glyph name="b" format="2">
  <advance width="643"/>
  <unicode hex="0062"/>
  <outline>
    <contour>
      <point x="398" y="-10" type="curve" smooth="yes"/>
      <point x="518" y="-10"/>
      <point x="600" y="89"/>
      <point x="600" y="278" type="curve" smooth="yes"/>
      <point x="600" y="463"/>
      <point x="519" y="563"/>
      <point x="404" y="563" type="curve" smooth="yes"/>
      <point x="329" y="563"/>
      <point x="285" y="527"/>
      <point x="257" y="482" type="curve"/>
      <point x="250" y="482" type="line"/>
      <point x="254" y="513"/>
      <point x="257" y="549"/>
      <point x="257" y="588" type="curve" smooth="yes"/>
      <point x="257" y="760" type="line"/>
      <point x="66" y="760" type="line"/>
      <point x="66" y="0" type="line"/>
      <point x="215" y="0" type="line"/>
      <point x="245" y="54" type="line"/>
      <point x="257" y="54" type="line"/>
      <point x="285" y="23"/>
      <point x="320" y="-10"/>
    </contour>
    <contour>
      <point x="336" y="144" type="curve" smooth="yes"/>
      <point x="277" y="144"/>
      <point x="257" y="185"/>
      <point x="257" y="271" type="curve" smooth="yes"/>
      <point x="257" y="298" type="line" smooth="yes"/>
      <point x="257" y="377"/>
      <point x="281" y="413"/>
      <point x="334" y="413" type="curve"/>
      <point x="383" y="413"/>
      <point x="406" y="368"/>
      <point x="406" y="280" type="curve" smooth="yes"/>
      <point x="406" y="191"/>
      <point x="381" y="144"/>
    </contour>
  </outline>
</glyph>
<glyph name="e" format="2">
  <advance width="618"/>
  <unicode hex="0065"/>
  <outline>
    <contour>
      <point x="333" y="-10" type="curve" smooth="yes"/>
      <point x="429" y="-10"/>
      <point x="487" y="3"/>
      <point x="540" y="31" type="curve"/>
      <point x="540" y="168" type="line"/>
      <point x="479" y="139"/>
      <point x="425" y="126"/>
      <point x="356" y="126" type="curve" smooth="yes"/>
      <point x="278" y="126"/>
      <point x="238" y="167"/>
      <point x="235" y="225" type="curve"/>
      <point x="576" y="225" type="line"/>
      <point x="576" y="310" type="line"/>
      <point x="576" y="479"/>
      <point x="476" y="563"/>
      <point x="315" y="563" type="curve" smooth="yes"/>
      <point x="152" y="563"/>
      <point x="42" y="472"/>
      <point x="42" y="273" type="curve" smooth="yes"/>
      <point x="42" y="76"/>
      <point x="166" y="-10"/>
    </contour>
    <contour>
      <point x="239" y="345" type="line"/>
      <point x="244" y="406"/>
      <point x="277" y="433"/>
      <point x="322" y="433" type="curve" smooth="yes"/>
      <point x="374" y="433"/>
      <point x="403" y="394"/>
      <point x="403" y="345" type="curve"/>
    </contour>
  </outline>
</glyph>
<glyph name="f" format="2">
  <advance width="413"/>
  <unicode hex="0066"/>
  <outline>
    <contour>
      <point x="95" y="0" type="line"/>
      <point x="286" y="0" type="line"/>
      <point x="286" y="410" type="line"/>
      <point x="404" y="410" type="line"/>
      <point x="404" y="553" type="line"/>
      <point x="286" y="553" type="line"/>
      <point x="286" y="568" type="line" smooth="yes"/>
      <point x="286" y="608"/>
      <point x="299" y="625"/>
      <point x="328" y="625" type="curve" smooth="yes"/>
      <point x="355" y="625"/>
      <point x="378" y="620"/>
      <point x="397" y="615" type="curve"/>
      <point x="438" y="739" type="line"/>
      <point x="387" y="756"/>
      <point x="344" y="765"/>
      <point x="287" y="765" type="curve" smooth="yes"/>
      <point x="153" y="765"/>
      <point x="99" y="703"/>
      <point x="99" y="560" type="curve" smooth="yes"/>
      <point x="99" y="551" type="line"/>
      <point x="22" y="504" type="line"/>
      <point x="22" y="410" type="line"/>
      <point x="95" y="410" type="line"/>
    </contour>
  </outline>
</glyph>
<glyph name="g" format="2">
  <advance width="643"/>
  <unicode hex="0067"/>
  <outline>
    <contour>
      <point x="282" y="-240" type="curve" smooth="yes"/>
      <point x="482" y="-240"/>
      <point x="577" y="-157"/>
      <point x="577" y="-1" type="curve"/>
      <point x="577" y="553" type="line"/>
      <point x="412" y="553" type="line"/>
      <point x="398" y="485" type="line"/>
      <point x="394" y="485" type="line"/>
      <point x="365" y="529"/>
      <point x="320" y="563"/>
      <point x="243" y="563" type="curve" smooth="yes"/>
      <point x="124" y="563"/>
      <point x="42" y="463"/>
      <point x="42" y="276" type="curve" smooth="yes"/>
      <point x="42" y="89"/>
      <point x="122" y="-10"/>
      <point x="240" y="-10" type="curve" smooth="yes"/>
      <point x="316" y="-10"/>
      <point x="360" y="26"/>
      <point x="386" y="70" type="curve"/>
      <point x="392" y="70" type="line"/>
      <point x="388" y="43"/>
      <point x="386" y="18"/>
      <point x="386" y="1" type="curve" smooth="yes"/>
      <point x="386" y="-9" type="line"/>
      <point x="386" y="-62"/>
      <point x="348" y="-91"/>
      <point x="271" y="-91" type="curve" smooth="yes"/>
      <point x="184" y="-91"/>
      <point x="133" y="-77"/>
      <point x="66" y="-49" type="curve"/>
      <point x="66" y="-208" type="line"/>
      <point x="129" y="-232"/>
      <point x="193" y="-240"/>
    </contour>
    <contour>
      <point x="318" y="138" type="curve" smooth="yes"/>
      <point x="262" y="138"/>
      <point x="236" y="177"/>
      <point x="236" y="273" type="curve" smooth="yes"/>
      <point x="236" y="366"/>
      <point x="262" y="415"/>
      <point x="315" y="415" type="curve" smooth="yes"/>
      <point x="383" y="415"/>
      <point x="401" y="365"/>
      <point x="401" y="279" type="curve" smooth="yes"/>
      <point x="401" y="256" type="line" smooth="yes"/>
      <point x="401" y="177"/>
      <point x="380" y="138"/>
    </contour>
  </outline>
</glyph>
<glyph name="h" format="2">
  <advance width="670"/>
  <unicode hex="0068"/>
  <outline>
    <contour>
      <point x="66" y="0" type="line"/>
      <point x="257" y="0" type="line"/>
      <point x="257" y="243" type="line" smooth="yes"/>
      <point x="257" y="352"/>
      <point x="279" y="413"/>
      <point x="348" y="413" type="curve" smooth="yes"/>
      <point x="393" y="413"/>
      <point x="414" y="375"/>
      <point x="414" y="302" type="curve" smooth="yes"/>
      <point x="414" y="0" type="line"/>
      <point x="606" y="0" type="line"/>
      <point x="606" y="360" type="line" smooth="yes"/>
      <point x="606" y="503"/>
      <point x="519" y="563"/>
      <point x="410" y="563" type="curve" smooth="yes"/>
      <point x="344" y="563"/>
      <point x="294" y="542"/>
      <point x="258" y="485" type="curve"/>
      <point x="249" y="485" type="line"/>
      <point x="252" y="514"/>
      <point x="257" y="570"/>
      <point x="257" y="652" type="curve" smooth="yes"/>
      <point x="257" y="760" type="line"/>
      <point x="66" y="760" type="line"/>
    </contour>
  </outline>
</glyph>
<glyph name="i" format="2">
  <advance width="325"/>
  <unicode hex="0069"/>
  <outline>
    <contour>
      <point x="67" y="0" type="line"/>
      <point x="258" y="0" type="line"/>
      <point x="258" y="553" type="line"/>
      <point x="67" y="553" type="line"/>
    </contour>
    <contour>
      <point x="163" y="607" type="curve" smooth="yes"/>
      <point x="218" y="607"/>
      <point x="265" y="625"/>
      <point x="265" y="691" type="curve" smooth="yes"/>
      <point x="265" y="759"/>
      <point x="218" y="776"/>
      <point x="163" y="776" type="curve" smooth="yes"/>
      <point x="107" y="776"/>
      <point x="62" y="759"/>
      <point x="62" y="691" type="curve"/>
      <point x="62" y="625"/>
      <point x="107" y="607"/>
    </contour>
  </outline>
</glyph>
<glyph name="j" format="2">
  <advance width="324"/>
  <unicode hex="006A"/>
  <outline>
    <contour>
      <point x="52" y="-240" type="curve" smooth="yes"/>
      <point x="204" y="-240"/>
      <point x="257" y="-145"/>
      <point x="257" y="-45" type="curve" smooth="yes"/>
      <point x="257" y="553" type="line"/>
      <point x="66" y="553" type="line"/>
      <point x="66" y="-5" type="line" smooth="yes"/>
      <point x="66" y="-72"/>
      <point x="39" y="-88"/>
      <point x="8" y="-88" type="curve" smooth="yes"/>
      <point x="-14" y="-88"/>
      <point x="-30" y="-85"/>
      <point x="-51" y="-79" type="curve"/>
      <point x="-51" y="-228" type="line"/>
      <point x="-25" y="-235"/>
      <point x="21" y="-240"/>
    </contour>
    <contour>
      <point x="162" y="607" type="curve" smooth="yes"/>
      <point x="217" y="607"/>
      <point x="264" y="625"/>
      <point x="264" y="691" type="curve" smooth="yes"/>
      <point x="264" y="759"/>
      <point x="217" y="776"/>
      <point x="162" y="776" type="curve" smooth="yes"/>
      <point x="106" y="776"/>
      <point x="61" y="759"/>
      <point x="61" y="691" type="curve" smooth="yes"/>
      <point x="61" y="625"/>
      <point x="106" y="607"/>
    </contour>
  </outline>
</glyph>
<glyph name="k" format="2">
  <advance width="659"/>
  <unicode hex="006B"/>
  <outline>
    <contour>
      <point x="66" y="0" type="line"/>
      <point x="258" y="0" type="line"/>
      <point x="258" y="151" type="line"/>
      <point x="320" y="198" type="line"/>
      <point x="441" y="0" type="line"/>
      <point x="659" y="0" type="line"/>
      <point x="455" y="318" type="line"/>
      <point x="647" y="553" type="line"/>
      <point x="434" y="553" type="line"/>
      <point x="310" y="397" type="line" smooth="yes"/>
      <point x="292" y="374"/>
      <point x="266" y="334"/>
      <point x="251" y="311" type="curve"/>
      <point x="247" y="311" type="line"/>
      <point x="254" y="356"/>
      <point x="258" y="416"/>
      <point x="258" y="461" type="curve" smooth="yes"/>
      <point x="258" y="760" type="line"/>
      <point x="66" y="760" type="line"/>
    </contour>
  </outline>
</glyph>
<glyph name="l" format="2">
  <advance width="323"/>
  <unicode hex="006C"/>
  <outline>
    <contour>
      <point x="66" y="0" type="line"/>
      <point x="257" y="0" type="line"/>
      <point x="257" y="760" type="line"/>
      <point x="66" y="760" type="line"/>
    </contour>
  </outline>
</glyph>
<glyph name="o" format="2">
  <advance width="637"/>
  <unicode hex="006F"/>
  <outline>
    <contour>
      <point x="317" y="-10" type="curve" smooth="yes"/>
      <point x="489" y="-10"/>
      <point x="594" y="93"/>
      <point x="594" y="278" type="curve" smooth="yes"/>
      <point x="594" y="461"/>
      <point x="479" y="563"/>
      <point x="320" y="563" type="curve" smooth="yes"/>
      <point x="147" y="563"/>
      <point x="42" y="461"/>
      <point x="42" y="278" type="curve" smooth="yes"/>
      <point x="42" y="93"/>
      <point x="157" y="-10"/>
    </contour>
    <contour>
      <point x="319" y="132" type="curve" smooth="yes"/>
      <point x="259" y="132"/>
      <point x="236" y="183"/>
      <point x="236" y="278" type="curve" smooth="yes"/>
      <point x="236" y="372"/>
      <point x="260" y="421"/>
      <point x="318" y="421" type="curve" smooth="yes"/>
      <point x="378" y="421"/>
      <point x="400" y="372"/>
      <point x="400" y="278" type="curve" smooth="yes"/>
      <point x="400" y="183"/>
      <point x="378" y="132"/>
    </contour>
  </outline>
</glyph>
<glyph name="p" format="2">
  <advance width="643"/>
  <unicode hex="0070"/>
  <outline>
    <contour>
      <point x="66" y="-240" type="line"/>
      <point x="257" y="-240" type="line"/>
      <point x="257" y="-38" type="line" smooth="yes"/>
      <point x="257" y="1"/>
      <point x="254" y="29"/>
      <point x="251" y="54" type="curve"/>
      <point x="257" y="54" type="line"/>
      <point x="281" y="24"/>
      <point x="320" y="-10"/>
      <point x="398" y="-10" type="curve" smooth="yes"/>
      <point x="514" y="-10"/>
      <point x="600" y="89"/>
      <point x="600" y="278" type="curve" smooth="yes"/>
      <point x="600" y="462"/>
      <point x="526" y="563"/>
      <point x="404" y="563" type="curve" smooth="yes"/>
      <point x="327" y="563"/>
      <point x="284" y="526"/>
      <point x="257" y="483" type="curve"/>
      <point x="248" y="483" type="line"/>
      <point x="221" y="553" type="line"/>
      <point x="66" y="553" type="line"/>
    </contour>
    <contour>
      <point x="333" y="144" type="curve" smooth="yes"/>
      <point x="274" y="144"/>
      <point x="257" y="191"/>
      <point x="257" y="279" type="curve" smooth="yes"/>
      <point x="257" y="294" type="line" smooth="yes"/>
      <point x="259" y="373"/>
      <point x="276" y="413"/>
      <point x="332" y="413" type="curve" smooth="yes"/>
      <point x="380" y="413"/>
      <point x="406" y="377"/>
      <point x="406" y="280" type="curve" smooth="yes"/>
      <point x="406" y="182"/>
      <point x="381" y="144"/>
    </contour>
  </outline>
</glyph>
<glyph name="q" format="2">
  <advance width="643"/>
  <unicode hex="0071"/>
  <outline>
    <contour>
      <point x="386" y="-240" type="line"/>
      <point x="577" y="-240" type="line"/>
      <point x="577" y="553" type="line"/>
      <point x="412" y="553" type="line"/>
      <point x="398" y="485" type="line"/>
      <point x="394" y="485" type="line"/>
      <point x="365" y="529"/>
      <point x="320" y="563"/>
      <point x="243" y="563" type="curve" smooth="yes"/>
      <point x="124" y="563"/>
      <point x="42" y="463"/>
      <point x="42" y="276" type="curve" smooth="yes"/>
      <point x="42" y="89"/>
      <point x="122" y="-10"/>
      <point x="240" y="-10" type="curve" smooth="yes"/>
      <point x="316" y="-10"/>
      <point x="360" y="26"/>
      <point x="386" y="70" type="curve"/>
      <point x="392" y="70" type="line"/>
      <point x="388" y="43"/>
      <point x="386" y="16"/>
      <point x="386" y="-11" type="curve" smooth="yes"/>
    </contour>
    <contour>
      <point x="318" y="138" type="curve" smooth="yes"/>
      <point x="262" y="138"/>
      <point x="236" y="177"/>
      <point x="236" y="273" type="curve" smooth="yes"/>
      <point x="236" y="366"/>
      <point x="262" y="415"/>
      <point x="315" y="415" type="curve" smooth="yes"/>
      <point x="383" y="415"/>
      <point x="401" y="365"/>
      <point x="401" y="279" type="curve" smooth="yes"/>
      <point x="401" y="256" type="line" smooth="yes"/>
      <point x="401" y="177"/>
      <point x="380" y="138"/>
    </contour>
  </outline>
</glyph>
<glyph name="r" format="2">
  <advance width="469"/>
  <unicode hex="0072"/>
  <outline>
    <contour>
      <point x="66" y="0" type="line"/>
      <point x="257" y="0" type="line"/>
      <point x="257" y="272" type="line" smooth="yes"/>
      <point x="257" y="372"/>
      <point x="328" y="383"/>
      <point x="376" y="383" type="curve" smooth="yes"/>
      <point x="411" y="383"/>
      <point x="428" y="380"/>
      <point x="441" y="377" type="curve"/>
      <point x="458" y="557" type="line"/>
      <point x="447" y="559"/>
      <point x="421" y="563"/>
      <point x="400" y="563" type="curve" smooth="yes"/>
      <point x="337" y="563"/>
      <point x="277" y="519"/>
      <point x="247" y="465" type="curve"/>
      <point x="238" y="465" type="line"/>
      <point x="208" y="553" type="line"/>
      <point x="66" y="553" type="line"/>
    </contour>
  </outline>
</glyph>
<glyph name="t" format="2">
  <advance width="460"/>
  <unicode hex="0074"/>
  <outline>
    <contour>
      <point x="274" y="-10" type="curve" smooth="yes"/>
      <point x="346" y="-10"/>
      <point x="387" y="3"/>
      <point x="429" y="21" type="curve"/>
      <point x="429" y="160" type="line"/>
      <point x="398" y="149"/>
      <point x="371" y="141"/>
      <point x="337" y="141" type="curve" smooth="yes"/>
      <point x="304" y="141"/>
      <point x="285" y="159"/>
      <point x="285" y="195" type="curve" smooth="yes"/>
      <point x="285" y="410" type="line"/>
      <point x="421" y="410" type="line"/>
      <point x="421" y="553" type="line"/>
      <point x="285" y="553" type="line"/>
      <point x="285" y="664" type="line"/>
      <point x="160" y="664" type="line"/>
      <point x="111" y="548" type="line"/>
      <point x="26" y="488" type="line"/>
      <point x="26" y="410" type="line"/>
      <point x="93" y="410" type="line"/>
      <point x="93" y="182" type="line" smooth="yes"/>
      <point x="93" y="32"/>
      <point x="166" y="-10"/>
    </contour>
  </outline>
</glyph>
<glyph name="u" format="2">
  <advance width="670"/>
  <unicode hex="0075"/>
  <outline>
    <contour>
      <point x="258" y="-10" type="curve" smooth="yes"/>
      <point x="326" y="-10"/>
      <point x="390" y="13"/>
      <point x="425" y="69" type="curve"/>
      <point x="436" y="69" type="line"/>
      <point x="460" y="0" type="line"/>
      <point x="604" y="0" type="line"/>
      <point x="604" y="553" type="line"/>
      <point x="413" y="553" type="line"/>
      <point x="413" y="311" type="line" smooth="yes"/>
      <point x="413" y="201"/>
      <point x="394" y="141"/>
      <point x="322" y="141" type="curve" smooth="yes"/>
      <point x="275" y="141"/>
      <point x="256" y="179"/>
      <point x="256" y="251" type="curve" smooth="yes"/>
      <point x="256" y="553" type="line"/>
      <point x="65" y="553" type="line"/>
      <point x="65" y="193" type="line" smooth="yes"/>
      <point x="65" y="51"/>
      <point x="149" y="-10"/>
    </contour>
  </outline>
</glyph>
<glyph name="v" format="2">
  <advance width="611"/>
  <unicode hex="0076"/>
  <outline>
    <contour>
      <point x="211" y="0" type="line"/>
      <point x="400" y="0" type="line"/>
      <point x="611" y="553" type="line"/>
      <point x="412" y="553" type="line"/>
      <point x="314" y="225" type="line" smooth="yes"/>
      <point x="311" y="214"/>
      <point x="305" y="192"/>
      <point x="305" y="170" type="curve"/>
      <point x="302" y="170" type="line"/>
      <point x="302" y="191"/>
      <point x="295" y="220"/>
      <point x="293" y="226" type="curve" smooth="yes"/>
      <point x="199" y="553" type="line"/>
      <point x="0" y="553" type="line"/>
    </contour>
  </outline>
</glyph>
<glyph name="w" format="2">
  <advance width="910"/>
  <unicode hex="0077"/>
  <outline>
    <contour>
      <point x="163" y="0" type="line"/>
      <point x="364" y="0" type="line"/>
      <point x="420" y="235" type="line" smooth="yes"/>
      <point x="434" y="292"/>
      <point x="448" y="377"/>
      <point x="452" y="407" type="curve"/>
      <point x="455" y="407" type="line"/>
      <point x="459" y="377"/>
      <point x="472" y="292"/>
      <point x="484" y="242" type="curve" smooth="yes"/>
      <point x="542" y="0" type="line"/>
      <point x="746" y="0" type="line"/>
      <point x="898" y="553" type="line"/>
      <point x="714" y="553" type="line"/>
      <point x="665" y="341" type="line" smooth="yes"/>
      <point x="655" y="298"/>
      <point x="644" y="213"/>
      <point x="640" y="159" type="curve"/>
      <point x="637" y="159" type="line"/>
      <point x="632" y="211"/>
      <point x="617" y="289"/>
      <point x="609" y="327" type="curve" smooth="yes"/>
      <point x="562" y="553" type="line"/>
      <point x="351" y="553" type="line"/>
      <point x="300" y="330" type="line" smooth="yes"/>
      <point x="296" y="311"/>
      <point x="276" y="212"/>
      <point x="273" y="159" type="curve"/>
      <point x="270" y="159" type="line"/>
      <point x="267" y="212"/>
      <point x="255" y="294"/>
      <point x="245" y="341" type="curve" smooth="yes"/>
      <point x="200" y="553" type="line"/>
      <point x="12" y="553" type="line"/>
    </contour>
  </outline>
</glyph>
<glyph name="y" format="2">
  <advance width="610"/>
  <unicode hex="0079"/>
  <outline>
    <contour>
      <point x="128" y="-240" type="curve" smooth="yes"/>
      <point x="273" y="-240"/>
      <point x="341" y="-170"/>
      <point x="391" y="-35" type="curve" smooth="yes"/>
      <point x="610" y="553" type="line"/>
      <point x="415" y="553" type="line"/>
      <point x="319" y="235" type="line" smooth="yes"/>
      <point x="315" y="222"/>
      <point x="310" y="202"/>
      <point x="307" y="176" type="curve"/>
      <point x="303" y="176" type="line"/>
      <point x="302" y="197"/>
      <point x="298" y="222"/>
      <point x="294" y="236" type="curve" smooth="yes"/>
      <point x="200" y="553" type="line"/>
      <point x="-1" y="553" type="line"/>
      <point x="217" y="8" type="line"/>
      <point x="215" y="3" type="line" smooth="yes"/>
      <point x="196" y="-45"/>
      <point x="172" y="-88"/>
      <point x="109" y="-88" type="curve" smooth="yes"/>
      <point x="86" y="-88"/>
      <point x="64" y="-85"/>
      <point x="50" y="-82" type="curve"/>
      <point x="50" y="-232" type="line"/>
      <point x="69" y="-236"/>
      <point x="93" y="-240"/>
    </contour>
  </outline>
</glyph>
<glyph name="z" format="2">
  <advance width="507"/>
  <unicode hex="007A"/>
  <outline>
    <contour>
      <point x="24" y="0" type="line"/>
      <point x="482" y="0" type="line"/>
      <point x="482" y="146" type="line"/>
      <point x="252" y="146" type="line"/>
      <point x="471" y="435" type="line"/>
      <point x="471" y="553" type="line"/>
      <point x="37" y="553" type="line"/>
      <point x="37" y="407" type="line"/>
      <point x="253" y="407" type="line"/>
      <point x="24" y="109" type="line"/>
    </contour>
  </outline>
</glyph>
<glyph name="enclosingcirclecomb" format="2">
  <unicode hex="20DD"/>
  <note>
uni20DD
</note>
  <outline>
    <contour>
      <point x="0" y="-292" type="curve" smooth="yes"/>
      <point x="359" y="-292"/>
      <point x="650" y="-1"/>
      <point x="650" y="358" type="curve" smooth="yes"/>
      <point x="650" y="717"/>
      <point x="359" y="1008"/>
      <point x="0" y="1008" type="curve" smooth="yes"/>
      <point x="-359" y="1008"/>
      <point x="-650" y="717"/>
      <point x="-650" y="358" type="curve" smooth="yes"/>
      <point x="-650" y="-1"/>
      <point x="-359" y="-292"/>
    </contour>
    <contour>
      <point x="0" y="-138" type="curve" smooth="yes"/>
      <point x="-274" y="-138"/>
      <point x="-496" y="84"/>
      <point x="-496" y="358" type="curve" smooth="yes"/>
      <point x="-496" y="632"/>
      <point x="-274" y="854"/>
      <point x="0" y="854" type="curve" smooth="yes"/>
      <point x="274" y="854"/>
      <point x="496" y="632"/>
      <point x="496" y="358" type="curve" smooth="yes"/>
      <point x="496" y="84"/>
      <point x="277" y="-138"/>
    </contour>
  </outline>
</glyph>
<glyph name="enclosingsquarecomb" format="2">
  <unicode hex="20DE"/>
  <note>
uni20DE
</note>
  <outline>
    <contour>
      <point x="-660" y="-292" type="line"/>
      <point x="660" y="-292" type="line"/>
      <point x="660" y="1028" type="line"/>
      <point x="-660" y="1028" type="line"/>
    </contour>
    <contour>
      <point x="-506" y="-138" type="line"/>
      <point x="-506" y="874" type="line"/>
      <point x="506" y="874" type="line"/>
      <point x="506" y="-138" type="line"/>
    </contour>
  </outline>
</glyph>
<glyph name="enclosingdiamondcomb" format="2">
  <unicode hex="20DF"/>
  <note>
uni20DF
</note>
  <outline>
    <contour>
      <point x="0" y="-565" type="line"/>
      <point x="914" y="368" type="line"/>
      <point x="0" y="1301" type="line"/>
      <point x="-914" y="368" type="line"/>
    </contour>
    <contour>
      <point x="0" y="-357" type="line"/>
      <point x="-706" y="368" type="line"/>
      <point x="0" y="1093" type="line"/>
      <point x="706" y="368" type="line"/>
    </contour>
  </outline>
</glyph>
<glyph name="enclosingcirclebackslashcomb" format="2">
  <unicode hex="20E0"/>
  <note>
uni20E0
</note>
  <outline>
    <contour>
      <point x="354" y="-109" type="line"/>
      <point x="467" y="4" type="line"/>
      <point x="-353" y="825" type="line"/>
      <point x="-466" y="712" type="line"/>
    </contour>
    <contour>
      <point x="0" y="-292" type="curve" smooth="yes"/>
      <point x="359" y="-292"/>
      <point x="650" y="-1"/>
      <point x="650" y="358" type="curve" smooth="yes"/>
      <point x="650" y="717"/>
      <point x="359" y="1008"/>
      <point x="0" y="1008" type="curve" smooth="yes"/>
      <point x="-359" y="1008"/>
      <point x="-650" y="717"/>
      <point x="-650" y="358" type="curve" smooth="yes"/>
      <point x="-650" y="-1"/>
      <point x="-359" y="-292"/>
    </contour>
    <contour>
      <point x="0" y="-138" type="curve" smooth="yes"/>
      <point x="-274" y="-138"/>
      <point x="-496" y="84"/>
      <point x="-496" y="358" type="curve" smooth="yes"/>
      <point x="-496" y="632"/>
      <point x="-274" y="854"/>
      <point x="0" y="854" type="curve" smooth="yes"/>
      <point x="274" y="854"/>
      <point x="496" y="632"/>
      <point x="496" y="358" type="curve" smooth="yes"/>
      <point x="496" y="84"/>
      <point x="277" y="-138"/>
    </contour>
  </outline>
</glyph>
<glyph name="enclosingscreencomb" format="2">
  <unicode hex="20E2"/>
  <note>
uni20E2
</note>
  <outline>
    <contour>
      <point x="-1" y="-293" type="curve" smooth="yes"/>
      <point x="387" y="-293"/>
      <point x="782" y="-257"/>
      <point x="975" y="-208" type="curve"/>
      <point x="1043" y="2"/>
      <point x="1067" y="154"/>
      <point x="1067" y="387" type="curve" smooth="yes"/>
      <point x="1067" y="620"/>
      <point x="1043" y="773"/>
      <point x="975" y="984" type="curve"/>
      <point x="782" y="1033"/>
      <point x="385" y="1069"/>
      <point x="-2" y="1069" type="curve" smooth="yes"/>
      <point x="-389" y="1069"/>
      <point x="-784" y="1033"/>
      <point x="-977" y="984" type="curve"/>
      <point x="-1042" y="777"/>
      <point x="-1067" y="615"/>
      <point x="-1067" y="387" type="curve" smooth="yes"/>
      <point x="-1067" y="169"/>
      <point x="-1043" y="16"/>
      <point x="-977" y="-208" type="curve"/>
      <point x="-789" y="-257"/>
      <point x="-390" y="-293"/>
    </contour>
    <contour>
      <point x="-1" y="-139" type="curve" smooth="yes"/>
      <point x="-320" y="-139"/>
      <point x="-713" y="-108"/>
      <point x="-856" y="-75" type="curve"/>
      <point x="-889" y="28"/>
      <point x="-913" y="196"/>
      <point x="-913" y="387" type="curve" smooth="yes"/>
      <point x="-913" y="584"/>
      <point x="-890" y="737"/>
      <point x="-856" y="850" type="curve"/>
      <point x="-682" y="884"/>
      <point x="-318" y="915"/>
      <point x="-1" y="915" type="curve" smooth="yes"/>
      <point x="323" y="915"/>
      <point x="685" y="884"/>
      <point x="857" y="850" type="curve"/>
      <point x="893" y="715"/>
      <point x="913" y="565"/>
      <point x="913" y="387" type="curve" smooth="yes"/>
      <point x="913" y="199"/>
      <point x="890" y="45"/>
      <point x="857" y="-75" type="curve"/>
      <point x="711" y="-107"/>
      <point x="323" y="-139"/>
    </contour>
  </outline>
</glyph>
<glyph name="enclosingkeycapcomb" format="2">
  <unicode hex="20E3"/>
  <note>
uni20E3
</note>
  <outline>
    <contour>
      <point x="-388" y="-76" type="curve" smooth="yes"/>
      <point x="389" y="-76" type="line" smooth="yes"/>
      <point x="449" y="-76"/>
      <point x="488" y="-37"/>
      <point x="488" y="23" type="curve" smooth="yes"/>
      <point x="488" y="799" type="line" smooth="yes"/>
      <point x="488" y="859"/>
      <point x="449" y="898"/>
      <point x="389" y="898" type="curve" smooth="yes"/>
      <point x="-388" y="898" type="line" smooth="yes"/>
      <point x="-448" y="898"/>
      <point x="-488" y="859"/>
      <point x="-488" y="799" type="curve" smooth="yes"/>
      <point x="-488" y="23" type="line" smooth="yes"/>
      <point x="-488" y="-37"/>
      <point x="-448" y="-76"/>
    </contour>
    <contour>
      <point x="-188" y="136" type="line" smooth="yes"/>
      <point x="-234" y="136"/>
      <point x="-252" y="154"/>
      <point x="-252" y="201" type="curve" smooth="yes"/>
      <point x="-252" y="621" type="line" smooth="yes"/>
      <point x="-252" y="667"/>
      <point x="-234" y="687"/>
      <point x="-188" y="687" type="curve" smooth="yes"/>
      <point x="189" y="687" type="line" smooth="yes"/>
      <point x="237" y="687"/>
      <point x="253" y="669"/>
      <point x="253" y="621" type="curve" smooth="yes"/>
      <point x="253" y="201" type="line" smooth="yes"/>
      <point x="253" y="152"/>
      <point x="237" y="136"/>
      <point x="189" y="136" type="curve" smooth="yes"/>
    </contour>
    <contour>
      <point x="436" y="34" type="line"/>
      <point x="314" y="93" type="line"/>
      <point x="314" y="678" type="line" smooth="yes"/>
      <point x="314" y="725"/>
      <point x="292" y="748"/>
      <point x="247" y="748" type="curve" smooth="yes"/>
      <point x="-282" y="748" type="line"/>
      <point x="-399" y="846" type="line"/>
      <point x="361" y="846" type="line" smooth="yes"/>
      <point x="406" y="846"/>
      <point x="436" y="812"/>
      <point x="436" y="767" type="curve" smooth="yes"/>
    </contour>
  </outline>
</glyph>
<glyph name="Two-roman" format="2">
  <advance width="880"/>
  <unicode hex="2161"/>
  <outline>
    <contour>
      <point x="34" y="0" type="line"/>
      <point x="406" y="0" type="line"/>
      <point x="406" y="110" type="line"/>
      <point x="317" y="144" type="line"/>
      <point x="317" y="571" type="line"/>
      <point x="406" y="604" type="line"/>
      <point x="406" y="714" type="line"/>
      <point x="34" y="714" type="line"/>
      <point x="34" y="604" type="line"/>
      <point x="123" y="571" type="line"/>
      <point x="123" y="144" type="line"/>
      <point x="34" y="110" type="line"/>
    </contour>
    <contour>
      <point x="474" y="0" type="line"/>
      <point x="846" y="0" type="line"/>
      <point x="846" y="110" type="line"/>
      <point x="757" y="144" type="line"/>
      <point x="757" y="571" type="line"/>
      <point x="846" y="604" type="line"/>
      <point x="846" y="714" type="line"/>
      <point x="474" y="714" type="line"/>
      <point x="474" y="604" type="line"/>
      <point x="563" y="571" type="line"/>
      <point x="563" y="144" type="line"/>
      <point x="474" y="110" type="line"/>
    </contour>
  </outline>
</glyph>
<glyph name="Four-roman" format="2">
  <advance width="1134"/>
  <unicode hex="2163"/>
  <outline>
    <contour>
      <point x="673" y="0" type="line"/>
      <point x="900" y="0" type="line"/>
      <point x="1134" y="714" type="line"/>
      <point x="918" y="714" type="line"/>
      <point x="819" y="350" type="line" smooth="yes"/>
      <point x="808" y="309"/>
      <point x="791" y="224"/>
      <point x="787" y="184" type="curve"/>
      <point x="784" y="224"/>
      <point x="765" y="311"/>
      <point x="754" y="352" type="curve" smooth="yes"/>
      <point x="657" y="714" type="line"/>
      <point x="440" y="714" type="line"/>
    </contour>
    <contour>
      <point x="34" y="0" type="line"/>
      <point x="406" y="0" type="line"/>
      <point x="406" y="110" type="line"/>
      <point x="317" y="144" type="line"/>
      <point x="317" y="571" type="line"/>
      <point x="406" y="604" type="line"/>
      <point x="406" y="714" type="line"/>
      <point x="34" y="714" type="line"/>
      <point x="34" y="604" type="line"/>
      <point x="123" y="571" type="line"/>
      <point x="123" y="144" type="line"/>
      <point x="34" y="110" type="line"/>
    </contour>
  </outline>
</glyph>
<glyph name="Five-roman" format="2">
  <advance width="694"/>
  <unicode hex="2164"/>
  <outline>
    <contour>
      <point x="233" y="0" type="line"/>
      <point x="460" y="0" type="line"/>
      <point x="694" y="714" type="line"/>
      <point x="478" y="714" type="line"/>
      <point x="379" y="350" type="line" smooth="yes"/>
      <point x="368" y="309"/>
      <point x="351" y="224"/>
      <point x="347" y="184" type="curve"/>
      <point x="344" y="224"/>
      <point x="325" y="311"/>
      <point x="314" y="352" type="curve" smooth="yes"/>
      <point x="217" y="714" type="line"/>
      <point x="0" y="714" type="line"/>
    </contour>
  </outline>
</glyph>
<glyph name="Seven-roman" format="2">
  <advance width="1574"/>
  <unicode hex="2166"/>
  <outline>
    <contour>
      <point x="233" y="0" type="line"/>
      <point x="460" y="0" type="line"/>
      <point x="694" y="714" type="line"/>
      <point x="478" y="714" type="line"/>
      <point x="379" y="350" type="line" smooth="yes"/>
      <point x="368" y="309"/>
      <point x="351" y="224"/>
      <point x="347" y="184" type="curve"/>
      <point x="344" y="224"/>
      <point x="325" y="311"/>
      <point x="314" y="352" type="curve" smooth="yes"/>
      <point x="217" y="714" type="line"/>
      <point x="0" y="714" type="line"/>
    </contour>
    <contour>
      <point x="728" y="0" type="line"/>
      <point x="1100" y="0" type="line"/>
      <point x="1100" y="110" type="line"/>
      <point x="1011" y="144" type="line"/>
      <point x="1011" y="571" type="line"/>
      <point x="1100" y="604" type="line"/>
      <point x="1100" y="714" type="line"/>
      <point x="728" y="714" type="line"/>
      <point x="728" y="604" type="line"/>
      <point x="817" y="571" type="line"/>
      <point x="817" y="144" type="line"/>
      <point x="728" y="110" type="line"/>
    </contour>
    <contour>
      <point x="1168" y="0" type="line"/>
      <point x="1540" y="0" type="line"/>
      <point x="1540" y="110" type="line"/>
      <point x="1451" y="144" type="line"/>
      <point x="1451" y="571" type="line"/>
      <point x="1540" y="604" type="line"/>
      <point x="1540" y="714" type="line"/>
      <point x="1168" y="714" type="line"/>
      <point x="1168" y="604" type="line"/>
      <point x="1257" y="571" type="line"/>
      <point x="1257" y="144" type="line"/>
      <point x="1168" y="110" type="line"/>
    </contour>
  </outline>
</glyph>
<glyph name="Eight-roman" format="2">
  <advance width="2013"/>
  <unicode hex="2167"/>
  <outline>
    <contour>
      <point x="233" y="0" type="line"/>
      <point x="460" y="0" type="line"/>
      <point x="694" y="714" type="line"/>
      <point x="478" y="714" type="line"/>
      <point x="379" y="350" type="line" smooth="yes"/>
      <point x="368" y="309"/>
      <point x="351" y="224"/>
      <point x="347" y="184" type="curve"/>
      <point x="344" y="224"/>
      <point x="325" y="311"/>
      <point x="314" y="352" type="curve" smooth="yes"/>
      <point x="217" y="714" type="line"/>
      <point x="0" y="714" type="line"/>
    </contour>
    <contour>
      <point x="728" y="0" type="line"/>
      <point x="1100" y="0" type="line"/>
      <point x="1100" y="110" type="line"/>
      <point x="1011" y="144" type="line"/>
      <point x="1011" y="571" type="line"/>
      <point x="1100" y="604" type="line"/>
      <point x="1100" y="714" type="line"/>
      <point x="728" y="714" type="line"/>
      <point x="728" y="604" type="line"/>
      <point x="817" y="571" type="line"/>
      <point x="817" y="144" type="line"/>
      <point x="728" y="110" type="line"/>
    </contour>
    <contour>
      <point x="1168" y="0" type="line"/>
      <point x="1540" y="0" type="line"/>
      <point x="1540" y="110" type="line"/>
      <point x="1451" y="144" type="line"/>
      <point x="1451" y="571" type="line"/>
      <point x="1540" y="604" type="line"/>
      <point x="1540" y="714" type="line"/>
      <point x="1168" y="714" type="line"/>
      <point x="1168" y="604" type="line"/>
      <point x="1257" y="571" type="line"/>
      <point x="1257" y="144" type="line"/>
      <point x="1168" y="110" type="line"/>
    </contour>
    <contour>
      <point x="1608" y="0" type="line"/>
      <point x="1979" y="0" type="line"/>
      <point x="1979" y="110" type="line"/>
      <point x="1891" y="144" type="line"/>
      <point x="1891" y="571" type="line"/>
      <point x="1979" y="604" type="line"/>
      <point x="1979" y="714" type="line"/>
      <point x="1608" y="714" type="line"/>
      <point x="1608" y="604" type="line"/>
      <point x="1697" y="571" type="line"/>
      <point x="1697" y="144" type="line"/>
      <point x="1608" y="110" type="line"/>
    </contour>
  </outline>
</glyph>
<glyph name="Nine-roman" format="2">
  <advance width="1163"/>
  <unicode hex="2168"/>
  <outline>
    <contour>
      <point x="442" y="0" type="line"/>
      <point x="660" y="0" type="line"/>
      <point x="798" y="223" type="line"/>
      <point x="937" y="0" type="line"/>
      <point x="1160" y="0" type="line"/>
      <point x="917" y="350" type="line"/>
      <point x="1143" y="714" type="line"/>
      <point x="923" y="714" type="line"/>
      <point x="799" y="493" type="line"/>
      <point x="670" y="714" type="line"/>
      <point x="456" y="714" type="line"/>
      <point x="679" y="365" type="line"/>
    </contour>
    <contour>
      <point x="34" y="0" type="line"/>
      <point x="406" y="0" type="line"/>
      <point x="406" y="110" type="line"/>
      <point x="317" y="144" type="line"/>
      <point x="317" y="571" type="line"/>
      <point x="406" y="604" type="line"/>
      <point x="406" y="714" type="line"/>
      <point x="34" y="714" type="line"/>
      <point x="34" y="604" type="line"/>
      <point x="123" y="571" type="line"/>
      <point x="123" y="144" type="line"/>
      <point x="34" y="110" type="line"/>
    </contour>
  </outline>
</glyph>
<glyph name="Eleven-roman" format="2">
  <advance width="1163"/>
  <unicode hex="216A"/>
  <outline>
    <contour>
      <point x="2" y="0" type="line"/>
      <point x="220" y="0" type="line"/>
      <point x="358" y="223" type="line"/>
      <point x="497" y="0" type="line"/>
      <point x="720" y="0" type="line"/>
      <point x="477" y="350" type="line"/>
      <point x="703" y="714" type="line"/>
      <point x="483" y="714" type="line"/>
      <point x="359" y="493" type="line"/>
      <point x="230" y="714" type="line"/>
      <point x="16" y="714" type="line"/>
      <point x="239" y="365" type="line"/>
    </contour>
    <contour>
      <point x="757" y="0" type="line"/>
      <point x="1129" y="0" type="line"/>
      <point x="1129" y="110" type="line"/>
      <point x="1040" y="144" type="line"/>
      <point x="1040" y="571" type="line"/>
      <point x="1129" y="604" type="line"/>
      <point x="1129" y="714" type="line"/>
      <point x="757" y="714" type="line"/>
      <point x="757" y="604" type="line"/>
      <point x="846" y="571" type="line"/>
      <point x="846" y="144" type="line"/>
      <point x="757" y="110" type="line"/>
    </contour>
  </outline>
</glyph>
<glyph name="Fifty-roman" format="2">
  <advance width="582"/>
  <unicode hex="216C"/>
  <outline>
    <contour>
      <point x="77" y="0" type="line"/>
      <point x="545" y="0" type="line"/>
      <point x="545" y="156" type="line"/>
      <point x="270" y="156" type="line"/>
      <point x="270" y="714" type="line"/>
      <point x="77" y="714" type="line"/>
    </contour>
  </outline>
</glyph>
<glyph name="Hundred-roman" format="2">
  <advance width="649"/>
  <unicode hex="216D"/>
  <outline>
    <contour>
      <point x="385" y="-10" type="curve" smooth="yes"/>
      <point x="459" y="-10"/>
      <point x="524" y="2"/>
      <point x="587" y="30" type="curve"/>
      <point x="587" y="193" type="line"/>
      <point x="527" y="168"/>
      <point x="469" y="148"/>
      <point x="406" y="148" type="curve" smooth="yes"/>
      <point x="300" y="148"/>
      <point x="249" y="219"/>
      <point x="249" y="354" type="curve" smooth="yes"/>
      <point x="249" y="487"/>
      <point x="304" y="566"/>
      <point x="395" y="566" type="curve" smooth="yes"/>
      <point x="455" y="566"/>
      <point x="507" y="547"/>
      <point x="559" y="522" type="curve"/>
      <point x="618" y="674" type="line"/>
      <point x="545" y="709"/>
      <point x="466" y="724"/>
      <point x="397" y="724" type="curve" smooth="yes"/>
      <point x="174" y="724"/>
      <point x="51" y="571"/>
      <point x="51" y="355" type="curve" smooth="yes"/>
      <point x="51" y="138"/>
      <point x="152" y="-10"/>
    </contour>
  </outline>
</glyph>
<glyph name="Fivehundred-roman" format="2">
  <advance width="734"/>
  <unicode hex="216E"/>
  <outline>
    <contour>
      <point x="77" y="0" type="line"/>
      <point x="308" y="0" type="line" smooth="yes"/>
      <point x="535" y="0"/>
      <point x="683" y="123"/>
      <point x="683" y="372" type="curve" smooth="yes"/>
      <point x="683" y="593"/>
      <point x="554" y="714"/>
      <point x="324" y="714" type="curve" smooth="yes"/>
      <point x="77" y="714" type="line"/>
    </contour>
    <contour>
      <point x="270" y="158" type="line"/>
      <point x="270" y="558" type="line"/>
      <point x="326" y="558" type="line" smooth="yes"/>
      <point x="431" y="558"/>
      <point x="483" y="495"/>
      <point x="483" y="365" type="curve" smooth="yes"/>
      <point x="483" y="225"/>
      <point x="430" y="158"/>
      <point x="313" y="158" type="curve" smooth="yes"/>
    </contour>
  </outline>
</glyph>
<glyph name="two-roman" format="2">
  <advance width="650"/>
  <unicode hex="2171"/>
  <outline>
    <contour>
      <point x="392" y="0" type="line"/>
      <point x="583" y="0" type="line"/>
      <point x="583" y="553" type="line"/>
      <point x="392" y="553" type="line"/>
    </contour>
    <contour>
      <point x="67" y="0" type="line"/>
      <point x="258" y="0" type="line"/>
      <point x="258" y="553" type="line"/>
      <point x="67" y="553" type="line"/>
    </contour>
    <contour>
      <point x="163" y="607" type="curve" smooth="yes"/>
      <point x="218" y="607"/>
      <point x="265" y="625"/>
      <point x="265" y="691" type="curve" smooth="yes"/>
      <point x="265" y="759"/>
      <point x="218" y="776"/>
      <point x="163" y="776" type="curve" smooth="yes"/>
      <point x="107" y="776"/>
      <point x="62" y="759"/>
      <point x="62" y="691" type="curve" smooth="yes"/>
      <point x="62" y="625"/>
      <point x="107" y="607"/>
    </contour>
    <contour>
      <point x="488" y="607" type="curve" smooth="yes"/>
      <point x="543" y="607"/>
      <point x="590" y="625"/>
      <point x="590" y="691" type="curve" smooth="yes"/>
      <point x="590" y="759"/>
      <point x="543" y="776"/>
      <point x="488" y="776" type="curve" smooth="yes"/>
      <point x="432" y="776"/>
      <point x="387" y="759"/>
      <point x="387" y="691" type="curve" smooth="yes"/>
      <point x="387" y="625"/>
      <point x="432" y="607"/>
    </contour>
  </outline>
</glyph>
<glyph name="four-roman" format="2">
  <advance width="936"/>
  <unicode hex="2173"/>
  <outline>
    <contour>
      <point x="536" y="0" type="line"/>
      <point x="725" y="0" type="line"/>
      <point x="936" y="553" type="line"/>
      <point x="737" y="553" type="line"/>
      <point x="639" y="225" type="line"/>
      <point x="636" y="214"/>
      <point x="630" y="192"/>
      <point x="630" y="170" type="curve"/>
      <point x="627" y="170" type="line"/>
      <point x="627" y="191"/>
      <point x="620" y="220"/>
      <point x="618" y="226" type="curve"/>
      <point x="524" y="553" type="line"/>
      <point x="325" y="553" type="line"/>
    </contour>
    <contour>
      <point x="67" y="0" type="line"/>
      <point x="258" y="0" type="line"/>
      <point x="258" y="553" type="line"/>
      <point x="67" y="553" type="line"/>
    </contour>
    <contour>
      <point x="163" y="607" type="curve" smooth="yes"/>
      <point x="218" y="607"/>
      <point x="265" y="625"/>
      <point x="265" y="691" type="curve" smooth="yes"/>
      <point x="265" y="759"/>
      <point x="218" y="776"/>
      <point x="163" y="776" type="curve" smooth="yes"/>
      <point x="107" y="776"/>
      <point x="62" y="759"/>
      <point x="62" y="691" type="curve" smooth="yes"/>
      <point x="62" y="625"/>
      <point x="107" y="607"/>
    </contour>
  </outline>
</glyph>
<glyph name="five-roman" format="2">
  <advance width="611"/>
  <unicode hex="2174"/>
  <outline>
    <contour>
      <point x="211" y="0" type="line"/>
      <point x="400" y="0" type="line"/>
      <point x="611" y="553" type="line"/>
      <point x="412" y="553" type="line"/>
      <point x="314" y="225" type="line"/>
      <point x="311" y="214"/>
      <point x="305" y="192"/>
      <point x="305" y="170" type="curve"/>
      <point x="302" y="170" type="line"/>
      <point x="302" y="191"/>
      <point x="295" y="220"/>
      <point x="293" y="226" type="curve"/>
      <point x="199" y="553" type="line"/>
      <point x="0" y="553" type="line"/>
    </contour>
  </outline>
</glyph>
<glyph name="six-roman" format="2">
  <advance width="936"/>
  <unicode hex="2175"/>
  <outline>
    <contour>
      <point x="211" y="0" type="line"/>
      <point x="400" y="0" type="line"/>
      <point x="611" y="553" type="line"/>
      <point x="412" y="553" type="line"/>
      <point x="314" y="225" type="line"/>
      <point x="311" y="214"/>
      <point x="305" y="192"/>
      <point x="305" y="170" type="curve"/>
      <point x="302" y="170" type="line"/>
      <point x="302" y="191"/>
      <point x="295" y="220"/>
      <point x="293" y="226" type="curve"/>
      <point x="199" y="553" type="line"/>
      <point x="0" y="553" type="line"/>
    </contour>
    <contour>
      <point x="678" y="0" type="line"/>
      <point x="869" y="0" type="line"/>
      <point x="869" y="553" type="line"/>
      <point x="678" y="553" type="line"/>
    </contour>
    <contour>
      <point x="774" y="607" type="curve" smooth="yes"/>
      <point x="829" y="607"/>
      <point x="876" y="625"/>
      <point x="876" y="691" type="curve" smooth="yes"/>
      <point x="876" y="759"/>
      <point x="829" y="776"/>
      <point x="774" y="776" type="curve" smooth="yes"/>
      <point x="718" y="776"/>
      <point x="673" y="759"/>
      <point x="673" y="691" type="curve" smooth="yes"/>
      <point x="673" y="625"/>
      <point x="718" y="607"/>
    </contour>
  </outline>
</glyph>
<glyph name="eight-roman" format="2">
  <advance width="1586"/>
  <unicode hex="2177"/>
  <outline>
    <contour>
      <point x="211" y="0" type="line"/>
      <point x="400" y="0" type="line"/>
      <point x="611" y="553" type="line"/>
      <point x="412" y="553" type="line"/>
      <point x="314" y="225" type="line"/>
      <point x="311" y="214"/>
      <point x="306" y="191"/>
      <point x="305" y="170" type="curve"/>
      <point x="302" y="170" type="line"/>
      <point x="302" y="191"/>
      <point x="295" y="220"/>
      <point x="293" y="226" type="curve"/>
      <point x="199" y="553" type="line"/>
      <point x="0" y="553" type="line"/>
    </contour>
    <contour>
      <point x="678" y="0" type="line"/>
      <point x="869" y="0" type="line"/>
      <point x="869" y="553" type="line"/>
      <point x="678" y="553" type="line"/>
    </contour>
    <contour>
      <point x="1003" y="0" type="line"/>
      <point x="1194" y="0" type="line"/>
      <point x="1194" y="553" type="line"/>
      <point x="1003" y="553" type="line"/>
    </contour>
    <contour>
      <point x="1328" y="0" type="line"/>
      <point x="1519" y="0" type="line"/>
      <point x="1519" y="553" type="line"/>
      <point x="1328" y="553" type="line"/>
    </contour>
    <contour>
      <point x="774" y="607" type="curve" smooth="yes"/>
      <point x="829" y="607"/>
      <point x="876" y="625"/>
      <point x="876" y="691" type="curve" smooth="yes"/>
      <point x="876" y="759"/>
      <point x="829" y="776"/>
      <point x="774" y="776" type="curve" smooth="yes"/>
      <point x="718" y="776"/>
      <point x="673" y="759"/>
      <point x="673" y="691" type="curve" smooth="yes"/>
      <point x="673" y="625"/>
      <point x="718" y="607"/>
    </contour>
    <contour>
      <point x="1099" y="607" type="curve" smooth="yes"/>
      <point x="1154" y="607"/>
      <point x="1201" y="625"/>
      <point x="1201" y="691" type="curve" smooth="yes"/>
      <point x="1201" y="759"/>
      <point x="1154" y="776"/>
      <point x="1099" y="776" type="curve" smooth="yes"/>
      <point x="1043" y="776"/>
      <point x="998" y="759"/>
      <point x="998" y="691" type="curve" smooth="yes"/>
      <point x="998" y="625"/>
      <point x="1043" y="607"/>
    </contour>
    <contour>
      <point x="1424" y="607" type="curve" smooth="yes"/>
      <point x="1479" y="607"/>
      <point x="1526" y="625"/>
      <point x="1526" y="691" type="curve" smooth="yes"/>
      <point x="1526" y="759"/>
      <point x="1479" y="776"/>
      <point x="1424" y="776" type="curve" smooth="yes"/>
      <point x="1368" y="776"/>
      <point x="1323" y="759"/>
      <point x="1323" y="691" type="curve" smooth="yes"/>
      <point x="1323" y="625"/>
      <point x="1368" y="607"/>
    </contour>
  </outline>
</glyph>
<glyph name="nine-roman" format="2">
  <advance width="955"/>
  <unicode hex="2178"/>
  <outline>
    <contour>
      <point x="330" y="0" type="line"/>
      <point x="547" y="0" type="line"/>
      <point x="640" y="168" type="line"/>
      <point x="733" y="0" type="line"/>
      <point x="950" y="0" type="line"/>
      <point x="770" y="282" type="line"/>
      <point x="943" y="553" type="line"/>
      <point x="726" y="553" type="line"/>
      <point x="640" y="398" type="line"/>
      <point x="556" y="553" type="line"/>
      <point x="339" y="553" type="line"/>
      <point x="508" y="282" type="line"/>
    </contour>
    <contour>
      <point x="67" y="0" type="line"/>
      <point x="258" y="0" type="line"/>
      <point x="258" y="553" type="line"/>
      <point x="67" y="553" type="line"/>
    </contour>
    <contour>
      <point x="163" y="607" type="curve" smooth="yes"/>
      <point x="218" y="607"/>
      <point x="265" y="625"/>
      <point x="265" y="691" type="curve" smooth="yes"/>
      <point x="265" y="759"/>
      <point x="218" y="776"/>
      <point x="163" y="776" type="curve" smooth="yes"/>
      <point x="107" y="776"/>
      <point x="62" y="759"/>
      <point x="62" y="691" type="curve"/>
      <point x="62" y="625"/>
      <point x="107" y="607"/>
    </contour>
  </outline>
</glyph>
<glyph name="ten-roman" format="2">
  <advance width="630"/>
  <unicode hex="2179"/>
  <outline>
    <contour>
      <point x="5" y="0" type="line"/>
      <point x="222" y="0" type="line"/>
      <point x="315" y="168" type="line"/>
      <point x="408" y="0" type="line"/>
      <point x="625" y="0" type="line"/>
      <point x="445" y="282" type="line"/>
      <point x="618" y="553" type="line"/>
      <point x="401" y="553" type="line"/>
      <point x="315" y="398" type="line"/>
      <point x="231" y="553" type="line"/>
      <point x="14" y="553" type="line"/>
      <point x="183" y="282" type="line"/>
    </contour>
  </outline>
</glyph>
<glyph name="twelve-roman" format="2">
  <advance width="1280"/>
  <unicode hex="217B"/>
  <outline>
    <contour>
      <point x="5" y="0" type="line"/>
      <point x="222" y="0" type="line"/>
      <point x="315" y="168" type="line"/>
      <point x="408" y="0" type="line"/>
      <point x="625" y="0" type="line"/>
      <point x="445" y="282" type="line"/>
      <point x="618" y="553" type="line"/>
      <point x="401" y="553" type="line"/>
      <point x="315" y="398" type="line"/>
      <point x="231" y="553" type="line"/>
      <point x="14" y="553" type="line"/>
      <point x="183" y="282" type="line"/>
    </contour>
    <contour>
      <point x="697" y="0" type="line"/>
      <point x="888" y="0" type="line"/>
      <point x="888" y="553" type="line"/>
      <point x="697" y="553" type="line"/>
    </contour>
    <contour>
      <point x="1022" y="0" type="line"/>
      <point x="1213" y="0" type="line"/>
      <point x="1213" y="553" type="line"/>
      <point x="1022" y="553" type="line"/>
    </contour>
    <contour>
      <point x="793" y="607" type="curve" smooth="yes"/>
      <point x="848" y="607"/>
      <point x="895" y="625"/>
      <point x="895" y="691" type="curve" smooth="yes"/>
      <point x="895" y="759"/>
      <point x="848" y="776"/>
      <point x="793" y="776" type="curve" smooth="yes"/>
      <point x="737" y="776"/>
      <point x="692" y="759"/>
      <point x="692" y="691" type="curve"/>
      <point x="692" y="625"/>
      <point x="737" y="607"/>
    </contour>
    <contour>
      <point x="1118" y="607" type="curve" smooth="yes"/>
      <point x="1173" y="607"/>
      <point x="1220" y="625"/>
      <point x="1220" y="691" type="curve" smooth="yes"/>
      <point x="1220" y="759"/>
      <point x="1173" y="776"/>
      <point x="1118" y="776" type="curve" smooth="yes"/>
      <point x="1062" y="776"/>
      <point x="1017" y="759"/>
      <point x="1017" y="691" type="curve"/>
      <point x="1017" y="625"/>
      <point x="1062" y="607"/>
    </contour>
  </outline>
</glyph>
<glyph name="hundred-roman" format="2">
  <advance width="539"/>
  <unicode hex="217D"/>
  <outline>
    <contour>
      <point x="318" y="-10" type="curve" smooth="yes"/>
      <point x="394" y="-10"/>
      <point x="449" y="9"/>
      <point x="495" y="39" type="curve"/>
      <point x="495" y="191" type="line"/>
      <point x="446" y="160"/>
      <point x="389" y="142"/>
      <point x="334" y="142" type="curve" smooth="yes"/>
      <point x="276" y="142"/>
      <point x="236" y="179"/>
      <point x="236" y="275" type="curve" smooth="yes"/>
      <point x="236" y="368"/>
      <point x="275" y="413"/>
      <point x="333" y="413" type="curve" smooth="yes"/>
      <point x="375" y="413"/>
      <point x="412" y="400"/>
      <point x="458" y="380" type="curve"/>
      <point x="514" y="521" type="line"/>
      <point x="462" y="547"/>
      <point x="401" y="563"/>
      <point x="333" y="563" type="curve" smooth="yes"/>
      <point x="166" y="563"/>
      <point x="42" y="475"/>
      <point x="42" y="274" type="curve" smooth="yes"/>
      <point x="42" y="77"/>
      <point x="150" y="-10"/>
    </contour>
  </outline>
</glyph>
<glyph name="fivehundred-roman" format="2">
  <advance width="643"/>
  <unicode hex="217E"/>
  <outline>
    <contour>
      <point x="238" y="-10" type="curve" smooth="yes"/>
      <point x="314" y="-10"/>
      <point x="358" y="26"/>
      <point x="385" y="70" type="curve"/>
      <point x="392" y="70" type="line"/>
      <point x="433" y="0" type="line"/>
      <point x="577" y="0" type="line"/>
      <point x="577" y="760" type="line"/>
      <point x="385" y="760" type="line"/>
      <point x="385" y="612" type="line" smooth="yes"/>
      <point x="385" y="565"/>
      <point x="389" y="510"/>
      <point x="394" y="482" type="curve"/>
      <point x="390" y="482" type="line"/>
      <point x="361" y="528"/>
      <point x="319" y="563"/>
      <point x="245" y="563" type="curve" smooth="yes"/>
      <point x="125" y="563"/>
      <point x="42" y="465"/>
      <point x="42" y="276" type="curve" smooth="yes"/>
      <point x="42" y="89"/>
      <point x="124" y="-10"/>
    </contour>
    <contour>
      <point x="316" y="141" type="curve" smooth="yes"/>
      <point x="268" y="141"/>
      <point x="235" y="181"/>
      <point x="235" y="273" type="curve" smooth="yes"/>
      <point x="235" y="366"/>
      <point x="268" y="409"/>
      <point x="314" y="409" type="curve" smooth="yes"/>
      <point x="381" y="409"/>
      <point x="401" y="361"/>
      <point x="401" y="274" type="curve" smooth="yes"/>
      <point x="401" y="259" type="line" smooth="yes"/>
      <point x="399" y="179"/>
      <point x="377" y="141"/>
    </contour>
  </outline>
</glyph>
<glyph name="onethousand-roman" format="2">
  <advance width="1000"/>
  <unicode hex="217F"/>
  <outline>
    <contour>
      <point x="66" y="0" type="line"/>
      <point x="257" y="0" type="line"/>
      <point x="257" y="242" type="line" smooth="yes"/>
      <point x="257" y="352"/>
      <point x="275" y="413"/>
      <point x="341" y="413" type="curve" smooth="yes"/>
      <point x="384" y="413"/>
      <point x="405" y="381"/>
      <point x="405" y="301" type="curve" smooth="yes"/>
      <point x="405" y="0" type="line"/>
      <point x="596" y="0" type="line"/>
      <point x="596" y="258" type="line" smooth="yes"/>
      <point x="596" y="357"/>
      <point x="616" y="413"/>
      <point x="678" y="413" type="curve" smooth="yes"/>
      <point x="722" y="413"/>
      <point x="745" y="385"/>
      <point x="745" y="301" type="curve" smooth="yes"/>
      <point x="745" y="0" type="line"/>
      <point x="936" y="0" type="line"/>
      <point x="936" y="360" type="line" smooth="yes"/>
      <point x="936" y="502"/>
      <point x="867" y="563"/>
      <point x="741" y="563" type="curve" smooth="yes"/>
      <point x="672" y="563"/>
      <point x="615" y="535"/>
      <point x="580" y="486" type="curve"/>
      <point x="574" y="486" type="line"/>
      <point x="541" y="534"/>
      <point x="490" y="563"/>
      <point x="409" y="563" type="curve" smooth="yes"/>
      <point x="327" y="563"/>
      <point x="272" y="530"/>
      <point x="243" y="485" type="curve"/>
      <point x="238" y="485" type="line"/>
      <point x="210" y="553" type="line"/>
      <point x="66" y="553" type="line"/>
    </contour>
  </outline>
</glyph>
<glyph name="Onethousandcd-roman" format="2">
  <advance width="1121"/>
  <unicode hex="2180"/>
  <outline>
    <contour>
      <point x="426" y="0" type="curve" smooth="yes"/>
      <point x="695" y="0" type="line" smooth="yes"/>
      <point x="922" y="0"/>
      <point x="1070" y="123"/>
      <point x="1070" y="372" type="curve" smooth="yes"/>
      <point x="1070" y="593"/>
      <point x="941" y="714"/>
      <point x="711" y="714" type="curve" smooth="yes"/>
      <point x="410" y="714" type="line" smooth="yes"/>
      <point x="180" y="714"/>
      <point x="51" y="593"/>
      <point x="51" y="372" type="curve" smooth="yes"/>
      <point x="51" y="123"/>
      <point x="199" y="0"/>
    </contour>
    <contour>
      <point x="421" y="158" type="line" smooth="yes"/>
      <point x="304" y="158"/>
      <point x="251" y="225"/>
      <point x="251" y="365" type="curve" smooth="yes"/>
      <point x="251" y="495"/>
      <point x="303" y="558"/>
      <point x="408" y="558" type="curve" smooth="yes"/>
      <point x="464" y="558" type="line"/>
      <point x="464" y="158" type="line"/>
    </contour>
    <contour>
      <point x="657" y="158" type="line"/>
      <point x="657" y="558" type="line"/>
      <point x="713" y="558" type="line" smooth="yes"/>
      <point x="818" y="558"/>
      <point x="870" y="495"/>
      <point x="870" y="365" type="curve" smooth="yes"/>
      <point x="870" y="225"/>
      <point x="817" y="158"/>
      <point x="700" y="158" type="curve" smooth="yes"/>
    </contour>
  </outline>
</glyph>
<glyph name="Fivethousand-roman" format="2">
  <advance width="734"/>
  <unicode hex="2181"/>
  <outline>
    <contour>
      <point x="77" y="0" type="line"/>
      <point x="308" y="0" type="line" smooth="yes"/>
      <point x="535" y="0"/>
      <point x="683" y="123"/>
      <point x="683" y="372" type="curve" smooth="yes"/>
      <point x="683" y="593"/>
      <point x="554" y="714"/>
      <point x="324" y="714" type="curve" smooth="yes"/>
      <point x="77" y="714" type="line"/>
    </contour>
    <contour>
      <point x="260" y="281" type="line"/>
      <point x="260" y="438" type="line"/>
      <point x="284" y="438" type="line" smooth="yes"/>
      <point x="320" y="438"/>
      <point x="341" y="414"/>
      <point x="341" y="361" type="curve" smooth="yes"/>
      <point x="341" y="308"/>
      <point x="319" y="281"/>
      <point x="276" y="281" type="curve" smooth="yes"/>
    </contour>
    <contour>
      <point x="260" y="148" type="line"/>
      <point x="260" y="194" type="line"/>
      <point x="289" y="194" type="line" smooth="yes"/>
      <point x="387" y="194"/>
      <point x="444" y="251"/>
      <point x="444" y="362" type="curve" smooth="yes"/>
      <point x="444" y="468"/>
      <point x="387" y="525"/>
      <point x="298" y="525" type="curve" smooth="yes"/>
      <point x="260" y="525" type="line"/>
      <point x="260" y="568" type="line"/>
      <point x="326" y="568" type="line" smooth="yes"/>
      <point x="438" y="568"/>
      <point x="493" y="501"/>
      <point x="493" y="365" type="curve" smooth="yes"/>
      <point x="493" y="218"/>
      <point x="437" y="148"/>
      <point x="313" y="148" type="curve" smooth="yes"/>
    </contour>
  </outline>
</glyph>
<glyph name="Tenthousand-roman" format="2">
  <advance width="1121"/>
  <unicode hex="2182"/>
  <outline>
    <contour>
      <point x="426" y="0" type="curve" smooth="yes"/>
      <point x="695" y="0" type="line" smooth="yes"/>
      <point x="922" y="0"/>
      <point x="1070" y="123"/>
      <point x="1070" y="372" type="curve" smooth="yes"/>
      <point x="1070" y="593"/>
      <point x="941" y="714"/>
      <point x="711" y="714" type="curve" smooth="yes"/>
      <point x="410" y="714" type="line" smooth="yes"/>
      <point x="180" y="714"/>
      <point x="51" y="593"/>
      <point x="51" y="372" type="curve" smooth="yes"/>
      <point x="51" y="123"/>
      <point x="199" y="0"/>
    </contour>
    <contour>
      <point x="421" y="148" type="line" smooth="yes"/>
      <point x="297" y="148"/>
      <point x="241" y="218"/>
      <point x="241" y="365" type="curve" smooth="yes"/>
      <point x="241" y="501"/>
      <point x="296" y="568"/>
      <point x="408" y="568" type="curve" smooth="yes"/>
      <point x="474" y="568" type="line"/>
      <point x="474" y="525" type="line"/>
      <point x="436" y="525" type="line" smooth="yes"/>
      <point x="347" y="525"/>
      <point x="290" y="468"/>
      <point x="290" y="362" type="curve" smooth="yes"/>
      <point x="290" y="251"/>
      <point x="347" y="194"/>
      <point x="445" y="194" type="curve" smooth="yes"/>
      <point x="474" y="194" type="line"/>
      <point x="474" y="148" type="line"/>
    </contour>
    <contour>
      <point x="458" y="281" type="line" smooth="yes"/>
      <point x="415" y="281"/>
      <point x="393" y="308"/>
      <point x="393" y="361" type="curve" smooth="yes"/>
      <point x="393" y="414"/>
      <point x="414" y="438"/>
      <point x="450" y="438" type="curve" smooth="yes"/>
      <point x="474" y="438" type="line"/>
      <point x="474" y="281" type="line"/>
    </contour>
    <contour>
      <point x="647" y="281" type="line"/>
      <point x="647" y="438" type="line"/>
      <point x="670" y="438" type="line" smooth="yes"/>
      <point x="707" y="438"/>
      <point x="728" y="414"/>
      <point x="728" y="361" type="curve" smooth="yes"/>
      <point x="728" y="308"/>
      <point x="706" y="281"/>
      <point x="663" y="281" type="curve" smooth="yes"/>
    </contour>
    <contour>
      <point x="647" y="148" type="line"/>
      <point x="647" y="194" type="line"/>
      <point x="676" y="194" type="line" smooth="yes"/>
      <point x="773" y="194"/>
      <point x="831" y="251"/>
      <point x="831" y="362" type="curve" smooth="yes"/>
      <point x="831" y="468"/>
      <point x="774" y="525"/>
      <point x="685" y="525" type="curve" smooth="yes"/>
      <point x="647" y="525" type="line"/>
      <point x="647" y="568" type="line"/>
      <point x="713" y="568" type="line" smooth="yes"/>
      <point x="824" y="568"/>
      <point x="879" y="501"/>
      <point x="879" y="365" type="curve" smooth="yes"/>
      <point x="879" y="218"/>
      <point x="824" y="148"/>
      <point x="700" y="148" type="curve" smooth="yes"/>
    </contour>
  </outline>
</glyph>
<glyph name="Onehundredreversed-roman" format="2">
  <advance width="642"/>
  <unicode hex="2183"/>
  <outline>
    <contour>
      <point x="247" y="-18" type="curve" smooth="yes"/>
      <point x="461" y="-18"/>
      <point x="587" y="136"/>
      <point x="587" y="358" type="curve" smooth="yes"/>
      <point x="587" y="589"/>
      <point x="474" y="735"/>
      <point x="247" y="735" type="curve" smooth="yes"/>
      <point x="162" y="735"/>
      <point x="78" y="714"/>
      <point x="3" y="677" type="curve"/>
      <point x="66" y="542" type="line"/>
      <point x="121" y="566"/>
      <point x="181" y="588"/>
      <point x="233" y="588" type="curve" smooth="yes"/>
      <point x="362" y="588"/>
      <point x="426" y="500"/>
      <point x="426" y="359" type="curve" smooth="yes"/>
      <point x="426" y="216"/>
      <point x="353" y="129"/>
      <point x="233" y="129" type="curve" smooth="yes"/>
      <point x="182" y="129"/>
      <point x="116" y="145"/>
      <point x="41" y="167" type="curve"/>
      <point x="41" y="20" type="line"/>
      <point x="109" y="-6"/>
      <point x="168" y="-18"/>
    </contour>
  </outline>
</glyph>
<glyph name="sixlateform-roman" format="2">
  <advance width="642"/>
  <unicode hex="2185"/>
  <outline>
    <contour>
      <point x="345" y="-232" type="line"/>
      <point x="499" y="-232" type="line"/>
      <point x="499" y="157" type="line"/>
      <point x="441" y="136"/>
      <point x="408" y="130"/>
      <point x="381" y="130" type="curve" smooth="yes"/>
      <point x="242" y="130"/>
      <point x="185" y="216"/>
      <point x="185" y="358" type="curve" smooth="yes"/>
      <point x="185" y="502"/>
      <point x="260" y="588"/>
      <point x="384" y="588" type="curve" smooth="yes"/>
      <point x="439" y="588"/>
      <point x="499" y="566"/>
      <point x="554" y="541" type="curve"/>
      <point x="622" y="677" type="line"/>
      <point x="545" y="713"/>
      <point x="460" y="735"/>
      <point x="386" y="735" type="curve" smooth="yes"/>
      <point x="156" y="735"/>
      <point x="23" y="580"/>
      <point x="23" y="359" type="curve" smooth="yes"/>
      <point x="23" y="151"/>
      <point x="115" y="-2"/>
      <point x="345" y="-17" type="curve"/>
    </contour>
  </outline>
</glyph>
<glyph name="fiftyearlyform-roman" format="2">
  <advance width="547"/>
  <unicode hex="2186"/>
  <outline>
    <contour>
      <point x="255" y="-62" type="line"/>
      <point x="292" y="-62" type="line"/>
      <point x="529" y="153" type="line"/>
      <point x="529" y="349" type="line"/>
      <point x="337" y="175" type="line"/>
      <point x="353" y="153" type="line"/>
      <point x="353" y="719" type="line"/>
      <point x="194" y="719" type="line"/>
      <point x="194" y="154" type="line"/>
      <point x="210" y="176" type="line"/>
      <point x="19" y="349" type="line"/>
      <point x="19" y="153" type="line"/>
    </contour>
  </outline>
</glyph>
<glyph name="fiftythousand-roman" format="2">
  <advance width="734"/>
  <unicode hex="2187"/>
  <outline>
    <contour>
      <point x="77" y="0" type="line"/>
      <point x="308" y="0" type="line" smooth="yes"/>
      <point x="535" y="0"/>
      <point x="683" y="123"/>
      <point x="683" y="372" type="curve" smooth="yes"/>
      <point x="683" y="593"/>
      <point x="554" y="714"/>
      <point x="324" y="714" type="curve" smooth="yes"/>
      <point x="77" y="714" type="line"/>
    </contour>
    <contour>
      <point x="236" y="293" type="line"/>
      <point x="236" y="426" type="line"/>
      <point x="255" y="426" type="line" smooth="yes"/>
      <point x="286" y="426"/>
      <point x="303" y="416"/>
      <point x="303" y="361" type="curve" smooth="yes"/>
      <point x="303" y="306"/>
      <point x="286" y="293"/>
      <point x="251" y="293" type="curve" smooth="yes"/>
    </contour>
    <contour>
      <point x="236" y="215" type="line"/>
      <point x="236" y="247" type="line"/>
      <point x="259" y="247" type="line" smooth="yes"/>
      <point x="322" y="247"/>
      <point x="359" y="275"/>
      <point x="359" y="361" type="curve" smooth="yes"/>
      <point x="359" y="444"/>
      <point x="322" y="472"/>
      <point x="264" y="472" type="curve" smooth="yes"/>
      <point x="236" y="472" type="line"/>
      <point x="236" y="503" type="line"/>
      <point x="282" y="503" type="line" smooth="yes"/>
      <point x="347" y="503"/>
      <point x="385" y="469"/>
      <point x="385" y="362" type="curve" smooth="yes"/>
      <point x="385" y="254"/>
      <point x="347" y="215"/>
      <point x="273" y="215" type="curve" smooth="yes"/>
    </contour>
    <contour>
      <point x="236" y="124" type="line"/>
      <point x="236" y="150" type="line"/>
      <point x="289" y="150" type="line" smooth="yes"/>
      <point x="409" y="150"/>
      <point x="479" y="212"/>
      <point x="479" y="363" type="curve" smooth="yes"/>
      <point x="479" y="508"/>
      <point x="410" y="569"/>
      <point x="299" y="569" type="curve" smooth="yes"/>
      <point x="236" y="569" type="line"/>
      <point x="236" y="592" type="line"/>
      <point x="326" y="592" type="line" smooth="yes"/>
      <point x="454" y="592"/>
      <point x="517" y="518"/>
      <point x="517" y="365" type="curve" smooth="yes"/>
      <point x="517" y="202"/>
      <point x="454" y="124"/>
      <point x="313" y="124" type="curve" smooth="yes"/>
    </contour>
  </outline>
</glyph>
<glyph name="Onehundredthousand-roman" format="2">
  <advance width="1155"/>
  <unicode hex="2188"/>
  <outline>
    <contour>
      <point x="426" y="0" type="curve" smooth="yes"/>
      <point x="729" y="0" type="line" smooth="yes"/>
      <point x="956" y="0"/>
      <point x="1104" y="123"/>
      <point x="1104" y="372" type="curve" smooth="yes"/>
      <point x="1104" y="593"/>
      <point x="975" y="714"/>
      <point x="745" y="714" type="curve" smooth="yes"/>
      <point x="410" y="714" type="line" smooth="yes"/>
      <point x="180" y="714"/>
      <point x="51" y="593"/>
      <point x="51" y="372" type="curve" smooth="yes"/>
      <point x="51" y="123"/>
      <point x="199" y="0"/>
    </contour>
    <contour>
      <point x="421" y="124" type="line" smooth="yes"/>
      <point x="280" y="124"/>
      <point x="217" y="202"/>
      <point x="217" y="365" type="curve" smooth="yes"/>
      <point x="217" y="518"/>
      <point x="280" y="592"/>
      <point x="408" y="592" type="curve" smooth="yes"/>
      <point x="498" y="592" type="line"/>
      <point x="498" y="569" type="line"/>
      <point x="435" y="569" type="line" smooth="yes"/>
      <point x="324" y="569"/>
      <point x="254" y="508"/>
      <point x="254" y="363" type="curve" smooth="yes"/>
      <point x="254" y="212"/>
      <point x="325" y="150"/>
      <point x="445" y="150" type="curve" smooth="yes"/>
      <point x="498" y="150" type="line"/>
      <point x="498" y="124" type="line"/>
    </contour>
    <contour>
      <point x="461" y="215" type="line" smooth="yes"/>
      <point x="387" y="215"/>
      <point x="349" y="254"/>
      <point x="349" y="362" type="curve" smooth="yes"/>
      <point x="349" y="469"/>
      <point x="387" y="503"/>
      <point x="452" y="503" type="curve" smooth="yes"/>
      <point x="498" y="503" type="line"/>
      <point x="498" y="472" type="line"/>
      <point x="470" y="472" type="line" smooth="yes"/>
      <point x="412" y="472"/>
      <point x="375" y="444"/>
      <point x="375" y="361" type="curve" smooth="yes"/>
      <point x="375" y="275"/>
      <point x="412" y="247"/>
      <point x="475" y="247" type="curve" smooth="yes"/>
      <point x="498" y="247" type="line"/>
      <point x="498" y="215" type="line"/>
    </contour>
    <contour>
      <point x="483" y="293" type="line" smooth="yes"/>
      <point x="448" y="293"/>
      <point x="431" y="306"/>
      <point x="431" y="361" type="curve" smooth="yes"/>
      <point x="431" y="416"/>
      <point x="448" y="426"/>
      <point x="479" y="426" type="curve" smooth="yes"/>
      <point x="498" y="426" type="line"/>
      <point x="498" y="293" type="line"/>
    </contour>
    <contour>
      <point x="657" y="293" type="line"/>
      <point x="657" y="426" type="line"/>
      <point x="676" y="426" type="line" smooth="yes"/>
      <point x="707" y="426"/>
      <point x="724" y="416"/>
      <point x="724" y="361" type="curve" smooth="yes"/>
      <point x="724" y="306"/>
      <point x="707" y="293"/>
      <point x="672" y="293" type="curve" smooth="yes"/>
    </contour>
    <contour>
      <point x="657" y="215" type="line"/>
      <point x="657" y="247" type="line"/>
      <point x="680" y="247" type="line" smooth="yes"/>
      <point x="743" y="247"/>
      <point x="780" y="275"/>
      <point x="780" y="361" type="curve" smooth="yes"/>
      <point x="780" y="444"/>
      <point x="743" y="472"/>
      <point x="685" y="472" type="curve" smooth="yes"/>
      <point x="657" y="472" type="line"/>
      <point x="657" y="503" type="line"/>
      <point x="703" y="503" type="line" smooth="yes"/>
      <point x="768" y="503"/>
      <point x="806" y="469"/>
      <point x="806" y="362" type="curve" smooth="yes"/>
      <point x="806" y="254"/>
      <point x="768" y="215"/>
      <point x="694" y="215" type="curve" smooth="yes"/>
    </contour>
    <contour>
      <point x="657" y="124" type="line"/>
      <point x="657" y="150" type="line"/>
      <point x="709" y="150" type="line" smooth="yes"/>
      <point x="830" y="150"/>
      <point x="900" y="212"/>
      <point x="900" y="363" type="curve" smooth="yes"/>
      <point x="900" y="508"/>
      <point x="831" y="569"/>
      <point x="720" y="569" type="curve" smooth="yes"/>
      <point x="657" y="569" type="line"/>
      <point x="657" y="592" type="line"/>
      <point x="747" y="592" type="line" smooth="yes"/>
      <point x="875" y="592"/>
      <point x="938" y="518"/>
      <point x="938" y="365" type="curve" smooth="yes"/>
      <point x="938" y="202"/>
      <point x="875" y="124"/>
      <point x="734" y="124" type="curve" smooth="yes"/>
    </contour>
  </outline>
</glyph>
<glyph name="twoTurned" format="2">
  <advance width="582"/>
  <unicode hex="218A"/>
  <outline>
    <contour>
      <point x="287" y="-43" type="curve" smooth="yes"/>
      <point x="392" y="-43"/>
      <point x="471" y="2"/>
      <point x="541" y="62" type="curve"/>
      <point x="458" y="183" type="line"/>
      <point x="394" y="131"/>
      <point x="343" y="104"/>
      <point x="296" y="104" type="curve" smooth="yes"/>
      <point x="240" y="104"/>
      <point x="211" y="141"/>
      <point x="211" y="199" type="curve" smooth="yes"/>
      <point x="211" y="274"/>
      <point x="262" y="349"/>
      <point x="354" y="442" type="curve" smooth="yes"/>
      <point x="536" y="627" type="line"/>
      <point x="536" y="744" type="line"/>
      <point x="31" y="744" type="line"/>
      <point x="31" y="597" type="line"/>
      <point x="306" y="597" type="line"/>
      <point x="229" y="519" type="line" smooth="yes"/>
      <point x="124" y="412"/>
      <point x="50" y="317"/>
      <point x="50" y="190" type="curve" smooth="yes"/>
      <point x="50" y="49"/>
      <point x="145" y="-43"/>
    </contour>
  </outline>
</glyph>
<glyph name="threeTurned" format="2">
  <advance width="639"/>
  <unicode hex="218B"/>
  <outline>
    <contour>
      <point x="299" y="-43" type="curve" smooth="yes"/>
      <point x="421" y="-43"/>
      <point x="499" y="5"/>
      <point x="563" y="58" type="curve"/>
      <point x="484" y="169" type="line"/>
      <point x="425" y="129"/>
      <point x="372" y="102"/>
      <point x="315" y="102" type="curve" smooth="yes"/>
      <point x="260" y="102"/>
      <point x="227" y="127"/>
      <point x="227" y="178" type="curve" smooth="yes"/>
      <point x="227" y="239"/>
      <point x="271" y="276"/>
      <point x="355" y="276" type="curve" smooth="yes"/>
      <point x="455" y="276" type="line"/>
      <point x="456" y="423" type="line"/>
      <point x="356" y="423" type="line" smooth="yes"/>
      <point x="262" y="423"/>
      <point x="207" y="446"/>
      <point x="207" y="514" type="curve" smooth="yes"/>
      <point x="207" y="574"/>
      <point x="250" y="611"/>
      <point x="332" y="611" type="curve" smooth="yes"/>
      <point x="397" y="611"/>
      <point x="472" y="589"/>
      <point x="556" y="547" type="curve"/>
      <point x="557" y="706" type="line"/>
      <point x="483" y="743"/>
      <point x="406" y="755"/>
      <point x="335" y="755" type="curve" smooth="yes"/>
      <point x="132" y="755"/>
      <point x="46" y="655"/>
      <point x="46" y="523" type="curve" smooth="yes"/>
      <point x="46" y="426"/>
      <point x="93" y="364"/>
      <point x="183" y="332" type="curve"/>
      <point x="181" y="347" type="line"/>
      <point x="109" y="310"/>
      <point x="65" y="250"/>
      <point x="65" y="160" type="curve" smooth="yes"/>
      <point x="65" y="37"/>
      <point x="150" y="-43"/>
    </contour>
  </outline>
</glyph>
<glyph name="leftArrow" format="2">
  <advance width="1000"/>
  <unicode hex="2190"/>
  <note>
arrowleft
</note>
  <outline>
    <contour>
      <point x="285" y="201" type="curve"/>
      <point x="389" y="201" type="line"/>
      <point x="377" y="235"/>
      <point x="360" y="269"/>
      <point x="336" y="303" type="curve"/>
      <point x="336" y="380" type="line"/>
      <point x="360" y="415"/>
      <point x="378" y="449"/>
      <point x="389" y="483" type="curve"/>
      <point x="285" y="483" type="line"/>
      <point x="244" y="434"/>
      <point x="198" y="397"/>
      <point x="148" y="371" type="curve"/>
      <point x="148" y="312" type="line"/>
      <point x="199" y="287"/>
      <point x="244" y="249"/>
    </contour>
    <contour>
      <point x="330" y="288" type="line"/>
      <point x="852" y="288" type="line"/>
      <point x="852" y="396" type="line"/>
      <point x="331" y="396" type="line"/>
    </contour>
  </outline>
</glyph>
<glyph name="upArrow" format="2">
  <advance width="500"/>
  <unicode hex="2191"/>
  <note>
arrowup
</note>
  <outline>
    <contour>
      <point x="196" y="0" type="line"/>
      <point x="305" y="0" type="line"/>
      <point x="305" y="505" type="line"/>
      <point x="333" y="486"/>
      <point x="362" y="472"/>
      <point x="391" y="462" type="curve"/>
      <point x="391" y="566" type="line"/>
      <point x="342" y="607"/>
      <point x="305" y="654"/>
      <point x="280" y="704" type="curve"/>
      <point x="221" y="704" type="line"/>
      <point x="195" y="654"/>
      <point x="158" y="607"/>
      <point x="109" y="566" type="curve"/>
      <point x="109" y="463" type="line"/>
      <point x="138" y="473"/>
      <point x="167" y="487"/>
      <point x="196" y="506" type="curve"/>
    </contour>
  </outline>
</glyph>
<glyph name="rightArrow" format="2">
  <advance width="1000"/>
  <unicode hex="2192"/>
  <note>
arrowright
</note>
  <outline>
    <contour>
      <point x="610" y="201" type="curve"/>
      <point x="714" y="201" type="line"/>
      <point x="755" y="250"/>
      <point x="801" y="287"/>
      <point x="852" y="312" type="curve"/>
      <point x="852" y="371" type="line"/>
      <point x="801" y="397"/>
      <point x="755" y="434"/>
      <point x="714" y="483" type="curve"/>
      <point x="611" y="483" type="line"/>
      <point x="620" y="454"/>
      <point x="634" y="425"/>
      <point x="654" y="396" type="curve"/>
      <point x="148" y="396" type="line"/>
      <point x="148" y="288" type="line"/>
      <point x="653" y="288" type="line"/>
      <point x="633" y="259"/>
      <point x="619" y="230"/>
    </contour>
  </outline>
</glyph>
<glyph name="downArrow" format="2">
  <advance width="500"/>
  <unicode hex="2193"/>
  <note>
arrowdown
</note>
  <outline>
    <contour>
      <point x="220" y="0" type="curve"/>
      <point x="279" y="0" type="line"/>
      <point x="305" y="51"/>
      <point x="342" y="96"/>
      <point x="391" y="138" type="curve"/>
      <point x="391" y="241" type="line"/>
      <point x="362" y="232"/>
      <point x="333" y="217"/>
      <point x="304" y="198" type="curve"/>
      <point x="304" y="704" type="line"/>
      <point x="196" y="704" type="line"/>
      <point x="196" y="199" type="line"/>
      <point x="167" y="218"/>
      <point x="138" y="233"/>
      <point x="109" y="242" type="curve"/>
      <point x="109" y="138" type="line"/>
      <point x="158" y="96"/>
      <point x="195" y="50"/>
    </contour>
  </outline>
</glyph>
<glyph name="leftRightArrow" format="2">
  <advance width="1000"/>
  <unicode hex="2194"/>
  <note>
arrowboth
</note>
  <outline>
    <contour>
      <point x="281" y="201" type="curve"/>
      <point x="384" y="201" type="line"/>
      <point x="374" y="230"/>
      <point x="360" y="259"/>
      <point x="341" y="288" type="curve"/>
      <point x="657" y="288" type="line"/>
      <point x="638" y="259"/>
      <point x="624" y="230"/>
      <point x="615" y="201" type="curve"/>
      <point x="719" y="201" type="line"/>
      <point x="760" y="250"/>
      <point x="806" y="287"/>
      <point x="857" y="312" type="curve"/>
      <point x="857" y="371" type="line"/>
      <point x="806" y="397"/>
      <point x="760" y="434"/>
      <point x="719" y="483" type="curve"/>
      <point x="615" y="483" type="line"/>
      <point x="625" y="454"/>
      <point x="639" y="425"/>
      <point x="659" y="396" type="curve"/>
      <point x="342" y="396" type="line"/>
      <point x="361" y="425"/>
      <point x="375" y="454"/>
      <point x="385" y="483" type="curve"/>
      <point x="281" y="483" type="line"/>
      <point x="240" y="434"/>
      <point x="193" y="397"/>
      <point x="143" y="371" type="curve"/>
      <point x="143" y="312" type="line"/>
      <point x="194" y="287"/>
      <point x="240" y="249"/>
    </contour>
  </outline>
</glyph>
<glyph name="upDownArrow" format="2">
  <advance width="500"/>
  <unicode hex="2195"/>
  <note>
arrowupdn
</note>
  <outline>
    <contour>
      <point x="220" y="0" type="curve"/>
      <point x="279" y="0" type="line"/>
      <point x="305" y="51"/>
      <point x="342" y="96"/>
      <point x="391" y="138" type="curve"/>
      <point x="391" y="241" type="line"/>
      <point x="362" y="232"/>
      <point x="333" y="217"/>
      <point x="304" y="198" type="curve"/>
      <point x="304" y="505" type="line"/>
      <point x="333" y="486"/>
      <point x="362" y="472"/>
      <point x="391" y="462" type="curve"/>
      <point x="391" y="566" type="line"/>
      <point x="342" y="607"/>
      <point x="305" y="654"/>
      <point x="279" y="704" type="curve"/>
      <point x="220" y="704" type="line"/>
      <point x="195" y="654"/>
      <point x="158" y="607"/>
      <point x="109" y="566" type="curve"/>
      <point x="109" y="463" type="line"/>
      <point x="138" y="473"/>
      <point x="167" y="487"/>
      <point x="196" y="506" type="curve"/>
      <point x="196" y="199" type="line"/>
      <point x="167" y="218"/>
      <point x="138" y="233"/>
      <point x="109" y="242" type="curve"/>
      <point x="109" y="138" type="line"/>
      <point x="158" y="96"/>
      <point x="195" y="50"/>
    </contour>
  </outline>
</glyph>
<glyph name="northWestArrow" format="2">
  <advance width="750"/>
  <unicode hex="2196"/>
  <note>
uni2196
</note>
  <outline>
    <contour>
      <point x="576" y="65" type="line"/>
      <point x="653" y="142" type="line"/>
      <point x="296" y="499" type="line"/>
      <point x="329" y="505"/>
      <point x="360" y="516"/>
      <point x="387" y="529" type="curve"/>
      <point x="314" y="603" type="line"/>
      <point x="250" y="597"/>
      <point x="191" y="604"/>
      <point x="138" y="622" type="curve"/>
      <point x="96" y="580" type="line"/>
      <point x="113" y="527"/>
      <point x="120" y="467"/>
      <point x="114" y="404" type="curve"/>
      <point x="187" y="331" type="line"/>
      <point x="201" y="358"/>
      <point x="211" y="389"/>
      <point x="218" y="423" type="curve"/>
    </contour>
  </outline>
</glyph>
<glyph name="northEastArrow" format="2">
  <advance width="750"/>
  <unicode hex="2197"/>
  <note>
uni2197
</note>
  <outline>
    <contour>
      <point x="173" y="64" type="line"/>
      <point x="531" y="421" type="line"/>
      <point x="537" y="388"/>
      <point x="548" y="358"/>
      <point x="561" y="330" type="curve"/>
      <point x="635" y="404" type="line"/>
      <point x="629" y="467"/>
      <point x="636" y="527"/>
      <point x="654" y="580" type="curve"/>
      <point x="612" y="621" type="line"/>
      <point x="558" y="604"/>
      <point x="499" y="597"/>
      <point x="435" y="603" type="curve"/>
      <point x="362" y="530" type="line"/>
      <point x="390" y="517"/>
      <point x="420" y="506"/>
      <point x="454" y="499" type="curve"/>
      <point x="96" y="141" type="line"/>
    </contour>
  </outline>
</glyph>
<glyph name="southEastArrow" format="2">
  <advance width="750"/>
  <unicode hex="2198"/>
  <note>
uni2198
</note>
  <outline>
    <contour>
      <point x="612" y="64" type="curve"/>
      <point x="654" y="105" type="line"/>
      <point x="636" y="158"/>
      <point x="629" y="218"/>
      <point x="635" y="281" type="curve"/>
      <point x="561" y="355" type="line"/>
      <point x="548" y="327"/>
      <point x="537" y="297"/>
      <point x="531" y="264" type="curve"/>
      <point x="173" y="621" type="line"/>
      <point x="96" y="544" type="line"/>
      <point x="454" y="186" type="line"/>
      <point x="420" y="179"/>
      <point x="390" y="168"/>
      <point x="362" y="155" type="curve"/>
      <point x="435" y="82" type="line"/>
      <point x="499" y="88"/>
      <point x="558" y="81"/>
    </contour>
  </outline>
</glyph>
<glyph name="southWestArrow" format="2">
  <advance width="750"/>
  <unicode hex="2199"/>
  <note>
uni2199
</note>
  <outline>
    <contour>
      <point x="138" y="65" type="line"/>
      <point x="191" y="83"/>
      <point x="250" y="90"/>
      <point x="314" y="84" type="curve"/>
      <point x="387" y="158" type="line"/>
      <point x="360" y="171"/>
      <point x="329" y="182"/>
      <point x="296" y="188" type="curve"/>
      <point x="653" y="545" type="line"/>
      <point x="576" y="622" type="line"/>
      <point x="218" y="264" type="line"/>
      <point x="211" y="298"/>
      <point x="201" y="329"/>
      <point x="187" y="356" type="curve"/>
      <point x="114" y="283" type="line"/>
      <point x="120" y="220"/>
      <point x="113" y="160"/>
      <point x="96" y="107" type="curve"/>
    </contour>
  </outline>
</glyph>
<glyph name="diameterSign" format="2">
  <advance width="571"/>
  <unicode hex="2300"/>
  <note>
uni2300
</note>
  <outline>
    <contour>
      <point x="112" y="89" type="line"/>
      <point x="162" y="140" type="line"/>
      <point x="198" y="119"/>
      <point x="237" y="110"/>
      <point x="280" y="110" type="curve" smooth="yes"/>
      <point x="414" y="110"/>
      <point x="524" y="221"/>
      <point x="524" y="354" type="curve" smooth="yes"/>
      <point x="524" y="397"/>
      <point x="515" y="436"/>
      <point x="494" y="472" type="curve"/>
      <point x="542" y="521" type="line"/>
      <point x="461" y="612" type="line"/>
      <point x="410" y="561" type="line"/>
      <point x="371" y="586"/>
      <point x="328" y="599"/>
      <point x="280" y="599" type="curve" smooth="yes"/>
      <point x="146" y="599"/>
      <point x="36" y="488"/>
      <point x="36" y="354" type="curve" smooth="yes"/>
      <point x="36" y="306"/>
      <point x="48" y="262"/>
      <point x="73" y="224" type="curve"/>
      <point x="28" y="179" type="line"/>
    </contour>
    <contour>
      <point x="168" y="319" type="line"/>
      <point x="165" y="331"/>
      <point x="163" y="341"/>
      <point x="163" y="354" type="curve" smooth="yes"/>
      <point x="163" y="419"/>
      <point x="215" y="471"/>
      <point x="280" y="471" type="curve" smooth="yes"/>
      <point x="292" y="471"/>
      <point x="305" y="469"/>
      <point x="315" y="466" type="curve"/>
    </contour>
    <contour>
      <point x="280" y="237" type="curve" smooth="yes"/>
      <point x="274" y="237"/>
      <point x="267" y="238"/>
      <point x="261" y="239" type="curve"/>
      <point x="396" y="373" type="line"/>
      <point x="397" y="367"/>
      <point x="397" y="360"/>
      <point x="397" y="354" type="curve" smooth="yes"/>
      <point x="397" y="288"/>
      <point x="344" y="237"/>
    </contour>
  </outline>
</glyph>
<glyph name="electricArrow" format="2">
  <advance width="579"/>
  <unicode hex="2301"/>
  <note>
uni2301
</note>
  <outline>
    <contour>
      <point x="348" y="149" type="line"/>
      <point x="348" y="321" type="line"/>
      <point x="540" y="187" type="line"/>
      <point x="540" y="337" type="line"/>
      <point x="230" y="554" type="line"/>
      <point x="230" y="383" type="line"/>
      <point x="39" y="517" type="line"/>
      <point x="39" y="367" type="line"/>
    </contour>
  </outline>
</glyph>
<glyph name="house" format="2">
  <advance width="716"/>
  <unicode hex="2302"/>
  <note>
house
</note>
  <outline>
    <contour>
      <point x="46" y="0" type="line"/>
      <point x="670" y="0" type="line"/>
      <point x="670" y="434" type="line"/>
      <point x="358" y="726" type="line"/>
      <point x="46" y="434" type="line"/>
    </contour>
    <contour>
      <point x="181" y="134" type="line"/>
      <point x="181" y="382" type="line"/>
      <point x="358" y="548" type="line"/>
      <point x="536" y="382" type="line"/>
      <point x="536" y="134" type="line"/>
    </contour>
  </outline>
</glyph>
<glyph name="control" format="2">
  <advance width="512"/>
  <unicode hex="2303"/>
  <note>
uni2303
</note>
  <outline>
    <contour>
      <point x="13" y="369" type="line"/>
      <point x="166" y="369" type="line"/>
      <point x="256" y="547" type="line"/>
      <point x="346" y="369" type="line"/>
      <point x="499" y="369" type="line"/>
      <point x="287" y="778" type="line"/>
      <point x="226" y="778" type="line"/>
    </contour>
  </outline>
</glyph>
<glyph name="downArrowHead" format="2">
  <advance width="512"/>
  <unicode hex="2304"/>
  <note>
uni2304
</note>
  <outline>
    <contour>
      <point x="226" y="-85" type="line"/>
      <point x="287" y="-85" type="line"/>
      <point x="499" y="325" type="line"/>
      <point x="346" y="325" type="line"/>
      <point x="256" y="147" type="line"/>
      <point x="166" y="325" type="line"/>
      <point x="13" y="325" type="line"/>
    </contour>
  </outline>
</glyph>
<glyph name="projective" format="2">
  <advance width="560"/>
  <unicode hex="2305"/>
  <note>
uni2305
</note>
  <outline>
    <contour>
      <point x="38" y="0" type="line"/>
      <point x="191" y="0" type="line"/>
      <point x="280" y="178" type="line"/>
      <point x="370" y="0" type="line"/>
      <point x="523" y="0" type="line"/>
      <point x="311" y="409" type="line"/>
      <point x="250" y="409" type="line"/>
    </contour>
    <contour>
      <point x="38" y="434" type="line"/>
      <point x="521" y="434" type="line"/>
      <point x="521" y="568" type="line"/>
      <point x="38" y="568" type="line"/>
    </contour>
  </outline>
</glyph>
<glyph name="perspective" format="2">
  <advance width="560"/>
  <unicode hex="2306"/>
  <note>
uni2306
</note>
  <outline>
    <contour>
      <point x="38" y="0" type="line"/>
      <point x="191" y="0" type="line"/>
      <point x="280" y="178" type="line"/>
      <point x="370" y="0" type="line"/>
      <point x="523" y="0" type="line"/>
      <point x="311" y="409" type="line"/>
      <point x="250" y="409" type="line"/>
    </contour>
    <contour>
      <point x="38" y="439" type="line"/>
      <point x="521" y="439" type="line"/>
      <point x="521" y="573" type="line"/>
      <point x="38" y="573" type="line"/>
    </contour>
    <contour>
      <point x="38" y="606" type="line"/>
      <point x="521" y="606" type="line"/>
      <point x="521" y="741" type="line"/>
      <point x="38" y="741" type="line"/>
    </contour>
  </outline>
</glyph>
<glyph name="wavyLine" format="2">
  <advance width="333"/>
  <unicode hex="2307"/>
  <note>
uni2307
</note>
  <outline>
    <contour>
      <point x="234" y="-100" type="curve"/>
      <point x="315" y="10" type="line"/>
      <point x="282" y="31"/>
      <point x="245" y="56"/>
      <point x="220" y="77" type="curve" smooth="yes"/>
      <point x="199" y="95"/>
      <point x="190" y="103"/>
      <point x="190" y="112" type="curve" smooth="yes"/>
      <point x="190" y="121"/>
      <point x="198" y="130"/>
      <point x="214" y="144" type="curve" smooth="yes"/>
      <point x="243" y="171" type="line" smooth="yes"/>
      <point x="274" y="199"/>
      <point x="292" y="234"/>
      <point x="292" y="270" type="curve" smooth="yes"/>
      <point x="292" y="306"/>
      <point x="274" y="341"/>
      <point x="243" y="369" type="curve" smooth="yes"/>
      <point x="214" y="396" type="line" smooth="yes"/>
      <point x="198" y="410"/>
      <point x="190" y="419"/>
      <point x="190" y="428" type="curve" smooth="yes"/>
      <point x="190" y="437"/>
      <point x="198" y="446"/>
      <point x="214" y="460" type="curve" smooth="yes"/>
      <point x="243" y="487" type="line" smooth="yes"/>
      <point x="274" y="516"/>
      <point x="292" y="551"/>
      <point x="292" y="591" type="curve" smooth="yes"/>
      <point x="292" y="632"/>
      <point x="274" y="683"/>
      <point x="211" y="732" type="curve" smooth="yes"/>
      <point x="184" y="753"/>
      <point x="145" y="780"/>
      <point x="104" y="804" type="curve"/>
      <point x="18" y="684" type="line"/>
      <point x="52" y="666"/>
      <point x="91" y="642"/>
      <point x="121" y="616" type="curve" smooth="yes"/>
      <point x="135" y="604"/>
      <point x="143" y="595"/>
      <point x="143" y="586" type="curve" smooth="yes"/>
      <point x="143" y="577"/>
      <point x="135" y="568"/>
      <point x="119" y="554" type="curve" smooth="yes"/>
      <point x="90" y="527" type="line" smooth="yes"/>
      <point x="59" y="499"/>
      <point x="41" y="464"/>
      <point x="41" y="428" type="curve" smooth="yes"/>
      <point x="41" y="392"/>
      <point x="59" y="357"/>
      <point x="90" y="329" type="curve" smooth="yes"/>
      <point x="119" y="302" type="line" smooth="yes"/>
      <point x="135" y="288"/>
      <point x="143" y="279"/>
      <point x="143" y="270" type="curve" smooth="yes"/>
      <point x="143" y="261"/>
      <point x="135" y="252"/>
      <point x="119" y="238" type="curve" smooth="yes"/>
      <point x="90" y="211" type="line" smooth="yes"/>
      <point x="59" y="183"/>
      <point x="41" y="148"/>
      <point x="41" y="109" type="curve" smooth="yes"/>
      <point x="41" y="69"/>
      <point x="60" y="22"/>
      <point x="115" y="-23" type="curve" smooth="yes"/>
      <point x="148" y="-50"/>
      <point x="193" y="-76"/>
    </contour>
  </outline>
</glyph>
<glyph name="leftCeiling" format="2">
  <advance width="404"/>
  <unicode hex="2308"/>
  <note>
uni2308
</note>
  <outline>
    <contour>
      <point x="30" y="-110" type="line"/>
      <point x="165" y="-110" type="line"/>
      <point x="165" y="696" type="line"/>
      <point x="373" y="696" type="line"/>
      <point x="373" y="824" type="line"/>
      <point x="30" y="824" type="line"/>
    </contour>
  </outline>
</glyph>
<glyph name="rightCeiling" format="2">
  <advance width="404"/>
  <unicode hex="2309"/>
  <note>
uni2309
</note>
  <outline>
    <contour>
      <point x="239" y="-110" type="line"/>
      <point x="373" y="-110" type="line"/>
      <point x="373" y="824" type="line"/>
      <point x="30" y="824" type="line"/>
      <point x="30" y="696" type="line"/>
      <point x="239" y="696" type="line"/>
    </contour>
  </outline>
</glyph>
<glyph name="leftFloor" format="2">
  <advance width="404"/>
  <unicode hex="230A"/>
  <note>
uni230A
</note>
  <outline>
    <contour>
      <point x="30" y="-110" type="line"/>
      <point x="373" y="-110" type="line"/>
      <point x="373" y="18" type="line"/>
      <point x="166" y="18" type="line"/>
      <point x="166" y="824" type="line"/>
      <point x="30" y="824" type="line"/>
    </contour>
  </outline>
</glyph>
<glyph name="rightFloor" format="2">
  <advance width="404"/>
  <unicode hex="230B"/>
  <note>
uni230B
</note>
  <outline>
    <contour>
      <point x="30" y="-110" type="line"/>
      <point x="373" y="-110" type="line"/>
      <point x="373" y="824" type="line"/>
      <point x="238" y="824" type="line"/>
      <point x="238" y="18" type="line"/>
      <point x="30" y="18" type="line"/>
    </contour>
  </outline>
</glyph>
<glyph name="bottomRightCrop" format="2">
  <advance width="522"/>
  <unicode hex="230C"/>
  <note>
uni230C
</note>
  <outline>
    <contour>
      <point x="213" y="0" type="line"/>
      <point x="450" y="0" type="line"/>
      <point x="450" y="134" type="line"/>
      <point x="213" y="134" type="line"/>
    </contour>
    <contour>
      <point x="72" y="-268" type="line"/>
      <point x="206" y="-268" type="line"/>
      <point x="206" y="-32" type="line"/>
      <point x="72" y="-32" type="line"/>
    </contour>
  </outline>
</glyph>
<glyph name="bottomLeftCrop" format="2">
  <advance width="482"/>
  <unicode hex="230D"/>
  <note>
uni230D
</note>
  <outline>
    <contour>
      <point x="52" y="0" type="line"/>
      <point x="289" y="0" type="line"/>
      <point x="289" y="134" type="line"/>
      <point x="52" y="134" type="line"/>
    </contour>
    <contour>
      <point x="296" y="-268" type="line"/>
      <point x="430" y="-268" type="line"/>
      <point x="430" y="-32" type="line"/>
      <point x="296" y="-32" type="line"/>
    </contour>
  </outline>
</glyph>
<glyph name="topRightCrop" format="2">
  <advance width="522"/>
  <unicode hex="230E"/>
  <note>
uni230E
</note>
  <outline>
    <contour>
      <point x="72" y="746" type="line"/>
      <point x="206" y="746" type="line"/>
      <point x="206" y="982" type="line"/>
      <point x="72" y="982" type="line"/>
    </contour>
    <contour>
      <point x="213" y="580" type="line"/>
      <point x="450" y="580" type="line"/>
      <point x="450" y="714" type="line"/>
      <point x="213" y="714" type="line"/>
    </contour>
  </outline>
</glyph>
<glyph name="topLeftCrop" format="2">
  <advance width="522"/>
  <unicode hex="230F"/>
  <note>
uni230F
</note>
  <outline>
    <contour>
      <point x="316" y="746" type="line"/>
      <point x="450" y="746" type="line"/>
      <point x="450" y="982" type="line"/>
      <point x="316" y="982" type="line"/>
    </contour>
    <contour>
      <point x="72" y="580" type="line"/>
      <point x="309" y="580" type="line"/>
      <point x="309" y="714" type="line"/>
      <point x="72" y="714" type="line"/>
    </contour>
  </outline>
</glyph>
<glyph name="squareLozenge" format="2">
  <advance width="516"/>
  <unicode hex="2311"/>
  <note>
uni2311
</note>
  <outline>
    <contour>
      <point x="18" y="98" type="curve"/>
      <point x="106" y="146"/>
      <point x="186" y="169"/>
      <point x="258" y="169" type="curve" smooth="yes"/>
      <point x="330" y="169"/>
      <point x="409" y="146"/>
      <point x="498" y="98" type="curve"/>
      <point x="472" y="154"/>
      <point x="443" y="273"/>
      <point x="443" y="355" type="curve" smooth="yes"/>
      <point x="443" y="434"/>
      <point x="470" y="552"/>
      <point x="498" y="612" type="curve"/>
      <point x="420" y="567"/>
      <point x="332" y="541"/>
      <point x="258" y="541" type="curve" smooth="yes"/>
      <point x="184" y="541"/>
      <point x="98" y="566"/>
      <point x="18" y="612" type="curve"/>
      <point x="47" y="546"/>
      <point x="73" y="434"/>
      <point x="73" y="355" type="curve" smooth="yes"/>
      <point x="73" y="274"/>
      <point x="45" y="157"/>
    </contour>
    <contour>
      <point x="193" y="289" type="curve"/>
      <point x="200" y="303"/>
      <point x="204" y="329"/>
      <point x="204" y="355" type="curve" smooth="yes"/>
      <point x="204" y="382"/>
      <point x="200" y="407"/>
      <point x="193" y="421" type="curve"/>
      <point x="206" y="415"/>
      <point x="231" y="409"/>
      <point x="258" y="409" type="curve" smooth="yes"/>
      <point x="285" y="409"/>
      <point x="310" y="415"/>
      <point x="323" y="421" type="curve"/>
      <point x="318" y="410"/>
      <point x="312" y="383"/>
      <point x="312" y="355" type="curve" smooth="yes"/>
      <point x="312" y="329"/>
      <point x="317" y="300"/>
      <point x="323" y="289" type="curve"/>
      <point x="310" y="295"/>
      <point x="285" y="301"/>
      <point x="258" y="301" type="curve" smooth="yes"/>
      <point x="231" y="301"/>
      <point x="206" y="295"/>
    </contour>
  </outline>
</glyph>
<glyph name="arc" format="2">
  <advance width="844"/>
  <unicode hex="2312"/>
  <note>
uni2312
</note>
  <outline>
    <contour>
      <point x="52" y="101" type="curve"/>
      <point x="187" y="101" type="line"/>
      <point x="187" y="259"/>
      <point x="271" y="372"/>
      <point x="422" y="372" type="curve" smooth="yes"/>
      <point x="569" y="372"/>
      <point x="658" y="253"/>
      <point x="658" y="101" type="curve"/>
      <point x="792" y="101" type="line"/>
      <point x="792" y="334"/>
      <point x="648" y="506"/>
      <point x="422" y="506" type="curve" smooth="yes"/>
      <point x="203" y="506"/>
      <point x="52" y="329"/>
    </contour>
  </outline>
</glyph>
<glyph name="segment" format="2">
  <advance width="844"/>
  <unicode hex="2313"/>
  <note>
uni2313
</note>
  <outline>
    <contour>
      <point x="52" y="101" type="curve"/>
      <point x="792" y="101" type="line"/>
      <point x="792" y="334"/>
      <point x="648" y="506"/>
      <point x="422" y="506" type="curve" smooth="yes"/>
      <point x="203" y="506"/>
      <point x="52" y="329"/>
    </contour>
    <contour>
      <point x="205" y="228" type="line"/>
      <point x="242" y="312"/>
      <point x="327" y="372"/>
      <point x="422" y="372" type="curve" smooth="yes"/>
      <point x="516" y="372"/>
      <point x="602" y="312"/>
      <point x="638" y="228" type="curve"/>
    </contour>
  </outline>
</glyph>
<glyph name="sector" format="2">
  <advance width="564"/>
  <unicode hex="2314"/>
  <note>
uni2314
</note>
  <outline>
    <contour>
      <point x="282" y="75" type="line"/>
      <point x="567" y="367" type="line"/>
      <point x="502" y="453"/>
      <point x="402" y="506"/>
      <point x="282" y="506" type="curve" smooth="yes"/>
      <point x="162" y="506"/>
      <point x="62" y="453"/>
      <point x="-3" y="367" type="curve"/>
    </contour>
    <contour>
      <point x="282" y="255" type="line"/>
      <point x="187" y="355" type="line"/>
      <point x="215" y="366"/>
      <point x="247" y="372"/>
      <point x="282" y="372" type="curve" smooth="yes"/>
      <point x="317" y="372"/>
      <point x="349" y="366"/>
      <point x="377" y="355" type="curve"/>
    </contour>
  </outline>
</glyph>
<glyph name="telephoneRecorder" format="2">
  <advance width="634"/>
  <unicode hex="2315"/>
  <note>
uni2315
</note>
  <outline>
    <contour>
      <point x="108" y="14" type="line"/>
      <point x="236" y="140" type="line"/>
      <point x="272" y="120"/>
      <point x="311" y="110"/>
      <point x="354" y="110" type="curve" smooth="yes"/>
      <point x="488" y="110"/>
      <point x="599" y="221"/>
      <point x="599" y="354" type="curve" smooth="yes"/>
      <point x="599" y="488"/>
      <point x="488" y="599"/>
      <point x="354" y="599" type="curve" smooth="yes"/>
      <point x="220" y="599"/>
      <point x="110" y="488"/>
      <point x="110" y="354" type="curve" smooth="yes"/>
      <point x="110" y="306"/>
      <point x="122" y="263"/>
      <point x="147" y="224" type="curve"/>
      <point x="25" y="103" type="line"/>
    </contour>
    <contour>
      <point x="354" y="237" type="curve" smooth="yes"/>
      <point x="289" y="237"/>
      <point x="237" y="289"/>
      <point x="237" y="354" type="curve" smooth="yes"/>
      <point x="237" y="419"/>
      <point x="289" y="471"/>
      <point x="354" y="471" type="curve" smooth="yes"/>
      <point x="419" y="471"/>
      <point x="471" y="419"/>
      <point x="471" y="354" type="curve" smooth="yes"/>
      <point x="471" y="288"/>
      <point x="418" y="237"/>
    </contour>
  </outline>
</glyph>
<glyph name="viewdataSquare" format="2">
  <advance width="823"/>
  <unicode hex="2317"/>
  <note>
uni2317
</note>
  <outline>
    <contour>
      <point x="51" y="92" type="line"/>
      <point x="772" y="92" type="line"/>
      <point x="772" y="225" type="line"/>
      <point x="51" y="225" type="line"/>
    </contour>
    <contour>
      <point x="51" y="490" type="line"/>
      <point x="772" y="490" type="line"/>
      <point x="772" y="622" type="line"/>
      <point x="51" y="622" type="line"/>
    </contour>
    <contour>
      <point x="147" y="-2" type="line"/>
      <point x="279" y="-2" type="line"/>
      <point x="279" y="717" type="line"/>
      <point x="147" y="717" type="line"/>
    </contour>
    <contour>
      <point x="544" y="-2" type="line"/>
      <point x="677" y="-2" type="line"/>
      <point x="677" y="717" type="line"/>
      <point x="544" y="717" type="line"/>
    </contour>
  </outline>
</glyph>
<glyph name="topLeftCorner" format="2">
  <advance width="442"/>
  <unicode hex="231C"/>
  <note>
uni231C
</note>
  <outline>
    <contour>
      <point x="32" y="312" type="line"/>
      <point x="167" y="312" type="line"/>
      <point x="167" y="580" type="line"/>
      <point x="409" y="580" type="line"/>
      <point x="409" y="714" type="line"/>
      <point x="32" y="714" type="line"/>
    </contour>
  </outline>
</glyph>
<glyph name="topRightcorner" format="2">
  <advance width="442"/>
  <unicode hex="231D"/>
  <note>
uni231D
</note>
  <outline>
    <contour>
      <point x="275" y="312" type="line"/>
      <point x="409" y="312" type="line"/>
      <point x="409" y="714" type="line"/>
      <point x="32" y="714" type="line"/>
      <point x="32" y="580" type="line"/>
      <point x="275" y="580" type="line"/>
    </contour>
  </outline>
</glyph>
<glyph name="bottomLeftCorner" format="2">
  <advance width="442"/>
  <unicode hex="231E"/>
  <note>
uni231E
</note>
  <outline>
    <contour>
      <point x="32" y="0" type="line"/>
      <point x="409" y="0" type="line"/>
      <point x="409" y="134" type="line"/>
      <point x="167" y="134" type="line"/>
      <point x="167" y="402" type="line"/>
      <point x="32" y="402" type="line"/>
    </contour>
  </outline>
</glyph>
<glyph name="bottomRightCorner" format="2">
  <advance width="442"/>
  <unicode hex="231F"/>
  <note>
uni231F
</note>
  <outline>
    <contour>
      <point x="32" y="0" type="line"/>
      <point x="409" y="0" type="line"/>
      <point x="409" y="402" type="line"/>
      <point x="275" y="402" type="line"/>
      <point x="275" y="134" type="line"/>
      <point x="32" y="134" type="line"/>
    </contour>
  </outline>
</glyph>
<glyph name="frown" format="2">
  <advance width="951"/>
  <unicode hex="2322"/>
  <note>
uni2322
</note>
  <outline>
    <contour>
      <point x="21" y="158" type="curve"/>
      <point x="192" y="158" type="line"/>
      <point x="272" y="238"/>
      <point x="374" y="281"/>
      <point x="476" y="281" type="curve" smooth="yes"/>
      <point x="577" y="281"/>
      <point x="679" y="238"/>
      <point x="759" y="158" type="curve"/>
      <point x="931" y="158" type="line"/>
      <point x="805" y="318"/>
      <point x="638" y="415"/>
      <point x="476" y="415" type="curve" smooth="yes"/>
      <point x="314" y="415"/>
      <point x="146" y="318"/>
    </contour>
  </outline>
</glyph>
<glyph name="smile" format="2">
  <advance width="951"/>
  <unicode hex="2323"/>
  <note>
uni2323
</note>
  <outline>
    <contour>
      <point x="476" y="98" type="curve" smooth="yes"/>
      <point x="637" y="98"/>
      <point x="804" y="193"/>
      <point x="930" y="355" type="curve"/>
      <point x="759" y="355" type="line"/>
      <point x="682" y="278"/>
      <point x="581" y="233"/>
      <point x="476" y="233" type="curve" smooth="yes"/>
      <point x="370" y="233"/>
      <point x="268" y="278"/>
      <point x="192" y="355" type="curve"/>
      <point x="21" y="355" type="line"/>
      <point x="147" y="193"/>
      <point x="314" y="98"/>
    </contour>
  </outline>
</glyph>
<glyph name="angleLeft" format="2">
  <advance width="292"/>
  <unicode hex="2329"/>
  <note>
angleleft
</note>
  <outline>
    <contour>
      <point x="141" y="-200" type="line"/>
      <point x="282" y="-200" type="line"/>
      <point x="144" y="277" type="line"/>
      <point x="282" y="754" type="line"/>
      <point x="141" y="754" type="line"/>
      <point x="2" y="277" type="line"/>
    </contour>
  </outline>
</glyph>
<glyph name="angleRight" format="2">
  <advance width="292"/>
  <unicode hex="232A"/>
  <note>
angleright
</note>
  <outline>
    <contour>
      <point x="10" y="-200" type="line"/>
      <point x="151" y="-200" type="line"/>
      <point x="290" y="277" type="line"/>
      <point x="151" y="754" type="line"/>
      <point x="10" y="754" type="line"/>
      <point x="148" y="277" type="line"/>
    </contour>
  </outline>
</glyph>
<glyph name="benzenering" format="2">
  <advance width="788"/>
  <unicode hex="232C"/>
  <note>
uni232C
</note>
  <outline>
    <contour>
      <point x="394" y="-5" type="line"/>
      <point x="738" y="165" type="line"/>
      <point x="738" y="607" type="line"/>
      <point x="394" y="776" type="line"/>
      <point x="49" y="607" type="line"/>
      <point x="49" y="165" type="line"/>
    </contour>
    <contour>
      <point x="222" y="255" type="line"/>
      <point x="303" y="255" type="line"/>
      <point x="303" y="516" type="line"/>
      <point x="222" y="516" type="line"/>
    </contour>
    <contour>
      <point x="391" y="182" type="line"/>
      <point x="585" y="278" type="line"/>
      <point x="548" y="352" type="line"/>
      <point x="354" y="255" type="line"/>
    </contour>
    <contour>
      <point x="394" y="141" type="line"/>
      <point x="182" y="245" type="line"/>
      <point x="182" y="527" type="line"/>
      <point x="394" y="631" type="line"/>
      <point x="607" y="526" type="line"/>
      <point x="607" y="245" type="line"/>
    </contour>
    <contour>
      <point x="548" y="421" type="line"/>
      <point x="585" y="494" type="line"/>
      <point x="391" y="590" type="line"/>
      <point x="354" y="517" type="line"/>
    </contour>
  </outline>
</glyph>
<glyph name="cylindricity" format="2">
  <advance width="925"/>
  <unicode hex="232D"/>
  <note>
uni232D
</note>
  <outline>
    <contour>
      <point x="114" y="0" type="line"/>
      <point x="263" y="255" type="line"/>
      <point x="287" y="182"/>
      <point x="366" y="132"/>
      <point x="443" y="132" type="curve" smooth="yes"/>
      <point x="457" y="132"/>
      <point x="468" y="134"/>
      <point x="475" y="135" type="curve"/>
      <point x="432" y="62" type="line"/>
      <point x="547" y="-5" type="line"/>
      <point x="926" y="643" type="line"/>
      <point x="810" y="709" type="line"/>
      <point x="657" y="451" type="line"/>
      <point x="638" y="519"/>
      <point x="568" y="577"/>
      <point x="489" y="577" type="curve" smooth="yes"/>
      <point x="467" y="577"/>
      <point x="453" y="573"/>
      <point x="446" y="569" type="curve"/>
      <point x="494" y="648" type="line"/>
      <point x="377" y="714" type="line"/>
      <point x="-1" y="67" type="line"/>
    </contour>
    <contour>
      <point x="461" y="262" type="curve" smooth="yes"/>
      <point x="410" y="262"/>
      <point x="368" y="304"/>
      <point x="368" y="356" type="curve" smooth="yes"/>
      <point x="368" y="408"/>
      <point x="411" y="450"/>
      <point x="461" y="450" type="curve" smooth="yes"/>
      <point x="513" y="450"/>
      <point x="555" y="407"/>
      <point x="555" y="356" type="curve" smooth="yes"/>
      <point x="555" y="305"/>
      <point x="514" y="262"/>
    </contour>
  </outline>
</glyph>
<glyph name="allAroundProfile" format="2">
  <advance width="710"/>
  <unicode hex="232E"/>
  <note>
uni232E
</note>
  <outline>
    <contour>
      <point x="314" y="41" type="line"/>
      <point x="217" y="136" type="line"/>
      <point x="228" y="146" type="line"/>
      <point x="261" y="129"/>
      <point x="300" y="118"/>
      <point x="339" y="118" type="curve" smooth="yes"/>
      <point x="446" y="118"/>
      <point x="540" y="194"/>
      <point x="564" y="296" type="curve"/>
      <point x="667" y="296" type="line"/>
      <point x="667" y="405" type="line"/>
      <point x="564" y="405" type="line"/>
      <point x="539" y="506"/>
      <point x="447" y="582"/>
      <point x="339" y="582" type="curve" smooth="yes"/>
      <point x="212" y="582"/>
      <point x="107" y="477"/>
      <point x="107" y="350" type="curve" smooth="yes"/>
      <point x="107" y="301"/>
      <point x="121" y="258"/>
      <point x="146" y="220" type="curve"/>
      <point x="139" y="212" type="line"/>
      <point x="43" y="304" type="line"/>
      <point x="57" y="51" type="line"/>
    </contour>
    <contour>
      <point x="339" y="234" type="curve" smooth="yes"/>
      <point x="331" y="234"/>
      <point x="323" y="234"/>
      <point x="315" y="236" type="curve"/>
      <point x="375" y="296" type="line"/>
      <point x="442" y="296" type="line"/>
      <point x="423" y="258"/>
      <point x="384" y="234"/>
    </contour>
    <contour>
      <point x="231" y="305" type="line"/>
      <point x="226" y="319"/>
      <point x="223" y="334"/>
      <point x="223" y="350" type="curve" smooth="yes"/>
      <point x="223" y="413"/>
      <point x="274" y="466"/>
      <point x="339" y="466" type="curve" smooth="yes"/>
      <point x="380" y="466"/>
      <point x="421" y="438"/>
      <point x="442" y="405" type="curve"/>
      <point x="330" y="405" type="line"/>
    </contour>
  </outline>
</glyph>
<glyph name="symmetry" format="2">
  <advance width="572"/>
  <unicode hex="232F"/>
  <note>
uni232F
</note>
  <outline>
    <contour>
      <point x="39" y="286" type="line"/>
      <point x="534" y="286" type="line"/>
      <point x="534" y="420" type="line"/>
      <point x="39" y="420" type="line"/>
    </contour>
    <contour>
      <point x="120" y="110" type="line"/>
      <point x="453" y="110" type="line"/>
      <point x="453" y="245" type="line"/>
      <point x="120" y="245" type="line"/>
    </contour>
    <contour>
      <point x="120" y="461" type="line"/>
      <point x="453" y="461" type="line"/>
      <point x="453" y="595" type="line"/>
      <point x="120" y="595" type="line"/>
    </contour>
  </outline>
</glyph>
<glyph name="totalRunout" format="2">
  <advance width="809"/>
  <unicode hex="2330"/>
  <note>
uni2330
</note>
  <outline>
    <contour>
      <point x="22" y="0" type="line"/>
      <point x="501" y="0" type="line"/>
      <point x="662" y="538" type="line"/>
      <point x="786" y="495" type="line"/>
      <point x="653" y="719" type="line"/>
      <point x="408" y="624" type="line"/>
      <point x="535" y="582" type="line"/>
      <point x="403" y="134" type="line"/>
      <point x="202" y="134" type="line"/>
      <point x="322" y="538" type="line"/>
      <point x="444" y="498" type="line"/>
      <point x="312" y="719" type="line"/>
      <point x="67" y="624" type="line"/>
      <point x="194" y="582" type="line"/>
    </contour>
  </outline>
</glyph>
<glyph name="dimensionOrigin" format="2">
  <advance width="810"/>
  <unicode hex="2331"/>
  <note>
uni2331
</note>
  <outline>
    <contour>
      <point x="276" y="119" type="curve" smooth="yes"/>
      <point x="404" y="119"/>
      <point x="508" y="223"/>
      <point x="508" y="351" type="curve" smooth="yes"/>
      <point x="508" y="479"/>
      <point x="404" y="583"/>
      <point x="276" y="583" type="curve" smooth="yes"/>
      <point x="148" y="583"/>
      <point x="44" y="479"/>
      <point x="44" y="351" type="curve" smooth="yes"/>
      <point x="44" y="223"/>
      <point x="148" y="119"/>
    </contour>
    <contour>
      <point x="276" y="224" type="curve" smooth="yes"/>
      <point x="205" y="224"/>
      <point x="149" y="280"/>
      <point x="149" y="351" type="curve" smooth="yes"/>
      <point x="149" y="422"/>
      <point x="205" y="478"/>
      <point x="276" y="478" type="curve" smooth="yes"/>
      <point x="347" y="478"/>
      <point x="403" y="422"/>
      <point x="403" y="351" type="curve" smooth="yes"/>
      <point x="403" y="278"/>
      <point x="347" y="224"/>
    </contour>
    <contour>
      <point x="221" y="0" type="line"/>
      <point x="331" y="0" type="line"/>
      <point x="331" y="714" type="line"/>
      <point x="221" y="714" type="line"/>
    </contour>
    <contour>
      <point x="280" y="297" type="line"/>
      <point x="610" y="297" type="line"/>
      <point x="610" y="405" type="line"/>
      <point x="280" y="405" type="line"/>
    </contour>
    <contour>
      <point x="594" y="161" type="line"/>
      <point x="766" y="351" type="line"/>
      <point x="594" y="541" type="line"/>
    </contour>
  </outline>
</glyph>
<glyph name="conicalTaper" format="2">
  <advance width="872"/>
  <unicode hex="2332"/>
  <note>
uni2332
</note>
  <outline>
    <contour>
      <point x="54" y="-58" type="line"/>
      <point x="818" y="266" type="line"/>
      <point x="818" y="341" type="line"/>
      <point x="54" y="666" type="line"/>
    </contour>
    <contour>
      <point x="188" y="138" type="line"/>
      <point x="188" y="243" type="line"/>
      <point x="471" y="243" type="line"/>
    </contour>
    <contour>
      <point x="188" y="366" type="line"/>
      <point x="188" y="469" type="line"/>
      <point x="470" y="366" type="line"/>
    </contour>
  </outline>
</glyph>
<glyph name="slope" format="2">
  <advance width="872"/>
  <unicode hex="2333"/>
  <note>
uni2333
</note>
  <outline>
    <contour>
      <point x="54" y="238" type="line"/>
      <point x="818" y="238" type="line"/>
      <point x="818" y="313" type="line"/>
      <point x="54" y="667" type="line"/>
    </contour>
    <contour>
      <point x="188" y="359" type="line"/>
      <point x="188" y="467" type="line"/>
      <point x="463" y="359" type="line"/>
    </contour>
  </outline>
</glyph>
<glyph name="counterbore" format="2">
  <advance width="715"/>
  <unicode hex="2334"/>
  <note>
uni2334
</note>
  <outline>
    <contour>
      <point x="46" y="0" type="line"/>
      <point x="669" y="0" type="line"/>
      <point x="669" y="390" type="line"/>
      <point x="533" y="390" type="line"/>
      <point x="533" y="134" type="line"/>
      <point x="181" y="134" type="line"/>
      <point x="181" y="390" type="line"/>
      <point x="46" y="390" type="line"/>
    </contour>
  </outline>
</glyph>
<glyph name="countersink" format="2">
  <advance width="976"/>
  <unicode hex="2335"/>
  <note>
uni2335
</note>
  <outline>
    <contour>
      <point x="488" y="-31" type="line"/>
      <point x="972" y="390" type="line"/>
      <point x="764" y="390" type="line"/>
      <point x="488" y="146" type="line"/>
      <point x="212" y="390" type="line"/>
      <point x="4" y="390" type="line"/>
    </contour>
  </outline>
</glyph>
<glyph name="rightangledownzigzagArrow" format="2">
  <advance width="943"/>
  <unicode hex="237C"/>
  <note>
uni237C
</note>
  <outline>
    <contour>
      <point x="379" y="-148" type="line"/>
      <point x="266" y="-41" type="line"/>
      <point x="316" y="0" type="line"/>
      <point x="888" y="0" type="line"/>
      <point x="888" y="134" type="line"/>
      <point x="461" y="134" type="line"/>
      <point x="481" y="164"/>
      <point x="493" y="197"/>
      <point x="493" y="231" type="curve" smooth="yes"/>
      <point x="493" y="312"/>
      <point x="439" y="354"/>
      <point x="348" y="391" type="curve"/>
      <point x="348" y="591" type="line"/>
      <point x="452" y="661" type="line"/>
      <point x="381" y="768" type="line"/>
      <point x="302" y="713" type="line"/>
      <point x="302" y="714" type="line"/>
      <point x="214" y="714" type="line"/>
      <point x="214" y="653" type="line"/>
      <point x="131" y="595"/>
      <point x="70" y="543"/>
      <point x="70" y="471" type="curve" smooth="yes"/>
      <point x="70" y="403"/>
      <point x="112" y="348"/>
      <point x="214" y="303" type="curve"/>
      <point x="214" y="79" type="line"/>
      <point x="185" y="57" type="line"/>
      <point x="103" y="199" type="line"/>
      <point x="54" y="-127" type="line"/>
    </contour>
    <contour>
      <point x="348" y="203" type="curve"/>
      <point x="348" y="246" type="line"/>
      <point x="355" y="241"/>
      <point x="358" y="236"/>
      <point x="358" y="231" type="curve" smooth="yes"/>
      <point x="358" y="223"/>
      <point x="354" y="212"/>
    </contour>
    <contour>
      <point x="214" y="449" type="line"/>
      <point x="206" y="457"/>
      <point x="204" y="463"/>
      <point x="204" y="471" type="curve" smooth="yes"/>
      <point x="204" y="477"/>
      <point x="208" y="484"/>
      <point x="214" y="493" type="curve"/>
    </contour>
  </outline>
</glyph>
<glyph name="insertionsymbol" format="2">
  <advance width="812"/>
  <unicode hex="2380"/>
  <note>
uni2380
</note>
  <outline>
    <contour>
      <point x="406" y="-48" type="line"/>
      <point x="804" y="406" type="line"/>
      <point x="627" y="406" type="line"/>
      <point x="406" y="155" type="line"/>
      <point x="185" y="406" type="line"/>
      <point x="8" y="406" type="line"/>
    </contour>
    <contour>
      <point x="387" y="426" type="curve" smooth="yes"/>
      <point x="366" y="426"/>
      <point x="353" y="436"/>
      <point x="353" y="460" type="curve" smooth="yes"/>
      <point x="353" y="485"/>
      <point x="368" y="499"/>
      <point x="413" y="501" type="curve" smooth="yes"/>
      <point x="440" y="502" type="line"/>
      <point x="440" y="475" type="line"/>
      <point x="440" y="446"/>
      <point x="417" y="426"/>
    </contour>
    <contour>
      <point x="336" y="340" type="curve" smooth="yes"/>
      <point x="395" y="340"/>
      <point x="421" y="355"/>
      <point x="451" y="393" type="curve"/>
      <point x="454" y="393" type="line"/>
      <point x="477" y="347" type="line"/>
      <point x="560" y="347" type="line"/>
      <point x="560" y="575" type="line" smooth="yes"/>
      <point x="560" y="656"/>
      <point x="507" y="701"/>
      <point x="419" y="701" type="curve" smooth="yes"/>
      <point x="356" y="701"/>
      <point x="306" y="690"/>
      <point x="266" y="669" type="curve"/>
      <point x="301" y="591" type="line"/>
      <point x="334" y="605"/>
      <point x="370" y="616"/>
      <point x="397" y="616" type="curve" smooth="yes"/>
      <point x="423" y="616"/>
      <point x="440" y="604"/>
      <point x="440" y="573" type="curve" smooth="yes"/>
      <point x="440" y="568" type="line"/>
      <point x="381" y="566" type="line" smooth="yes"/>
      <point x="284" y="563"/>
      <point x="230" y="527"/>
      <point x="230" y="453" type="curve" smooth="yes"/>
      <point x="230" y="377"/>
      <point x="276" y="340"/>
    </contour>
  </outline>
</glyph>
<glyph name="continuousunderlinesymbol" format="2">
  <advance width="812"/>
  <unicode hex="2381"/>
  <note>
uni2381
</note>
  <outline>
    <contour>
      <point x="137" y="316" type="curve" smooth="yes"/>
      <point x="195" y="316"/>
      <point x="222" y="331"/>
      <point x="251" y="369" type="curve"/>
      <point x="254" y="369" type="line"/>
      <point x="278" y="322" type="line"/>
      <point x="361" y="322" type="line"/>
      <point x="361" y="551" type="line" smooth="yes"/>
      <point x="361" y="631"/>
      <point x="308" y="677"/>
      <point x="220" y="677" type="curve" smooth="yes"/>
      <point x="157" y="677"/>
      <point x="106" y="666"/>
      <point x="66" y="645" type="curve"/>
      <point x="102" y="566" type="line"/>
      <point x="135" y="581"/>
      <point x="170" y="591"/>
      <point x="198" y="591" type="curve" smooth="yes"/>
      <point x="224" y="591"/>
      <point x="241" y="580"/>
      <point x="241" y="549" type="curve" smooth="yes"/>
      <point x="241" y="544" type="line"/>
      <point x="182" y="542" type="line" smooth="yes"/>
      <point x="84" y="539"/>
      <point x="31" y="503"/>
      <point x="31" y="428" type="curve" smooth="yes"/>
      <point x="31" y="353"/>
      <point x="77" y="316"/>
    </contour>
    <contour>
      <point x="34" y="149" type="line"/>
      <point x="775" y="149" type="line"/>
      <point x="775" y="283" type="line"/>
      <point x="34" y="283" type="line"/>
    </contour>
    <contour>
      <point x="188" y="401" type="curve" smooth="yes"/>
      <point x="167" y="401"/>
      <point x="153" y="412"/>
      <point x="153" y="436" type="curve" smooth="yes"/>
      <point x="153" y="461"/>
      <point x="169" y="475"/>
      <point x="213" y="477" type="curve" smooth="yes"/>
      <point x="241" y="478" type="line"/>
      <point x="241" y="451" type="line"/>
      <point x="241" y="421"/>
      <point x="217" y="401"/>
    </contour>
    <contour>
      <point x="450" y="315" type="curve" smooth="yes"/>
      <point x="483" y="315"/>
      <point x="509" y="341"/>
      <point x="509" y="373" type="curve" smooth="yes"/>
      <point x="509" y="406"/>
      <point x="483" y="431"/>
      <point x="450" y="431" type="curve" smooth="yes"/>
      <point x="418" y="431"/>
      <point x="393" y="406"/>
      <point x="393" y="373" type="curve" smooth="yes"/>
      <point x="393" y="341"/>
      <point x="418" y="315"/>
    </contour>
    <contour>
      <point x="587" y="315" type="curve" smooth="yes"/>
      <point x="620" y="315"/>
      <point x="645" y="341"/>
      <point x="645" y="373" type="curve" smooth="yes"/>
      <point x="645" y="406"/>
      <point x="620" y="431"/>
      <point x="587" y="431" type="curve" smooth="yes"/>
      <point x="555" y="431"/>
      <point x="529" y="406"/>
      <point x="529" y="373" type="curve" smooth="yes"/>
      <point x="529" y="341"/>
      <point x="555" y="315"/>
    </contour>
    <contour>
      <point x="723" y="315" type="curve" smooth="yes"/>
      <point x="756" y="315"/>
      <point x="781" y="341"/>
      <point x="781" y="373" type="curve" smooth="yes"/>
      <point x="781" y="406"/>
      <point x="756" y="431"/>
      <point x="723" y="431" type="curve" smooth="yes"/>
      <point x="690" y="431"/>
      <point x="666" y="406"/>
      <point x="666" y="373" type="curve" smooth="yes"/>
      <point x="666" y="341"/>
      <point x="690" y="315"/>
    </contour>
  </outline>
</glyph>
<glyph name="discontinuousunderlinesymbol" format="2">
  <advance width="812"/>
  <unicode hex="2382"/>
  <note>
uni2382
</note>
  <outline>
    <contour>
      <point x="538" y="345" type="curve" smooth="yes"/>
      <point x="596" y="345"/>
      <point x="622" y="360"/>
      <point x="652" y="398" type="curve"/>
      <point x="655" y="398" type="line"/>
      <point x="678" y="352" type="line"/>
      <point x="761" y="352" type="line"/>
      <point x="761" y="580" type="line" smooth="yes"/>
      <point x="761" y="661"/>
      <point x="708" y="706"/>
      <point x="621" y="706" type="curve" smooth="yes"/>
      <point x="558" y="706"/>
      <point x="507" y="695"/>
      <point x="467" y="674" type="curve"/>
      <point x="502" y="596" type="line"/>
      <point x="536" y="610"/>
      <point x="571" y="621"/>
      <point x="599" y="621" type="curve" smooth="yes"/>
      <point x="624" y="621"/>
      <point x="641" y="609"/>
      <point x="641" y="578" type="curve" smooth="yes"/>
      <point x="641" y="573" type="line"/>
      <point x="583" y="571" type="line" smooth="yes"/>
      <point x="485" y="568"/>
      <point x="432" y="532"/>
      <point x="432" y="458" type="curve" smooth="yes"/>
      <point x="432" y="382"/>
      <point x="477" y="345"/>
    </contour>
    <contour>
      <point x="50" y="183" type="line"/>
      <point x="379" y="183" type="line"/>
      <point x="379" y="317" type="line"/>
      <point x="50" y="317" type="line"/>
    </contour>
    <contour>
      <point x="203" y="431" type="curve" smooth="yes"/>
      <point x="182" y="431"/>
      <point x="168" y="441"/>
      <point x="168" y="465" type="curve" smooth="yes"/>
      <point x="168" y="490"/>
      <point x="184" y="504"/>
      <point x="228" y="506" type="curve" smooth="yes"/>
      <point x="256" y="507" type="line"/>
      <point x="256" y="480" type="line"/>
      <point x="256" y="451"/>
      <point x="232" y="431"/>
    </contour>
    <contour>
      <point x="152" y="345" type="curve" smooth="yes"/>
      <point x="210" y="345"/>
      <point x="236" y="360"/>
      <point x="266" y="398" type="curve"/>
      <point x="269" y="398" type="line"/>
      <point x="292" y="352" type="line"/>
      <point x="375" y="352" type="line"/>
      <point x="375" y="580" type="line" smooth="yes"/>
      <point x="375" y="661"/>
      <point x="323" y="706"/>
      <point x="235" y="706" type="curve" smooth="yes"/>
      <point x="172" y="706"/>
      <point x="121" y="695"/>
      <point x="81" y="674" type="curve"/>
      <point x="116" y="596" type="line"/>
      <point x="150" y="610"/>
      <point x="185" y="621"/>
      <point x="213" y="621" type="curve" smooth="yes"/>
      <point x="238" y="621"/>
      <point x="255" y="609"/>
      <point x="255" y="578" type="curve" smooth="yes"/>
      <point x="255" y="573" type="line"/>
      <point x="197" y="571" type="line" smooth="yes"/>
      <point x="99" y="568"/>
      <point x="46" y="532"/>
      <point x="46" y="458" type="curve" smooth="yes"/>
      <point x="46" y="382"/>
      <point x="91" y="345"/>
    </contour>
    <contour>
      <point x="438" y="183" type="line"/>
      <point x="767" y="183" type="line"/>
      <point x="767" y="317" type="line"/>
      <point x="438" y="317" type="line"/>
    </contour>
    <contour>
      <point x="588" y="431" type="curve" smooth="yes"/>
      <point x="567" y="431"/>
      <point x="554" y="441"/>
      <point x="554" y="465" type="curve" smooth="yes"/>
      <point x="554" y="490"/>
      <point x="569" y="504"/>
      <point x="614" y="506" type="curve" smooth="yes"/>
      <point x="642" y="507" type="line"/>
      <point x="642" y="480" type="line"/>
      <point x="642" y="451"/>
      <point x="618" y="431"/>
    </contour>
  </outline>
</glyph>
<glyph name="emphasissymbol" format="2">
  <advance width="812"/>
  <unicode hex="2383"/>
  <note>
uni2383
</note>
  <outline>
    <contour>
      <point x="344" y="179" type="curve" smooth="yes"/>
      <point x="402" y="179"/>
      <point x="428" y="194"/>
      <point x="458" y="232" type="curve"/>
      <point x="461" y="232" type="line"/>
      <point x="484" y="186" type="line"/>
      <point x="567" y="186" type="line"/>
      <point x="567" y="414" type="line" smooth="yes"/>
      <point x="567" y="495"/>
      <point x="515" y="540"/>
      <point x="427" y="540" type="curve" smooth="yes"/>
      <point x="364" y="540"/>
      <point x="313" y="529"/>
      <point x="273" y="508" type="curve"/>
      <point x="308" y="430" type="line"/>
      <point x="342" y="444"/>
      <point x="377" y="455"/>
      <point x="405" y="455" type="curve" smooth="yes"/>
      <point x="430" y="455"/>
      <point x="447" y="443"/>
      <point x="447" y="412" type="curve" smooth="yes"/>
      <point x="447" y="407" type="line"/>
      <point x="389" y="405" type="line" smooth="yes"/>
      <point x="291" y="402"/>
      <point x="238" y="366"/>
      <point x="238" y="292" type="curve" smooth="yes"/>
      <point x="238" y="216"/>
      <point x="283" y="179"/>
    </contour>
    <contour>
      <point x="53" y="121" type="line"/>
      <point x="208" y="184" type="line"/>
      <point x="208" y="293" type="line"/>
      <point x="11" y="218" type="line"/>
    </contour>
    <contour>
      <point x="10" y="302" type="line"/>
      <point x="208" y="302" type="line"/>
      <point x="208" y="407" type="line"/>
      <point x="10" y="407" type="line"/>
    </contour>
    <contour>
      <point x="208" y="414" type="line"/>
      <point x="208" y="524" type="line"/>
      <point x="53" y="593" type="line"/>
      <point x="11" y="496" type="line"/>
    </contour>
    <contour>
      <point x="395" y="265" type="curve" smooth="yes"/>
      <point x="374" y="265"/>
      <point x="360" y="275"/>
      <point x="360" y="299" type="curve" smooth="yes"/>
      <point x="360" y="324"/>
      <point x="375" y="338"/>
      <point x="420" y="340" type="curve" smooth="yes"/>
      <point x="448" y="341" type="line"/>
      <point x="448" y="314" type="line"/>
      <point x="448" y="285"/>
      <point x="424" y="265"/>
    </contour>
    <contour>
      <point x="758" y="121" type="line"/>
      <point x="800" y="218" type="line"/>
      <point x="604" y="293" type="line"/>
      <point x="604" y="184" type="line"/>
    </contour>
    <contour>
      <point x="604" y="302" type="line"/>
      <point x="802" y="302" type="line"/>
      <point x="802" y="406" type="line"/>
      <point x="604" y="406" type="line"/>
    </contour>
    <contour>
      <point x="604" y="414" type="line"/>
      <point x="800" y="496" type="line"/>
      <point x="758" y="592" type="line"/>
      <point x="604" y="524" type="line"/>
    </contour>
  </outline>
</glyph>
<glyph name="compositionsymbol" format="2">
  <advance width="1173"/>
  <unicode hex="2384"/>
  <note>
uni2384
</note>
  <outline>
    <contour>
      <point x="68" y="0" type="line"/>
      <point x="748" y="0" type="line"/>
      <point x="944" y="0"/>
      <point x="1104" y="161"/>
      <point x="1104" y="357" type="curve" smooth="yes"/>
      <point x="1104" y="555"/>
      <point x="945" y="714"/>
      <point x="748" y="714" type="curve"/>
      <point x="68" y="714" type="line"/>
    </contour>
    <contour>
      <point x="203" y="134" type="line"/>
      <point x="203" y="580" type="line"/>
      <point x="468" y="580" type="line"/>
      <point x="417" y="517"/>
      <point x="391" y="440"/>
      <point x="391" y="357" type="curve" smooth="yes"/>
      <point x="391" y="276"/>
      <point x="419" y="196"/>
      <point x="467" y="134" type="curve"/>
    </contour>
    <contour>
      <point x="680" y="145" type="line"/>
      <point x="587" y="172"/>
      <point x="525" y="257"/>
      <point x="525" y="357" type="curve" smooth="yes"/>
      <point x="525" y="455"/>
      <point x="592" y="540"/>
      <point x="680" y="569" type="curve"/>
    </contour>
    <contour>
      <point x="814" y="145" type="curve"/>
      <point x="814" y="569" type="line"/>
      <point x="907" y="541"/>
      <point x="970" y="457"/>
      <point x="970" y="357" type="curve" smooth="yes"/>
      <point x="970" y="259"/>
      <point x="905" y="173"/>
    </contour>
  </outline>
</glyph>
<glyph name="whitesquarecentreverticalline" format="2">
  <advance width="805"/>
  <unicode hex="2385"/>
  <note>
uni2385
</note>
  <outline>
    <contour>
      <point x="505" y="0" type="line"/>
      <point x="754" y="0" type="line"/>
      <point x="754" y="714" type="line"/>
      <point x="505" y="714" type="line"/>
      <point x="505" y="580" type="line"/>
      <point x="621" y="580" type="line"/>
      <point x="621" y="134" type="line"/>
      <point x="505" y="134" type="line"/>
    </contour>
    <contour>
      <point x="50" y="0" type="line"/>
      <point x="300" y="0" type="line"/>
      <point x="300" y="134" type="line"/>
      <point x="185" y="134" type="line"/>
      <point x="185" y="580" type="line"/>
      <point x="300" y="580" type="line"/>
      <point x="300" y="714" type="line"/>
      <point x="50" y="714" type="line"/>
    </contour>
    <contour>
      <point x="336" y="-149" type="line"/>
      <point x="469" y="-149" type="line"/>
      <point x="469" y="823" type="line"/>
      <point x="336" y="823" type="line"/>
    </contour>
  </outline>
</glyph>
<glyph name="entersymbol" format="2">
  <advance width="817"/>
  <unicode hex="2386"/>
  <note>
uni2386
</note>
  <outline>
    <contour>
      <point x="381" y="-46" type="line"/>
      <point x="784" y="356" type="line"/>
      <point x="381" y="759" type="line"/>
      <point x="99" y="476" type="line"/>
      <point x="244" y="476" type="line"/>
      <point x="388" y="620" type="line"/>
      <point x="652" y="356" type="line"/>
      <point x="388" y="92" type="line"/>
      <point x="244" y="236" type="line"/>
      <point x="99" y="236" type="line"/>
    </contour>
    <contour>
      <point x="404" y="275" type="line"/>
      <point x="404" y="330" type="line"/>
      <point x="80" y="330" type="line"/>
      <point x="80" y="382" type="line"/>
      <point x="404" y="382" type="line"/>
      <point x="404" y="437" type="line"/>
      <point x="483" y="356" type="line"/>
    </contour>
    <contour>
      <point x="360" y="165" type="line"/>
      <point x="545" y="356" type="line"/>
      <point x="360" y="547" type="line"/>
      <point x="360" y="429" type="line"/>
      <point x="33" y="429" type="line"/>
      <point x="33" y="283" type="line"/>
      <point x="360" y="283" type="line"/>
    </contour>
  </outline>
</glyph>
<glyph name="alternativekeysymbol" format="2">
  <advance width="1053"/>
  <unicode hex="2387"/>
  <note>
uni2387
</note>
  <outline>
    <contour>
      <point x="42" y="68" type="line"/>
      <point x="393" y="68" type="line"/>
      <point x="530" y="400" type="line"/>
      <point x="620" y="400" type="line"/>
      <point x="620" y="251" type="line"/>
      <point x="1010" y="467" type="line"/>
      <point x="620" y="684" type="line"/>
      <point x="620" y="534" type="line"/>
      <point x="436" y="534" type="line"/>
      <point x="300" y="203" type="line"/>
      <point x="42" y="203" type="line"/>
    </contour>
    <contour>
      <point x="518" y="68" type="line"/>
      <point x="961" y="68" type="line"/>
      <point x="961" y="203" type="line"/>
      <point x="518" y="203" type="line"/>
    </contour>
    <contour>
      <point x="718" y="420" type="line"/>
      <point x="718" y="515" type="line"/>
      <point x="801" y="467" type="line"/>
    </contour>
  </outline>
</glyph>
<glyph name="helmsymbol" format="2">
  <advance width="961"/>
  <unicode hex="2388"/>
  <note>
uni2388
</note>
  <outline>
    <contour>
      <point x="104" y="46" type="line"/>
      <point x="923" y="519" type="line"/>
      <point x="856" y="636" type="line"/>
      <point x="37" y="163" type="line"/>
    </contour>
    <contour>
      <point x="856" y="46" type="line"/>
      <point x="923" y="163" type="line"/>
      <point x="104" y="636" type="line"/>
      <point x="37" y="519" type="line"/>
    </contour>
    <contour>
      <point x="479" y="6" type="curve" smooth="yes"/>
      <point x="664" y="6"/>
      <point x="814" y="156"/>
      <point x="814" y="341" type="curve" smooth="yes"/>
      <point x="814" y="526"/>
      <point x="664" y="676"/>
      <point x="479" y="676" type="curve" smooth="yes"/>
      <point x="294" y="676"/>
      <point x="144" y="526"/>
      <point x="144" y="341" type="curve" smooth="yes"/>
      <point x="144" y="156"/>
      <point x="292" y="6"/>
    </contour>
    <contour>
      <point x="479" y="131" type="curve" smooth="yes"/>
      <point x="362" y="131"/>
      <point x="269" y="225"/>
      <point x="269" y="341" type="curve" smooth="yes"/>
      <point x="269" y="457"/>
      <point x="363" y="551"/>
      <point x="479" y="551" type="curve" smooth="yes"/>
      <point x="595" y="551"/>
      <point x="689" y="457"/>
      <point x="689" y="341" type="curve" smooth="yes"/>
      <point x="689" y="225"/>
      <point x="595" y="131"/>
    </contour>
    <contour>
      <point x="413" y="-132" type="line"/>
      <point x="547" y="-132" type="line"/>
      <point x="547" y="814" type="line"/>
      <point x="413" y="814" type="line"/>
    </contour>
  </outline>
</glyph>
<glyph name="horizontalbarnotchCircled" format="2">
  <advance width="772"/>
  <unicode hex="2389"/>
  <note>
uni2389
</note>
  <outline>
    <contour>
      <point x="386" y="5" type="curve" smooth="yes"/>
      <point x="571" y="5"/>
      <point x="723" y="154"/>
      <point x="723" y="342" type="curve" smooth="yes"/>
      <point x="723" y="530"/>
      <point x="572" y="680"/>
      <point x="386" y="680" type="curve" smooth="yes"/>
      <point x="202" y="680"/>
      <point x="49" y="530"/>
      <point x="49" y="342" type="curve" smooth="yes"/>
      <point x="49" y="156"/>
      <point x="200" y="5"/>
    </contour>
    <contour>
      <point x="321" y="150" type="line"/>
      <point x="260" y="172"/>
      <point x="213" y="216"/>
      <point x="194" y="279" type="curve"/>
      <point x="259" y="279" type="line"/>
    </contour>
    <contour>
      <point x="451" y="150" type="curve"/>
      <point x="513" y="279" type="line"/>
      <point x="579" y="279" type="line"/>
      <point x="558" y="218"/>
      <point x="511" y="171"/>
    </contour>
    <contour>
      <point x="386" y="301" type="line"/>
      <point x="337" y="407" type="line"/>
      <point x="193" y="407" type="line"/>
      <point x="220" y="488"/>
      <point x="297" y="545"/>
      <point x="386" y="545" type="curve" smooth="yes"/>
      <point x="477" y="545"/>
      <point x="552" y="488"/>
      <point x="579" y="407" type="curve"/>
      <point x="435" y="407" type="line"/>
    </contour>
  </outline>
</glyph>
<glyph name="downCircledTriangle" format="2">
  <advance width="772"/>
  <unicode hex="238A"/>
  <note>
uni238A
</note>
  <outline>
    <contour>
      <point x="386" y="5" type="curve" smooth="yes"/>
      <point x="571" y="5"/>
      <point x="723" y="154"/>
      <point x="723" y="342" type="curve" smooth="yes"/>
      <point x="723" y="530"/>
      <point x="572" y="680"/>
      <point x="386" y="680" type="curve" smooth="yes"/>
      <point x="202" y="680"/>
      <point x="49" y="530"/>
      <point x="49" y="342" type="curve" smooth="yes"/>
      <point x="49" y="156"/>
      <point x="200" y="5"/>
    </contour>
    <contour>
      <point x="300" y="158" type="line"/>
      <point x="231" y="190"/>
      <point x="183" y="260"/>
      <point x="183" y="341" type="curve" smooth="yes"/>
      <point x="183" y="342"/>
      <point x="183" y="342"/>
      <point x="183" y="343" type="curve"/>
    </contour>
    <contour>
      <point x="385" y="262" type="line"/>
      <point x="310" y="382" type="line"/>
      <point x="459" y="382" type="line"/>
    </contour>
    <contour>
      <point x="470" y="158" type="curve"/>
      <point x="589" y="348" type="line"/>
      <point x="589" y="346"/>
      <point x="589" y="344"/>
      <point x="589" y="342" type="curve"/>
      <point x="589" y="261"/>
      <point x="539" y="190"/>
    </contour>
    <contour>
      <point x="267" y="506" type="line"/>
      <point x="301" y="534"/>
      <point x="339" y="545"/>
      <point x="386" y="545" type="curve" smooth="yes"/>
      <point x="431" y="545"/>
      <point x="473" y="532"/>
      <point x="506" y="506" type="curve"/>
    </contour>
  </outline>
</glyph>
<glyph name="brokenCircleNorthWestArrow" format="2">
  <advance width="774"/>
  <unicode hex="238B"/>
  <note>
uni238B
</note>
  <outline>
    <contour>
      <point x="393" y="5" type="curve" smooth="yes"/>
      <point x="576" y="5"/>
      <point x="730" y="155"/>
      <point x="730" y="342" type="curve" smooth="yes"/>
      <point x="730" y="542"/>
      <point x="574" y="680"/>
      <point x="372" y="680" type="curve"/>
      <point x="372" y="545" type="line"/>
      <point x="504" y="545"/>
      <point x="595" y="475"/>
      <point x="595" y="342" type="curve" smooth="yes"/>
      <point x="595" y="230"/>
      <point x="505" y="140"/>
      <point x="393" y="140" type="curve" smooth="yes"/>
      <point x="280" y="140"/>
      <point x="190" y="239"/>
      <point x="190" y="363" type="curve"/>
      <point x="56" y="363" type="line"/>
      <point x="56" y="156"/>
      <point x="186" y="5"/>
    </contour>
    <contour>
      <point x="439" y="198" type="line"/>
      <point x="535" y="293" type="line"/>
      <point x="291" y="542" type="line"/>
      <point x="371" y="624" type="line"/>
      <point x="44" y="699" type="line"/>
      <point x="112" y="364" type="line"/>
      <point x="195" y="447" type="line"/>
    </contour>
    <contour>
      <point x="159" y="510" type="line"/>
      <point x="139" y="604" type="line"/>
      <point x="230" y="581" type="line"/>
    </contour>
  </outline>
</glyph>
<glyph name="undosymbol" format="2">
  <advance width="888"/>
  <unicode hex="238C"/>
  <note>
uni238C
</note>
  <outline>
    <contour>
      <point x="700" y="49" type="curve" smooth="yes"/>
      <point x="783" y="49"/>
      <point x="851" y="116"/>
      <point x="851" y="199" type="curve" smooth="yes"/>
      <point x="851" y="259"/>
      <point x="815" y="312"/>
      <point x="762" y="336" type="curve"/>
      <point x="762" y="338" type="line" smooth="yes"/>
      <point x="762" y="491"/>
      <point x="634" y="620"/>
      <point x="477" y="620" type="curve" smooth="yes"/>
      <point x="411" y="620"/>
      <point x="349" y="597"/>
      <point x="301" y="560" type="curve"/>
      <point x="212" y="616" type="line"/>
      <point x="192" y="276" type="line"/>
      <point x="484" y="450" type="line"/>
      <point x="422" y="488" type="line"/>
      <point x="438" y="493"/>
      <point x="458" y="497"/>
      <point x="477" y="497" type="curve" smooth="yes"/>
      <point x="564" y="497"/>
      <point x="639" y="427"/>
      <point x="639" y="339" type="curve" smooth="yes"/>
      <point x="639" y="337" type="line"/>
      <point x="586" y="314"/>
      <point x="549" y="260"/>
      <point x="549" y="199" type="curve" smooth="yes"/>
      <point x="549" y="116"/>
      <point x="617" y="49"/>
    </contour>
    <contour>
      <point x="189" y="49" type="curve" smooth="yes"/>
      <point x="272" y="49"/>
      <point x="339" y="116"/>
      <point x="339" y="199" type="curve" smooth="yes"/>
      <point x="339" y="283"/>
      <point x="272" y="350"/>
      <point x="189" y="350" type="curve" smooth="yes"/>
      <point x="105" y="350"/>
      <point x="38" y="284"/>
      <point x="38" y="199" type="curve" smooth="yes"/>
      <point x="38" y="115"/>
      <point x="105" y="49"/>
    </contour>
    <contour>
      <point x="189" y="169" type="curve" smooth="yes"/>
      <point x="172" y="169"/>
      <point x="159" y="183"/>
      <point x="159" y="199" type="curve" smooth="yes"/>
      <point x="159" y="216"/>
      <point x="172" y="229"/>
      <point x="189" y="229" type="curve" smooth="yes"/>
      <point x="205" y="229"/>
      <point x="218" y="216"/>
      <point x="218" y="199" type="curve" smooth="yes"/>
      <point x="218" y="183"/>
      <point x="205" y="169"/>
    </contour>
    <contour>
      <point x="269" y="403" type="line"/>
      <point x="276" y="502" type="line"/>
      <point x="357" y="454" type="line"/>
    </contour>
    <contour>
      <point x="700" y="169" type="curve" smooth="yes"/>
      <point x="684" y="169"/>
      <point x="670" y="183"/>
      <point x="670" y="199" type="curve" smooth="yes"/>
      <point x="670" y="216"/>
      <point x="684" y="229"/>
      <point x="700" y="229" type="curve" smooth="yes"/>
      <point x="716" y="229"/>
      <point x="729" y="216"/>
      <point x="729" y="199" type="curve" smooth="yes"/>
      <point x="729" y="183"/>
      <point x="716" y="169"/>
    </contour>
  </outline>
</glyph>
<glyph name="monostablesymbol" format="2">
  <advance width="814"/>
  <unicode hex="238D"/>
  <note>
uni238D
</note>
  <outline>
    <contour>
      <point x="51" y="0" type="line"/>
      <point x="320" y="0" type="line"/>
      <point x="320" y="580" type="line"/>
      <point x="493" y="580" type="line"/>
      <point x="493" y="0" type="line"/>
      <point x="763" y="0" type="line"/>
      <point x="763" y="134" type="line"/>
      <point x="627" y="134" type="line"/>
      <point x="627" y="714" type="line"/>
      <point x="186" y="714" type="line"/>
      <point x="186" y="134" type="line"/>
      <point x="51" y="134" type="line"/>
    </contour>
  </outline>
</glyph>
<glyph name="hysteresissymbol" format="2">
  <advance width="686"/>
  <unicode hex="238E"/>
  <note>
uni238E
</note>
  <outline>
    <contour>
      <point x="44" y="0" type="line"/>
      <point x="386" y="0" type="line" smooth="yes"/>
      <point x="496" y="0"/>
      <point x="564" y="74"/>
      <point x="564" y="190" type="curve" smooth="yes"/>
      <point x="564" y="518" type="line" smooth="yes"/>
      <point x="564" y="574"/>
      <point x="586" y="609"/>
      <point x="641" y="628" type="curve"/>
      <point x="641" y="714" type="line"/>
      <point x="301" y="714" type="line" smooth="yes"/>
      <point x="191" y="714"/>
      <point x="123" y="640"/>
      <point x="123" y="524" type="curve" smooth="yes"/>
      <point x="123" y="197" type="line" smooth="yes"/>
      <point x="123" y="140"/>
      <point x="100" y="104"/>
      <point x="44" y="85" type="curve"/>
    </contour>
    <contour>
      <point x="249" y="134" type="line"/>
      <point x="249" y="135" type="line"/>
      <point x="254" y="153"/>
      <point x="257" y="173"/>
      <point x="257" y="197" type="curve" smooth="yes"/>
      <point x="257" y="524" type="line" smooth="yes"/>
      <point x="257" y="560"/>
      <point x="273" y="580"/>
      <point x="301" y="580" type="curve" smooth="yes"/>
      <point x="437" y="580" type="line"/>
      <point x="437" y="579" type="line"/>
      <point x="432" y="561"/>
      <point x="430" y="541"/>
      <point x="430" y="518" type="curve" smooth="yes"/>
      <point x="430" y="190" type="line" smooth="yes"/>
      <point x="430" y="154"/>
      <point x="413" y="134"/>
      <point x="386" y="134" type="curve" smooth="yes"/>
    </contour>
  </outline>
</glyph>
<glyph name="openCircuitOutputHType" format="2">
  <advance width="862"/>
  <unicode hex="238F"/>
  <note>
uni238F
</note>
  <outline>
    <contour>
      <point x="431" y="-15" type="line"/>
      <point x="824" y="377" type="line"/>
      <point x="581" y="621" type="line"/>
      <point x="809" y="621" type="line"/>
      <point x="809" y="755" type="line"/>
      <point x="53" y="755" type="line"/>
      <point x="53" y="621" type="line"/>
      <point x="282" y="621" type="line"/>
      <point x="38" y="377" type="line"/>
    </contour>
    <contour>
      <point x="431" y="177" type="line"/>
      <point x="230" y="377" type="line"/>
      <point x="431" y="578" type="line"/>
      <point x="632" y="378" type="line"/>
    </contour>
  </outline>
</glyph>
<glyph name="openCircuitOutputLType" format="2">
  <advance width="862"/>
  <unicode hex="2390"/>
  <note>
uni2390
</note>
  <outline>
    <contour>
      <point x="53" y="0" type="line"/>
      <point x="809" y="0" type="line"/>
      <point x="809" y="134" type="line"/>
      <point x="581" y="134" type="line"/>
      <point x="824" y="377" type="line"/>
      <point x="431" y="770" type="line"/>
      <point x="38" y="377" type="line"/>
      <point x="282" y="134" type="line"/>
      <point x="53" y="134" type="line"/>
    </contour>
    <contour>
      <point x="431" y="177" type="line"/>
      <point x="230" y="377" type="line"/>
      <point x="431" y="578" type="line"/>
      <point x="632" y="377" type="line"/>
    </contour>
  </outline>
</glyph>
<glyph name="directcurrentsymbolformtwo" format="2">
  <advance width="802"/>
  <unicode hex="2393"/>
  <note>
uni2393
</note>
  <outline>
    <contour>
      <point x="50" y="395" type="line"/>
      <point x="751" y="395" type="line"/>
      <point x="751" y="529" type="line"/>
      <point x="50" y="529" type="line"/>
    </contour>
    <contour>
      <point x="50" y="218" type="line"/>
      <point x="245" y="218" type="line"/>
      <point x="245" y="352" type="line"/>
      <point x="50" y="352" type="line"/>
    </contour>
    <contour>
      <point x="303" y="218" type="line"/>
      <point x="498" y="218" type="line"/>
      <point x="498" y="352" type="line"/>
      <point x="303" y="352" type="line"/>
    </contour>
    <contour>
      <point x="556" y="218" type="line"/>
      <point x="751" y="218" type="line"/>
      <point x="751" y="352" type="line"/>
      <point x="556" y="352" type="line"/>
    </contour>
  </outline>
</glyph>
<glyph name="softwareFunctionsymbol" format="2">
  <advance width="828"/>
  <unicode hex="2394"/>
  <note>
uni2394
</note>
  <outline>
    <contour>
      <point x="229" y="40" type="line"/>
      <point x="600" y="40" type="line"/>
      <point x="782" y="357" type="line"/>
      <point x="600" y="674" type="line"/>
      <point x="229" y="674" type="line"/>
      <point x="46" y="357" type="line"/>
    </contour>
    <contour>
      <point x="313" y="163" type="line"/>
      <point x="198" y="357" type="line"/>
      <point x="313" y="551" type="line"/>
      <point x="515" y="551" type="line"/>
      <point x="629" y="357" type="line"/>
      <point x="515" y="163" type="line"/>
    </contour>
  </outline>
</glyph>
<glyph name="previouspage" format="2">
  <advance width="931"/>
  <unicode hex="2397"/>
  <note>
uni2397
</note>
  <outline>
    <contour>
      <point x="363" y="0" type="line"/>
      <point x="880" y="0" type="line"/>
      <point x="880" y="590" type="line"/>
      <point x="568" y="590" type="line"/>
      <point x="568" y="702" type="line"/>
      <point x="430" y="702" type="line"/>
      <point x="430" y="629" type="line"/>
      <point x="495" y="629" type="line"/>
      <point x="495" y="590" type="line"/>
      <point x="363" y="590" type="line"/>
      <point x="363" y="457" type="line"/>
      <point x="324" y="457" type="line"/>
      <point x="324" y="563" type="line"/>
      <point x="158" y="391" type="line"/>
      <point x="324" y="219" type="line"/>
      <point x="324" y="325" type="line"/>
      <point x="363" y="325" type="line"/>
      <point x="363" y="185" type="line"/>
      <point x="238" y="185" type="line"/>
      <point x="238" y="112" type="line"/>
      <point x="363" y="112" type="line"/>
    </contour>
    <contour>
      <point x="51" y="112" type="line"/>
      <point x="190" y="112" type="line"/>
      <point x="190" y="185" type="line"/>
      <point x="124" y="185" type="line"/>
      <point x="124" y="192" type="line"/>
      <point x="51" y="192" type="line"/>
    </contour>
    <contour>
      <point x="51" y="240" type="line"/>
      <point x="124" y="240" type="line"/>
      <point x="124" y="381" type="line"/>
      <point x="51" y="381" type="line"/>
    </contour>
    <contour>
      <point x="51" y="429" type="line"/>
      <point x="124" y="429" type="line"/>
      <point x="124" y="572" type="line"/>
      <point x="51" y="572" type="line"/>
    </contour>
    <contour>
      <point x="51" y="620" type="line"/>
      <point x="124" y="620" type="line"/>
      <point x="124" y="629" type="line"/>
      <point x="190" y="629" type="line"/>
      <point x="190" y="702" type="line"/>
      <point x="51" y="702" type="line"/>
    </contour>
    <contour>
      <point x="284" y="320" type="line"/>
      <point x="216" y="391" type="line"/>
      <point x="284" y="462" type="line"/>
      <point x="284" y="413" type="line"/>
      <point x="563" y="413" type="line"/>
      <point x="563" y="369" type="line"/>
      <point x="284" y="369" type="line"/>
    </contour>
    <contour>
      <point x="437" y="73" type="line"/>
      <point x="437" y="325" type="line"/>
      <point x="606" y="325" type="line"/>
      <point x="606" y="457" type="line"/>
      <point x="437" y="457" type="line"/>
      <point x="437" y="518" type="line"/>
      <point x="807" y="518" type="line"/>
      <point x="807" y="73" type="line"/>
    </contour>
    <contour>
      <point x="238" y="629" type="line"/>
      <point x="382" y="629" type="line"/>
      <point x="382" y="702" type="line"/>
      <point x="238" y="702" type="line"/>
    </contour>
  </outline>
</glyph>
<glyph name="nextpage" format="2">
  <advance width="931"/>
  <unicode hex="2398"/>
  <note>
uni2398
</note>
  <outline>
    <contour>
      <point x="51" y="112" type="line"/>
      <point x="315" y="112" type="line"/>
      <point x="315" y="185" type="line"/>
      <point x="125" y="185" type="line"/>
      <point x="125" y="629" type="line"/>
      <point x="495" y="629" type="line"/>
      <point x="495" y="617" type="line"/>
      <point x="568" y="617" type="line"/>
      <point x="568" y="702" type="line"/>
      <point x="51" y="702" type="line"/>
    </contour>
    <contour>
      <point x="363" y="0" type="line"/>
      <point x="502" y="0" type="line"/>
      <point x="502" y="73" type="line"/>
      <point x="436" y="73" type="line"/>
      <point x="436" y="80" type="line"/>
      <point x="363" y="80" type="line"/>
    </contour>
    <contour>
      <point x="550" y="0" type="line"/>
      <point x="694" y="0" type="line"/>
      <point x="694" y="73" type="line"/>
      <point x="550" y="73" type="line"/>
    </contour>
    <contour>
      <point x="552" y="240" type="line"/>
      <point x="552" y="289" type="line"/>
      <point x="273" y="289" type="line"/>
      <point x="273" y="333" type="line"/>
      <point x="552" y="333" type="line"/>
      <point x="552" y="382" type="line"/>
      <point x="620" y="311" type="line"/>
    </contour>
    <contour>
      <point x="363" y="128" type="line"/>
      <point x="436" y="128" type="line"/>
      <point x="436" y="245" type="line"/>
      <point x="512" y="245" type="line"/>
      <point x="512" y="139" type="line"/>
      <point x="678" y="311" type="line"/>
      <point x="512" y="483" type="line"/>
      <point x="512" y="377" type="line"/>
      <point x="436" y="377" type="line"/>
      <point x="436" y="460" type="line"/>
      <point x="363" y="460" type="line"/>
      <point x="363" y="377" type="line"/>
      <point x="230" y="377" type="line"/>
      <point x="230" y="245" type="line"/>
      <point x="363" y="245" type="line"/>
    </contour>
    <contour>
      <point x="742" y="0" type="line"/>
      <point x="880" y="0" type="line"/>
      <point x="880" y="80" type="line"/>
      <point x="807" y="80" type="line"/>
      <point x="807" y="73" type="line"/>
      <point x="742" y="73" type="line"/>
    </contour>
    <contour>
      <point x="363" y="508" type="line"/>
      <point x="436" y="508" type="line"/>
      <point x="436" y="518" type="line"/>
      <point x="502" y="518" type="line"/>
      <point x="502" y="590" type="line"/>
      <point x="363" y="590" type="line"/>
    </contour>
    <contour>
      <point x="807" y="128" type="line"/>
      <point x="880" y="128" type="line"/>
      <point x="880" y="269" type="line"/>
      <point x="807" y="269" type="line"/>
    </contour>
    <contour>
      <point x="550" y="518" type="line"/>
      <point x="694" y="518" type="line"/>
      <point x="694" y="590" type="line"/>
      <point x="550" y="590" type="line"/>
    </contour>
    <contour>
      <point x="807" y="317" type="line"/>
      <point x="880" y="317" type="line"/>
      <point x="880" y="460" type="line"/>
      <point x="807" y="460" type="line"/>
    </contour>
    <contour>
      <point x="807" y="508" type="line"/>
      <point x="880" y="508" type="line"/>
      <point x="880" y="590" type="line"/>
      <point x="742" y="590" type="line"/>
      <point x="742" y="518" type="line"/>
      <point x="807" y="518" type="line"/>
    </contour>
  </outline>
</glyph>
<glyph name="printscreensymbol" format="2">
  <advance width="1064"/>
  <unicode hex="2399"/>
  <note>
uni2399
</note>
  <outline>
    <contour>
      <point x="532" y="-15" type="curve" smooth="yes"/>
      <point x="691" y="-15"/>
      <point x="857" y="1"/>
      <point x="956" y="25" type="curve"/>
      <point x="992" y="136"/>
      <point x="1001" y="186"/>
      <point x="1001" y="297" type="curve" smooth="yes"/>
      <point x="1001" y="403"/>
      <point x="991" y="460"/>
      <point x="956" y="570" type="curve"/>
      <point x="912" y="580"/>
      <point x="864" y="588"/>
      <point x="813" y="594" type="curve"/>
      <point x="813" y="917" type="line"/>
      <point x="475" y="917" type="line"/>
      <point x="253" y="705" type="line"/>
      <point x="253" y="596" type="line"/>
      <point x="204" y="590"/>
      <point x="154" y="581"/>
      <point x="108" y="570" type="curve"/>
      <point x="74" y="464"/>
      <point x="63" y="401"/>
      <point x="63" y="297" type="curve" smooth="yes"/>
      <point x="63" y="189"/>
      <point x="72" y="136"/>
      <point x="108" y="25" type="curve"/>
      <point x="205" y="1"/>
      <point x="375" y="-15"/>
    </contour>
    <contour>
      <point x="532" y="120" type="curve" smooth="yes"/>
      <point x="433" y="120"/>
      <point x="292" y="128"/>
      <point x="215" y="141" type="curve"/>
      <point x="204" y="182"/>
      <point x="198" y="234"/>
      <point x="198" y="297" type="curve" smooth="yes"/>
      <point x="198" y="361"/>
      <point x="204" y="413"/>
      <point x="215" y="454" type="curve"/>
      <point x="229" y="457"/>
      <point x="239" y="458"/>
      <point x="253" y="459" type="curve"/>
      <point x="253" y="225" type="line"/>
      <point x="813" y="225" type="line"/>
      <point x="813" y="458" type="line"/>
      <point x="836" y="456"/>
      <point x="842" y="455"/>
      <point x="849" y="454" type="curve"/>
      <point x="860" y="413"/>
      <point x="866" y="360"/>
      <point x="866" y="297" type="curve" smooth="yes"/>
      <point x="866" y="234"/>
      <point x="861" y="182"/>
      <point x="849" y="141" type="curve"/>
      <point x="771" y="128"/>
      <point x="631" y="120"/>
    </contour>
    <contour>
      <point x="386" y="359" type="line"/>
      <point x="386" y="599" type="line"/>
      <point x="568" y="599" type="line"/>
      <point x="568" y="784" type="line"/>
      <point x="679" y="784" type="line"/>
      <point x="679" y="359" type="line"/>
    </contour>
    <contour>
      <point x="382" y="675" type="line"/>
      <point x="492" y="779" type="line"/>
      <point x="492" y="675" type="line"/>
    </contour>
  </outline>
</glyph>
<glyph name="clearscreensymbol" format="2">
  <advance width="1064"/>
  <unicode hex="239A"/>
  <note>
uni239A
</note>
  <outline>
    <contour>
      <point x="532" y="-15" type="curve" smooth="yes"/>
      <point x="691" y="-15"/>
      <point x="857" y="1"/>
      <point x="956" y="25" type="curve"/>
      <point x="992" y="136"/>
      <point x="1001" y="186"/>
      <point x="1001" y="297" type="curve" smooth="yes"/>
      <point x="1001" y="404"/>
      <point x="991" y="460"/>
      <point x="956" y="569" type="curve"/>
      <point x="857" y="594"/>
      <point x="688" y="609"/>
      <point x="532" y="609" type="curve" smooth="yes"/>
      <point x="378" y="609"/>
      <point x="205" y="594"/>
      <point x="108" y="569" type="curve"/>
      <point x="74" y="463"/>
      <point x="63" y="402"/>
      <point x="63" y="297" type="curve" smooth="yes"/>
      <point x="63" y="189"/>
      <point x="72" y="136"/>
      <point x="108" y="25" type="curve"/>
      <point x="205" y="1"/>
      <point x="375" y="-15"/>
    </contour>
    <contour>
      <point x="547" y="71" type="line"/>
      <point x="755" y="291" type="line"/>
      <point x="686" y="351" type="line"/>
      <point x="479" y="130" type="line"/>
    </contour>
    <contour>
      <point x="532" y="120" type="curve" smooth="yes"/>
      <point x="433" y="120"/>
      <point x="291" y="128"/>
      <point x="215" y="141" type="curve"/>
      <point x="204" y="182"/>
      <point x="198" y="234"/>
      <point x="198" y="297" type="curve" smooth="yes"/>
      <point x="198" y="361"/>
      <point x="204" y="413"/>
      <point x="215" y="454" type="curve"/>
      <point x="292" y="467"/>
      <point x="434" y="475"/>
      <point x="532" y="475" type="curve" smooth="yes"/>
      <point x="631" y="475"/>
      <point x="771" y="467"/>
      <point x="849" y="454" type="curve"/>
      <point x="860" y="413"/>
      <point x="866" y="360"/>
      <point x="866" y="297" type="curve" smooth="yes"/>
      <point x="866" y="234"/>
      <point x="861" y="182"/>
      <point x="849" y="141" type="curve"/>
      <point x="771" y="128"/>
      <point x="631" y="120"/>
    </contour>
    <contour>
      <point x="411" y="105" type="line"/>
      <point x="721" y="433" type="line"/>
      <point x="652" y="494" type="line"/>
      <point x="342" y="164" type="line"/>
    </contour>
    <contour>
      <point x="375" y="246" type="line"/>
      <point x="584" y="465" type="line"/>
      <point x="514" y="526" type="line"/>
      <point x="310" y="305" type="line"/>
    </contour>
  </outline>
</glyph>
<glyph name="horizontallineextension" format="2">
  <advance width="1000"/>
  <unicode hex="23AF"/>
  <note>
uni23AF
</note>
  <outline>
    <contour>
      <point x="-2" y="288" type="line"/>
      <point x="1002" y="288" type="line"/>
      <point x="1002" y="396" type="line"/>
      <point x="-2" y="396" type="line"/>
    </contour>
  </outline>
</glyph>
<glyph name="verticalandtopright-dentistry" format="2">
  <advance width="699"/>
  <unicode hex="23BE"/>
  <outline>
    <contour>
      <point x="284" y="0" type="line"/>
      <point x="419" y="0" type="line"/>
      <point x="419" y="580" type="line"/>
      <point x="709" y="580" type="line"/>
      <point x="709" y="714" type="line"/>
      <point x="284" y="714" type="line"/>
    </contour>
  </outline>
</glyph>
